<?xml version="1.0" encoding="UTF-8"?>
<svg width="1366px" height="768px" viewBox="0 0 1366 768" version="1.1" xmlns="http://www.w3.org/2000/svg" xmlns:xlink="http://www.w3.org/1999/xlink">
    <title>Group 217</title>
    <g id="Page-1" stroke="none" stroke-width="1" fill="none" fill-rule="evenodd" opacity="0.1">
        <g id="Group-217" stroke="#FEFEFE" transform="translate(-582.000000, -23.000000)">
            <path d="M613.237681,50.5132058 C613.237681,47.915898 612.880584,45.5369892 612.166391,43.3738705 C611.451823,41.2103791 610.395147,39.3409437 608.995987,37.7629553 C607.596453,36.1875757 605.857809,34.9532117 603.776306,34.0565088 C601.692181,33.1594332 599.253582,32.7110817 596.457886,32.7110817 C595.213481,32.7110817 594.001676,32.7897203 592.822096,32.9440158 C591.639143,33.0983113 590.491787,33.3286365 589.373284,33.6372275 L587.880448,68.1289827 L590.120077,68.1289827 C592.789871,68.1289827 595.509126,67.7909488 598.275594,67.1096633 C601.039065,66.4283778 603.524502,65.3773794 605.731907,63.9562954 C607.938936,62.535584 609.739408,60.7127354 611.138567,58.4881221 C612.538101,56.2638815 613.237681,53.6054518 613.237681,50.5132058 Z M655,47.5461851 C655,52.3677335 654.578454,56.7413031 653.741356,60.6661486 C652.901261,64.590994 651.58079,68.1927134 649.777696,71.4683251 C647.974227,74.7443095 645.643918,77.7724521 642.786771,80.5527528 C639.929623,83.3364078 636.481186,85.9948375 632.44146,88.5280418 L654.62829,127.838364 L612.678616,136 L598.322433,96.5003492 L586.762319,96.8700621 L585.084752,135.440958 L545,135.440958 C545.310258,121.348262 545.605903,107.320042 545.886934,93.3495902 C546.164967,79.3795106 546.489839,65.3483092 546.864547,51.2526316 C546.987451,44.1453481 547.113353,37.0991864 547.236257,30.1141467 C547.359536,23.1317157 547.608342,16.0855541 547.98305,8.97528898 C552.333034,7.36785772 556.618568,6.04032002 560.846022,4.98932161 C565.073102,3.93795051 569.314796,3.11988615 573.571477,2.53177427 C577.827784,1.9436624 582.148541,1.54189776 586.531125,1.32610766 C590.910336,1.11069026 595.400835,1 600,1 C607.084228,1 613.934263,1.97571412 620.553103,3.92043387 C627.172318,5.86850787 633.029752,8.78894174 638.126529,12.684717 C643.220308,16.5804923 647.306872,21.4314836 650.383599,27.2402996 C653.460325,33.0517245 655,39.818738 655,47.5461851 Z" id="Stroke-9"></path>
            <path d="M731.745769,73.1187501 C731.745769,70.4474718 731.35773,67.8523014 730.584641,65.3332391 C729.808563,62.8145517 728.67918,60.5766765 727.193877,58.6169892 C725.705959,56.6576769 723.864736,55.0729058 721.664979,53.8604267 C719.464848,52.6475726 716.940915,52.041333 714.093182,52.041333 C711.18121,52.041333 708.578849,52.5714646 706.288337,53.626104 C703.994838,54.6833679 702.028501,56.1301697 700.38858,57.9638851 C698.746045,59.7976005 697.491174,61.944371 696.624716,64.3989478 C695.758258,66.8565239 695.32615,69.4516942 695.32615,72.1874581 C695.32615,74.7998746 695.697009,77.4096667 696.440967,80.0224581 C697.181938,82.6352495 698.296383,84.9960972 699.784674,87.1106249 C701.269603,89.2255275 703.110827,90.9332711 705.310958,92.2394793 C707.510715,93.5456875 710.066766,94.1991666 712.978737,94.1991666 C715.890708,94.1991666 718.508009,93.6247949 720.830266,92.473802 C723.152896,91.3258084 725.119606,89.7702808 726.730023,87.8109685 C728.340813,85.8542805 729.577757,83.5987843 730.444588,81.0474791 C731.311046,78.4995483 731.745769,75.8545141 731.745769,73.1187501 Z M773,70.6934168 C773,76.3524028 772.34941,81.809309 771.047855,87.0637603 C769.746674,92.3185866 767.870345,97.2479856 765.425589,101.849708 C762.980459,106.451055 760.007238,110.663239 756.505927,114.48551 C753.004615,118.310781 749.071568,121.591298 744.706412,124.327062 C740.34163,127.062826 735.585448,129.191976 730.444588,130.71526 C725.303355,132.23817 719.852886,133 714.093182,133 C708.517599,133 703.207183,132.285035 698.159318,130.855854 C693.111827,129.426298 688.387763,127.420121 683.990863,124.839573 C679.590974,122.259024 675.610869,119.148344 672.051296,115.510531 C668.488734,111.872719 665.454264,107.833746 662.944897,103.387239 C660.435903,98.9411074 658.483759,94.1695482 657.089209,89.0703122 C655.694287,83.9707012 655,78.6547636 655,73.1187501 C655,67.7117078 655.65059,62.4103919 656.951771,57.2170519 C658.253326,52.0267112 660.126294,47.1295551 662.571424,42.5278329 C665.016553,37.9264857 667.975208,33.6970554 671.444402,29.8421664 C674.913595,25.9876523 678.799958,22.6602706 683.106851,19.860021 C687.410384,17.0627708 692.07021,14.8867569 697.08857,13.3312293 C702.107304,11.779076 707.402781,11 712.978737,11 C721.959649,11 730.149918,12.3999373 737.552158,15.1971875 C744.954398,17.997437 751.271325,21.9925447 756.505927,27.1828854 C761.740528,32.3758505 765.796074,38.6556978 768.678914,46.0250518 C771.558393,53.3947807 773,61.6163193 773,70.6934168 Z" id="Stroke-11"></path>
            <path d="M873,5.8260665 L867.77098,44.9866605 C865.96466,44.4912968 864.157964,44.1533453 862.354646,43.9668379 C860.547951,43.7803304 858.744258,43.6870767 856.937937,43.6870767 C852.330544,43.6870767 847.940495,44.2902418 843.770417,45.4969449 C839.599964,46.703275 835.910746,48.5448495 832.705391,51.0190572 C829.497032,53.4932649 826.945586,56.5851852 825.045421,60.2978023 C823.145256,64.0104194 822.197801,68.3732014 822.197801,73.3824182 C822.197801,76.5996715 822.710943,79.3857197 823.737603,81.7345943 C824.763887,84.0864532 826.212472,86.0358289 828.08073,87.5804835 C829.948612,89.1277492 832.159966,90.2732779 834.711412,91.0133395 C837.262859,91.7563851 840.066559,92.1264159 843.116508,92.1264159 C845.418328,92.1264159 847.814368,91.8817181 850.307255,91.3863543 C852.797139,90.8909906 855.257369,90.2411987 857.685691,89.4366056 C860.114013,88.6323855 862.477771,87.7058165 864.782593,86.6535416 C867.084789,85.6016396 869.202298,84.5176584 871.131742,83.4042089 L867.398605,127.020839 C864.970283,128.256637 862.340007,129.355166 859.507027,130.313814 C856.674046,131.275446 853.761862,132.109135 850.773475,132.820101 C847.785088,133.531067 844.796701,134.073058 841.808315,134.443462 C838.819928,134.816477 835.957668,135 833.218533,135 C825.312315,135 817.933879,133.548599 811.086228,130.640202 C804.235573,127.731805 798.291082,123.742411 793.246749,118.669036 C788.20279,113.595287 784.234666,107.609517 781.340124,100.711726 C778.445582,93.8139352 777,86.3737804 777,78.392008 C777,67.8136791 778.524787,57.8381422 781.574735,48.4665163 C784.624684,39.0945175 789.108954,30.8822219 795.02379,23.8300026 C800.935998,16.7774103 808.267887,11.2086712 817.015703,7.12565034 C825.760892,3.04300249 835.831541,1 847.225024,1 C851.521228,1 855.926293,1.34130861 860.439466,2.02019569 C864.953015,2.70206689 869.140736,3.96957145 873,5.8260665 Z" id="Stroke-13"></path>
            <polygon id="Stroke-15" points="998 3.70822259 953.048068 65.4387838 990.912744 131.061246 947.638722 138.66137 919.289697 98.6212844 917.795848 140.515295 879 142 881.984325 0 925.442782 2.41017702 922.086588 44.3041878 950.997915 0"></polygon>
            <path d="M1155.23768,50.5132058 C1155.23768,47.915898 1154.88058,45.5369892 1154.16639,43.3738705 C1153.45182,41.2103791 1152.39515,39.3409437 1150.99599,37.7629553 C1149.59645,36.1875757 1147.85781,34.9532117 1145.77631,34.0565088 C1143.69218,33.1594332 1141.25358,32.7110817 1138.45789,32.7110817 C1137.21348,32.7110817 1136.00168,32.7897203 1134.8221,32.9440158 C1133.63914,33.0983113 1132.49179,33.3286365 1131.37328,33.6372275 L1129.88045,68.1289827 L1132.12008,68.1289827 C1134.78987,68.1289827 1137.50913,67.7909488 1140.27559,67.1096633 C1143.03907,66.4283778 1145.5245,65.3773794 1147.73191,63.9562954 C1149.93894,62.535584 1151.73941,60.7127354 1153.13857,58.4881221 C1154.5381,56.2638815 1155.23768,53.6054518 1155.23768,50.5132058 Z M1197,47.5461851 C1197,52.3677335 1196.57845,56.7413031 1195.74136,60.6661486 C1194.90126,64.590994 1193.58079,68.1927134 1191.7777,71.4683251 C1189.97423,74.7443095 1187.64392,77.7724521 1184.78677,80.5527528 C1181.92962,83.3364078 1178.48119,85.9948375 1174.44146,88.5280418 L1196.62829,127.838364 L1154.67862,136 L1140.32243,96.5003492 L1128.76232,96.8700621 L1127.08475,135.440958 L1087,135.440958 C1087.31026,121.348262 1087.6059,107.320042 1087.88693,93.3495902 C1088.16497,79.3795106 1088.48984,65.3483092 1088.86455,51.2526316 C1088.98745,44.1453481 1089.11335,37.0991864 1089.23626,30.1141467 C1089.35954,23.1317157 1089.60834,16.0855541 1089.98305,8.97528898 C1094.33303,7.36785772 1098.61857,6.04032002 1102.84602,4.98932161 C1107.0731,3.93795051 1111.3148,3.11988615 1115.57148,2.53177427 C1119.82778,1.9436624 1124.14854,1.54189776 1128.53112,1.32610766 C1132.91034,1.11069026 1137.40084,1 1142,1 C1149.08423,1 1155.93426,1.97571412 1162.5531,3.92043387 C1169.17232,5.86850787 1175.02975,8.78894174 1180.12653,12.684717 C1185.22031,16.5804923 1189.30687,21.4314836 1192.3836,27.2402996 C1195.46033,33.0517245 1197,39.818738 1197,47.5461851 Z" id="Stroke-17"></path>
            <path d="M1275.74577,73.1187501 C1275.74577,70.4474718 1275.35773,67.8523014 1274.58464,65.3332391 C1273.80856,62.8145517 1272.67918,60.5766765 1271.19388,58.6169892 C1269.70596,56.6576769 1267.86474,55.0729058 1265.66498,53.8604267 C1263.46485,52.6475726 1260.94092,52.041333 1258.09318,52.041333 C1255.18121,52.041333 1252.57885,52.5714646 1250.28834,53.626104 C1247.99484,54.6833679 1246.0285,56.1301697 1244.38858,57.9638851 C1242.74604,59.7976005 1241.49117,61.944371 1240.62472,64.3989478 C1239.75826,66.8565239 1239.32615,69.4516942 1239.32615,72.1874581 C1239.32615,74.7998746 1239.69701,77.4096667 1240.44097,80.0224581 C1241.18194,82.6352495 1242.29638,84.9960972 1243.78467,87.1106249 C1245.2696,89.2255275 1247.11083,90.9332711 1249.31096,92.2394793 C1251.51072,93.5456875 1254.06677,94.1991666 1256.97874,94.1991666 C1259.89071,94.1991666 1262.50801,93.6247949 1264.83027,92.473802 C1267.1529,91.3258084 1269.11961,89.7702808 1270.73002,87.8109685 C1272.34081,85.8542805 1273.57776,83.5987843 1274.44459,81.0474791 C1275.31105,78.4995483 1275.74577,75.8545141 1275.74577,73.1187501 Z M1317,70.6934168 C1317,76.3524028 1316.34941,81.809309 1315.04786,87.0637603 C1313.74667,92.3185866 1311.87072,97.2479856 1309.42559,101.849708 C1306.98046,106.451055 1304.00724,110.663239 1300.50593,114.48551 C1297.00461,118.310781 1293.07157,121.591298 1288.70641,124.327062 C1284.34163,127.062826 1279.58545,129.191976 1274.44459,130.71526 C1269.30336,132.23817 1263.85289,133 1258.09318,133 C1252.5176,133 1247.20718,132.285035 1242.15932,130.855854 C1237.11183,129.426298 1232.38776,127.420121 1227.99086,124.839573 C1223.59097,122.259024 1219.61087,119.148344 1216.0513,115.510531 C1212.48873,111.872719 1209.45426,107.833746 1206.9449,103.387239 C1204.4359,98.9411074 1202.48376,94.1695482 1201.08921,89.0703122 C1199.69429,83.9707012 1199,78.6547636 1199,73.1187501 C1199,67.7117078 1199.65059,62.4103919 1200.95177,57.2170519 C1202.25333,52.0267112 1204.12629,47.1295551 1206.57142,42.5278329 C1209.01655,37.9264857 1211.97521,33.6970554 1215.4444,29.8421664 C1218.91359,25.9876523 1222.79996,22.6602706 1227.10685,19.860021 C1231.41038,17.0627708 1236.07021,14.8867569 1241.08857,13.3312293 C1246.1073,11.779076 1251.40278,11 1256.97874,11 C1265.95965,11 1274.14992,12.3999373 1281.55216,15.1971875 C1288.9544,17.997437 1295.27133,21.9925447 1300.50593,27.1828854 C1305.74053,32.3758505 1309.79607,38.6556978 1312.67891,46.0250518 C1315.55877,53.3947807 1317,61.6163193 1317,70.6934168 Z" id="Stroke-19"></path>
            <path d="M1416,5.8260665 L1410.77098,44.9866605 C1408.96466,44.4912968 1407.15796,44.1533453 1405.35465,43.9668379 C1403.54795,43.7803304 1401.74426,43.6870767 1399.93794,43.6870767 C1395.33054,43.6870767 1390.94049,44.2902418 1386.77042,45.4969449 C1382.59996,46.703275 1378.91075,48.5448495 1375.70539,51.0190572 C1372.49703,53.4932649 1369.94559,56.5851852 1368.04542,60.2978023 C1366.14526,64.0104194 1365.1978,68.3732014 1365.1978,73.3824182 C1365.1978,76.5996715 1365.71094,79.3857197 1366.7376,81.7345943 C1367.76389,84.0864532 1369.21247,86.0358289 1371.08073,87.5804835 C1372.94861,89.1277492 1375.15997,90.2732779 1377.71141,91.0133395 C1380.26286,91.7563851 1383.06656,92.1264159 1386.11651,92.1264159 C1388.41833,92.1264159 1390.81437,91.8817181 1393.30725,91.3863543 C1395.79714,90.8909906 1398.25737,90.2411987 1400.68569,89.4366056 C1403.11401,88.6323855 1405.47777,87.7058165 1407.78259,86.6535416 C1410.08479,85.6016396 1412.2023,84.5176584 1414.13174,83.4042089 L1410.3986,127.020839 C1407.97028,128.256637 1405.34001,129.355166 1402.50703,130.313814 C1399.67405,131.275446 1396.76186,132.109135 1393.77347,132.820101 C1390.78509,133.531067 1387.7967,134.073058 1384.80831,134.443462 C1381.81993,134.816477 1378.95767,135 1376.21853,135 C1368.31231,135 1360.93388,133.548599 1354.08623,130.640202 C1347.23557,127.731805 1341.29108,123.742411 1336.24675,118.669036 C1331.20279,113.595287 1327.23467,107.609517 1324.34012,100.711726 C1321.44558,93.8139352 1320,86.3737804 1320,78.392008 C1320,67.8136791 1321.52479,57.8381422 1324.57474,48.4665163 C1327.62468,39.0945175 1332.10895,30.8822219 1338.02379,23.8300026 C1343.936,16.7774103 1351.26789,11.2086712 1360.0157,7.12565034 C1368.76089,3.04300249 1378.83154,1 1390.22502,1 C1394.52123,1 1398.92629,1.34130861 1403.43947,2.02019569 C1407.95302,2.70206689 1412.14074,3.96957145 1416,5.8260665 Z" id="Stroke-21"></path>
            <polygon id="Stroke-23" points="1540 3.70822259 1495.04821 65.4387838 1532.91277 131.061246 1489.63888 138.66137 1461.28957 98.6212844 1459.7961 140.515295 1421 142 1423.98432 0 1467.44264 2.41017702 1464.08645 44.3041878 1492.99806 0"></polygon>
            <path d="M1697.23768,50.5132058 C1697.23768,47.915898 1696.88058,45.5369892 1696.16639,43.3738705 C1695.45182,41.2103791 1694.39515,39.3409437 1692.99599,37.7629553 C1691.59645,36.1875757 1689.85781,34.9532117 1687.77631,34.0565088 C1685.69218,33.1594332 1683.25358,32.7110817 1680.45789,32.7110817 C1679.21348,32.7110817 1678.00168,32.7897203 1676.8221,32.9440158 C1675.63914,33.0983113 1674.49179,33.3286365 1673.37328,33.6372275 L1671.88045,68.1289827 L1674.12008,68.1289827 C1676.78987,68.1289827 1679.50913,67.7909488 1682.27559,67.1096633 C1685.03907,66.4283778 1687.5245,65.3773794 1689.73191,63.9562954 C1691.93894,62.535584 1693.73941,60.7127354 1695.13857,58.4881221 C1696.5381,56.2638815 1697.23768,53.6054518 1697.23768,50.5132058 Z M1739,47.5461851 C1739,52.3677335 1738.57845,56.7413031 1737.74136,60.6661486 C1736.90126,64.590994 1735.58079,68.1927134 1733.7777,71.4683251 C1731.97423,74.7443095 1729.64392,77.7724521 1726.78677,80.5527528 C1723.92962,83.3364078 1720.48119,85.9948375 1716.44146,88.5280418 L1738.62829,127.838364 L1696.67862,136 L1682.32243,96.5003492 L1670.76232,96.8700621 L1669.08475,135.440958 L1629,135.440958 C1629.31026,121.348262 1629.6059,107.320042 1629.88693,93.3495902 C1630.16497,79.3795106 1630.48984,65.3483092 1630.86455,51.2526316 C1630.98745,44.1453481 1631.11335,37.0991864 1631.23626,30.1141467 C1631.35954,23.1317157 1631.60834,16.0855541 1631.98305,8.97528898 C1636.33303,7.36785772 1640.61857,6.04032002 1644.84602,4.98932161 C1649.0731,3.93795051 1653.3148,3.11988615 1657.57148,2.53177427 C1661.82778,1.9436624 1666.14854,1.54189776 1670.53112,1.32610766 C1674.91034,1.11069026 1679.40084,1 1684,1 C1691.08423,1 1697.93426,1.97571412 1704.5531,3.92043387 C1711.17232,5.86850787 1717.02975,8.78894174 1722.12653,12.684717 C1727.22031,16.5804923 1731.30687,21.4314836 1734.3836,27.2402996 C1737.46033,33.0517245 1739,39.818738 1739,47.5461851 Z" id="Stroke-25"></path>
            <path d="M1818.74577,73.1187501 C1818.74577,70.4474718 1818.35773,67.8523014 1817.58464,65.3332391 C1816.80856,62.8145517 1815.67918,60.5766765 1814.19388,58.6169892 C1812.70596,56.6576769 1810.86474,55.0729058 1808.66498,53.8604267 C1806.46485,52.6475726 1803.94092,52.041333 1801.09318,52.041333 C1798.18121,52.041333 1795.57885,52.5714646 1793.28834,53.626104 C1790.99484,54.6833679 1789.0285,56.1301697 1787.38858,57.9638851 C1785.74604,59.7976005 1784.49117,61.944371 1783.62472,64.3989478 C1782.75826,66.8565239 1782.32615,69.4516942 1782.32615,72.1874581 C1782.32615,74.7998746 1782.69701,77.4096667 1783.44097,80.0224581 C1784.18194,82.6352495 1785.29638,84.9960972 1786.78467,87.1106249 C1788.2696,89.2255275 1790.11083,90.9332711 1792.31096,92.2394793 C1794.51072,93.5456875 1797.06677,94.1991666 1799.97874,94.1991666 C1802.89071,94.1991666 1805.50801,93.6247949 1807.83027,92.473802 C1810.1529,91.3258084 1812.11961,89.7702808 1813.73002,87.8109685 C1815.34081,85.8542805 1816.57776,83.5987843 1817.44459,81.0474791 C1818.31105,78.4995483 1818.74577,75.8545141 1818.74577,73.1187501 Z M1860,70.6934168 C1860,76.3524028 1859.34941,81.809309 1858.04786,87.0637603 C1856.74667,92.3185866 1854.87072,97.2479856 1852.42559,101.849708 C1849.98046,106.451055 1847.00724,110.663239 1843.50593,114.48551 C1840.00461,118.310781 1836.07157,121.591298 1831.70641,124.327062 C1827.34163,127.062826 1822.58545,129.191976 1817.44459,130.71526 C1812.30336,132.23817 1806.85289,133 1801.09318,133 C1795.5176,133 1790.20718,132.285035 1785.15932,130.855854 C1780.11183,129.426298 1775.38776,127.420121 1770.99086,124.839573 C1766.59097,122.259024 1762.61087,119.148344 1759.0513,115.510531 C1755.48873,111.872719 1752.45426,107.833746 1749.9449,103.387239 C1747.4359,98.9411074 1745.48376,94.1695482 1744.08921,89.0703122 C1742.69429,83.9707012 1742,78.6547636 1742,73.1187501 C1742,67.7117078 1742.65059,62.4103919 1743.95177,57.2170519 C1745.25333,52.0267112 1747.12629,47.1295551 1749.57142,42.5278329 C1752.01655,37.9264857 1754.97521,33.6970554 1758.4444,29.8421664 C1761.91359,25.9876523 1765.79996,22.6602706 1770.10685,19.860021 C1774.41038,17.0627708 1779.07021,14.8867569 1784.08857,13.3312293 C1789.1073,11.779076 1794.40278,11 1799.97874,11 C1808.95965,11 1817.14992,12.3999373 1824.55216,15.1971875 C1831.9544,17.997437 1838.27133,21.9925447 1843.50593,27.1828854 C1848.74053,32.3758505 1852.79607,38.6556978 1855.67891,46.0250518 C1858.55877,53.3947807 1860,61.6163193 1860,70.6934168 Z" id="Stroke-27"></path>
            <path d="M1959,5.8260665 L1953.77098,44.9866605 C1951.96466,44.4912968 1950.15796,44.1533453 1948.35465,43.9668379 C1946.54795,43.7803304 1944.74426,43.6870767 1942.93794,43.6870767 C1938.33054,43.6870767 1933.94049,44.2902418 1929.77042,45.4969449 C1925.59996,46.703275 1921.91075,48.5448495 1918.70539,51.0190572 C1915.49703,53.4932649 1912.94559,56.5851852 1911.04542,60.2978023 C1909.14526,64.0104194 1908.1978,68.3732014 1908.1978,73.3824182 C1908.1978,76.5996715 1908.71094,79.3857197 1909.7376,81.7345943 C1910.76389,84.0864532 1912.21247,86.0358289 1914.08073,87.5804835 C1915.94861,89.1277492 1918.15997,90.2732779 1920.71141,91.0133395 C1923.26286,91.7563851 1926.06656,92.1264159 1929.11651,92.1264159 C1931.41833,92.1264159 1933.81437,91.8817181 1936.30725,91.3863543 C1938.79714,90.8909906 1941.25737,90.2411987 1943.68569,89.4366056 C1946.11401,88.6323855 1948.47777,87.7058165 1950.78259,86.6535416 C1953.08479,85.6016396 1955.2023,84.5176584 1957.13174,83.4042089 L1953.3986,127.020839 C1950.97028,128.256637 1948.34001,129.355166 1945.50703,130.313814 C1942.67405,131.275446 1939.76186,132.109135 1936.77347,132.820101 C1933.78509,133.531067 1930.7967,134.073058 1927.80831,134.443462 C1924.81993,134.816477 1921.95767,135 1919.21853,135 C1911.31231,135 1903.93388,133.548599 1897.08623,130.640202 C1890.23557,127.731805 1884.29108,123.742411 1879.24675,118.669036 C1874.20279,113.595287 1870.23467,107.609517 1867.34012,100.711726 C1864.44558,93.8139352 1863,86.3737804 1863,78.392008 C1863,67.8136791 1864.52479,57.8381422 1867.57474,48.4665163 C1870.62468,39.0945175 1875.10895,30.8822219 1881.02379,23.8300026 C1886.936,16.7774103 1894.26789,11.2086712 1903.0157,7.12565034 C1911.76089,3.04300249 1921.83154,1 1933.22502,1 C1937.52123,1 1941.92629,1.34130861 1946.43947,2.02019569 C1950.95302,2.70206689 1955.14074,3.96957145 1959,5.8260665 Z" id="Stroke-29"></path>
            <path d="M723.731595,219.164782 C723.731595,215.124059 722.505808,211.970489 720.059839,209.701072 C717.613869,207.434654 714.438255,206.298634 710.535987,206.298634 C709.233985,206.298634 707.885657,206.406952 706.490629,206.623586 C705.095227,206.840221 703.779028,207.106704 702.541286,207.417039 L701.426459,234.642913 C702.293215,234.768846 703.13083,234.830313 703.936688,234.830313 L706.443929,234.830313 C708.673583,234.830313 710.82777,234.458511 712.903126,233.711909 C714.97811,232.964932 716.822954,231.893377 718.433924,230.493873 C720.045268,229.096992 721.329337,227.451243 722.289866,225.554004 C723.250022,223.65639 723.731595,221.527898 723.731595,219.164782 Z M765,215.993596 C765,222.025633 764.101115,227.37216 762.30297,232.033928 C760.505199,236.69532 758.044659,240.76865 754.915746,244.247173 C751.786833,247.728693 748.115076,250.680246 743.900103,253.10483 C739.685504,255.529039 735.179121,257.502738 730.377594,259.025552 C725.573451,260.547991 720.602682,261.669393 715.459682,262.384138 C710.317056,263.098507 705.267457,263.487925 700.311259,263.549392 L700.311259,307 L657,307 C657,292.766206 657.029141,278.593879 657.090412,264.483395 C657.151682,250.37291 657.245083,236.136118 657.370613,221.776766 C657.493154,214.19268 657.525284,206.608969 657.464013,199.025258 C657.399754,191.441173 657.554425,183.795995 657.928026,176.085976 C665.858467,173.726233 673.788535,171.954551 681.721964,170.771681 C689.652032,169.591435 697.830544,169 706.259743,169 C711.029141,169 715.801154,169.389418 720.573541,170.165629 C725.342565,170.944464 729.91358,172.171186 734.282851,173.849167 C738.649506,175.529772 742.709435,177.626406 746.457032,180.144689 C750.20463,182.662598 753.444503,185.661001 756.170674,189.142522 C758.896844,192.624043 761.048042,196.586057 762.629872,201.030815 C764.209085,205.475948 765,210.462292 765,215.993596 Z" id="Stroke-51"></path>
            <path d="M822.942038,253.574832 L815.871046,221.241426 L808.989969,253.574832 L822.942038,253.574832 Z M878,297.053773 L831.87069,303 L826.289114,282.004462 L805.084735,282.004462 L800.432176,303 L753,298.354907 L790.017098,174.599654 L841.727984,172 L878,297.053773 Z" id="Stroke-53"></path>
            <path d="M945.731595,219.164782 C945.731595,215.124059 944.505808,211.970489 942.059839,209.701072 C939.613869,207.434654 936.438255,206.298634 932.535987,206.298634 C931.233985,206.298634 929.885657,206.406952 928.490629,206.623586 C927.095227,206.840221 925.779028,207.106704 924.541286,207.417039 L923.426459,234.642913 C924.293215,234.768846 925.13083,234.830313 925.936688,234.830313 L928.443929,234.830313 C930.673583,234.830313 932.82777,234.458511 934.903126,233.711909 C936.97811,232.964932 938.822954,231.893377 940.433924,230.493873 C942.045268,229.096992 943.329337,227.451243 944.289866,225.554004 C945.250022,223.65639 945.731595,221.527898 945.731595,219.164782 Z M987,215.993596 C987,222.025633 986.101115,227.37216 984.30297,232.033928 C982.505199,236.69532 980.044659,240.76865 976.915746,244.247173 C973.786833,247.728693 970.115076,250.680246 965.900103,253.10483 C961.685504,255.529039 957.179121,257.502738 952.377594,259.025552 C947.573451,260.547991 942.602682,261.669393 937.459682,262.384138 C932.317056,263.098507 927.267457,263.487925 922.311259,263.549392 L922.311259,307 L879,307 C879,292.766206 879.029141,278.593879 879.090412,264.483395 C879.151682,250.37291 879.245083,236.136118 879.370613,221.776766 C879.493154,214.19268 879.525284,206.608969 879.464013,199.025258 C879.399754,191.441173 879.554425,183.795995 879.928026,176.085976 C887.858467,173.726233 895.788535,171.954551 903.721964,170.771681 C911.652032,169.591435 919.830544,169 928.259743,169 C933.029141,169 937.801154,169.389418 942.573541,170.165629 C947.342565,170.944464 951.91358,172.171186 956.282851,173.849167 C960.649506,175.529772 964.709435,177.626406 968.457032,180.144689 C972.20463,182.662598 975.444503,185.661001 978.170674,189.142522 C980.896844,192.624043 983.048042,196.586057 984.629872,201.030815 C986.209085,205.475948 987,210.462292 987,215.993596 Z" id="Stroke-55"></path>
            <path d="M1082,171 C1081.62079,176.824788 1081.27723,182.587943 1080.96324,188.287226 C1080.64888,193.986508 1080.24009,199.747049 1079.7365,205.568849 L1039.73599,207.614285 L1038.79366,219.322131 L1066.90558,219.322131 L1064.83206,248.130439 L1036.52751,249.058655 L1035.58555,262.625174 L1058.98086,262.625174 L1075.58606,262.625174 C1075.20685,269.44205 1074.81588,276.209248 1074.40709,282.929755 C1073.99793,289.653249 1073.63389,296.388324 1073.31952,303.141327 L992,305 L995.018885,171 L1082,171 Z" id="Stroke-57"></path>
            <path d="M1152.23768,218.513206 C1152.23768,215.915898 1151.88058,213.536989 1151.16639,211.373871 C1150.45182,209.210379 1149.39515,207.340944 1147.99599,205.762955 C1146.59645,204.187576 1144.85781,202.953212 1142.77631,202.056509 C1140.69218,201.159433 1138.25358,200.711082 1135.45789,200.711082 C1134.21348,200.711082 1133.00168,200.78972 1131.8221,200.944016 C1130.63914,201.098311 1129.49179,201.328636 1128.37328,201.637227 L1126.88045,236.128983 L1129.12008,236.128983 C1131.78987,236.128983 1134.50913,235.790949 1137.27559,235.109663 C1140.03907,234.428378 1142.5245,233.377379 1144.73191,231.956295 C1146.93894,230.535584 1148.73941,228.712735 1150.13857,226.488122 C1151.5381,224.263881 1152.23768,221.605452 1152.23768,218.513206 Z M1194,215.546185 C1194,220.368106 1193.57845,224.741303 1192.74136,228.666149 C1191.90126,232.590994 1190.58079,236.193086 1188.7777,239.468698 C1186.97423,242.74431 1184.64392,245.772452 1181.78677,248.553126 C1178.92962,251.336408 1175.48119,253.994837 1171.44146,256.528042 L1193.62829,295.838736 L1151.67862,304 L1137.32243,264.500349 L1125.76232,264.870062 L1124.08475,303.440958 L1084,303.440958 C1084.31026,289.348262 1084.6059,275.320042 1084.88693,261.349963 C1085.16497,247.379511 1085.48984,233.348309 1085.86455,219.252632 C1085.98745,212.145348 1086.11335,205.099186 1086.23626,198.114147 C1086.35954,191.131716 1086.60834,184.085554 1086.98305,176.975289 C1091.33303,175.367858 1095.61857,174.04032 1099.84602,172.989322 C1104.0731,171.937951 1108.3148,171.119886 1112.57148,170.531774 C1116.82778,169.943662 1121.14854,169.541898 1125.53112,169.326108 C1129.91034,169.11069 1134.40084,169 1139,169 C1146.08423,169 1152.93426,169.975714 1159.5531,171.920434 C1166.17232,173.868508 1172.02975,176.788942 1177.12653,180.684717 C1182.22031,184.580492 1186.30687,189.431484 1189.3836,195.2403 C1192.46033,201.051724 1194,207.818738 1194,215.546185 Z" id="Stroke-59"></path>
            <path d="M1376.73159,219.164782 C1376.73159,215.124059 1375.50581,211.970489 1373.05984,209.701072 C1370.61387,207.434654 1367.43826,206.298634 1363.53599,206.298634 C1362.23399,206.298634 1360.88566,206.406952 1359.49063,206.623586 C1358.09523,206.840221 1356.77903,207.106704 1355.54129,207.417039 L1354.42646,234.642913 C1355.29321,234.768846 1356.13083,234.830313 1356.93669,234.830313 L1359.44393,234.830313 C1361.67358,234.830313 1363.82777,234.458511 1365.90313,233.711909 C1367.97811,232.964932 1369.82295,231.893377 1371.43392,230.493873 C1373.04527,229.096992 1374.32934,227.451243 1375.28987,225.554004 C1376.25002,223.65639 1376.73159,221.527898 1376.73159,219.164782 Z M1418,215.993596 C1418,222.025633 1417.10111,227.37216 1415.30297,232.033928 C1413.5052,236.69532 1411.04466,240.76865 1407.91575,244.247173 C1404.78683,247.728693 1401.11508,250.680246 1396.9001,253.10483 C1392.6855,255.529039 1388.17912,257.502738 1383.37759,259.025552 C1378.57345,260.547991 1373.60268,261.669393 1368.45968,262.384138 C1363.31706,263.098507 1358.26746,263.487925 1353.31126,263.549392 L1353.31126,307 L1310,307 C1310,292.766206 1310.02914,278.593879 1310.09041,264.483395 C1310.15168,250.37291 1310.24508,236.136118 1310.37061,221.776766 C1310.49315,214.19268 1310.52528,206.608969 1310.46401,199.025258 C1310.39975,191.441173 1310.55442,183.795995 1310.92803,176.085976 C1318.85847,173.726233 1326.78853,171.954551 1334.72196,170.771681 C1342.65203,169.591435 1350.83054,169 1359.25974,169 C1364.02914,169 1368.80115,169.389418 1373.57354,170.165629 C1378.34256,170.944464 1382.91358,172.171186 1387.28285,173.849167 C1391.64951,175.529772 1395.70943,177.626406 1399.45703,180.144689 C1403.20463,182.662598 1406.4445,185.661001 1409.17067,189.142522 C1411.89684,192.624043 1414.04804,196.586057 1415.62987,201.030815 C1417.20909,205.475948 1418,210.462292 1418,215.993596 Z" id="Stroke-71"></path>
            <path d="M1475.94204,253.574832 L1468.87105,221.241426 L1461.98997,253.574832 L1475.94204,253.574832 Z M1531,297.053773 L1484.87069,303 L1479.28911,282.004462 L1458.08474,282.004462 L1453.43218,303 L1406,298.354907 L1443.0171,174.599654 L1494.72798,172 L1531,297.053773 Z" id="Stroke-73"></path>
            <path d="M1600.73159,219.164782 C1600.73159,215.124059 1599.50581,211.970489 1597.05984,209.701072 C1594.61387,207.434654 1591.43826,206.298634 1587.53599,206.298634 C1586.23399,206.298634 1584.88566,206.406952 1583.49063,206.623586 C1582.09523,206.840221 1580.77903,207.106704 1579.54129,207.417039 L1578.42646,234.642913 C1579.29321,234.768846 1580.13083,234.830313 1580.93669,234.830313 L1583.44393,234.830313 C1585.67358,234.830313 1587.82777,234.458511 1589.90313,233.711909 C1591.97811,232.964932 1593.82295,231.893377 1595.43392,230.493873 C1597.04527,229.096992 1598.32934,227.451243 1599.28987,225.554004 C1600.25002,223.65639 1600.73159,221.527898 1600.73159,219.164782 Z M1642,215.993596 C1642,222.025633 1641.10111,227.37216 1639.30297,232.033928 C1637.5052,236.69532 1635.04466,240.76865 1631.91575,244.247173 C1628.78683,247.728693 1625.11508,250.680246 1620.9001,253.10483 C1616.6855,255.529039 1612.17912,257.502738 1607.37759,259.025552 C1602.57345,260.547991 1597.60268,261.669393 1592.45968,262.384138 C1587.31706,263.098507 1582.26746,263.487925 1577.31126,263.549392 L1577.31126,307 L1534,307 C1534,292.766206 1534.02914,278.593879 1534.09041,264.483395 C1534.15168,250.37291 1534.24508,236.136118 1534.37061,221.776766 C1534.49315,214.19268 1534.52528,206.608969 1534.46401,199.025258 C1534.39975,191.441173 1534.55442,183.795995 1534.92803,176.085976 C1542.85847,173.726233 1550.78853,171.954551 1558.72196,170.771681 C1566.65203,169.591435 1574.83054,169 1583.25974,169 C1588.02914,169 1592.80115,169.389418 1597.57354,170.165629 C1602.34256,170.944464 1606.91358,172.171186 1611.28285,173.849167 C1615.64951,175.529772 1619.70943,177.626406 1623.45703,180.144689 C1627.20463,182.662598 1630.4445,185.661001 1633.17067,189.142522 C1635.89684,192.624043 1638.04804,196.586057 1639.62987,201.030815 C1641.20909,205.475948 1642,210.462292 1642,215.993596 Z" id="Stroke-75"></path>
            <path d="M1736,171 C1735.62079,176.824788 1735.27723,182.587943 1734.96324,188.287226 C1734.64888,193.986508 1734.24009,199.747049 1733.7365,205.568849 L1693.73599,207.614285 L1692.79366,219.322131 L1720.90558,219.322131 L1718.83206,248.130439 L1690.52751,249.058655 L1689.58555,262.625174 L1712.98086,262.625174 L1729.58606,262.625174 C1729.20685,269.44205 1728.81588,276.209248 1728.40709,282.929755 C1727.99793,289.653249 1727.63389,296.388324 1727.31952,303.141327 L1646,305 L1649.01888,171 L1736,171 Z" id="Stroke-77"></path>
            <path d="M1805.23768,218.513206 C1805.23768,215.915898 1804.88058,213.536989 1804.16639,211.373871 C1803.45182,209.210379 1802.39515,207.340944 1800.99599,205.762955 C1799.59645,204.187576 1797.85781,202.953212 1795.77631,202.056509 C1793.69218,201.159433 1791.25358,200.711082 1788.45789,200.711082 C1787.21348,200.711082 1786.00168,200.78972 1784.8221,200.944016 C1783.63914,201.098311 1782.49179,201.328636 1781.37328,201.637227 L1779.88045,236.128983 L1782.12008,236.128983 C1784.78987,236.128983 1787.50913,235.790949 1790.27559,235.109663 C1793.03907,234.428378 1795.5245,233.377379 1797.73191,231.956295 C1799.93894,230.535584 1801.73941,228.712735 1803.13857,226.488122 C1804.5381,224.263881 1805.23768,221.605452 1805.23768,218.513206 Z M1847,215.546185 C1847,220.368106 1846.57845,224.741303 1845.74136,228.666149 C1844.90126,232.590994 1843.58079,236.193086 1841.7777,239.468698 C1839.97423,242.74431 1837.64392,245.772452 1834.78677,248.553126 C1831.92962,251.336408 1828.48119,253.994837 1824.44146,256.528042 L1846.62829,295.838736 L1804.67862,304 L1790.32243,264.500349 L1778.76232,264.870062 L1777.08475,303.440958 L1737,303.440958 C1737.31026,289.348262 1737.6059,275.320042 1737.88693,261.349963 C1738.16497,247.379511 1738.48984,233.348309 1738.86455,219.252632 C1738.98745,212.145348 1739.11335,205.099186 1739.23626,198.114147 C1739.35954,191.131716 1739.60834,184.085554 1739.98305,176.975289 C1744.33303,175.367858 1748.61857,174.04032 1752.84602,172.989322 C1757.0731,171.937951 1761.3148,171.119886 1765.57148,170.531774 C1769.82778,169.943662 1774.14854,169.541898 1778.53112,169.326108 C1782.91034,169.11069 1787.40084,169 1792,169 C1799.08423,169 1805.93426,169.975714 1812.5531,171.920434 C1819.17232,173.868508 1825.02975,176.788942 1830.12653,180.684717 C1835.22031,184.580492 1839.30687,189.431484 1842.3836,195.2403 C1845.46033,201.051724 1847,207.818738 1847,215.546185 Z" id="Stroke-79"></path>
            <path d="M649.237681,388.513206 C649.237681,385.915898 648.880584,383.536989 648.166391,381.373871 C647.451823,379.210379 646.395147,377.340944 644.995987,375.762955 C643.596453,374.187576 641.857809,372.953212 639.776306,372.056509 C637.692181,371.159433 635.253582,370.711082 632.457886,370.711082 C631.213481,370.711082 630.001676,370.78972 628.822096,370.944016 C627.639143,371.098311 626.491787,371.328636 625.373284,371.637227 L623.880448,406.128983 L626.120077,406.128983 C628.789871,406.128983 631.509126,405.790949 634.275594,405.109663 C637.039065,404.428378 639.524502,403.377379 641.731907,401.956295 C643.938936,400.535584 645.739408,398.712735 647.138567,396.488122 C648.538101,394.263881 649.237681,391.605452 649.237681,388.513206 Z M691,385.546185 C691,390.368106 690.578454,394.741303 689.741356,398.666149 C688.901261,402.590994 687.58079,406.193086 685.777696,409.468698 C683.974227,412.74431 681.643918,415.772452 678.786771,418.553126 C675.929623,421.336408 672.481186,423.994837 668.44146,426.528042 L690.62829,465.838736 L648.678616,474 L634.322433,434.500349 L622.762319,434.870062 L621.084752,473.440958 L581,473.440958 C581.310258,459.348262 581.605903,445.320042 581.886934,431.349963 C582.164967,417.379511 582.489839,403.348309 582.864547,389.252632 C582.987451,382.145348 583.113353,375.099186 583.236257,368.114147 C583.359536,361.131716 583.608342,354.085554 583.98305,346.975289 C588.333034,345.367858 592.618568,344.04032 596.846022,342.989322 C601.073102,341.937951 605.314796,341.119886 609.571477,340.531774 C613.827784,339.943662 618.148541,339.541898 622.531125,339.326108 C626.910336,339.11069 631.400835,339 636,339 C643.084228,339 649.934263,339.975714 656.553103,341.920434 C663.172318,343.868508 669.029752,346.788942 674.126529,350.684717 C679.220308,354.580492 683.306872,359.431484 686.383599,365.2403 C689.460325,371.051724 691,377.818738 691,385.546185 Z" id="Stroke-93"></path>
            <path d="M792,424.90255 C792,433.45177 790.53227,440.922133 787.602392,447.317025 C784.672513,453.711918 780.661091,459.03134 775.571846,463.271907 C770.479252,467.515482 764.526483,470.695248 757.707586,472.817224 C750.888689,474.9392 743.561202,476 735.724753,476 C732.701863,476 729.385426,475.594489 725.775444,474.783466 C722.165462,473.972067 718.508973,472.958288 714.805979,471.741754 C711.102984,470.524843 707.539136,469.217276 704.115178,467.81228 C700.691219,466.407661 697.650842,465.082414 695,463.833152 L699.072438,425.275711 C704.315712,428.461496 710.131939,430.88027 716.517772,432.531657 C722.903605,434.183421 729.181916,435.009114 735.355682,435.009114 C736.527261,435.009114 737.945508,434.965102 739.611168,434.87106 C741.276455,434.777017 742.866588,434.497899 744.377847,434.027686 C745.889479,433.560483 747.171184,432.857797 748.22036,431.92339 C749.266931,430.988984 749.793007,429.64568 749.793007,427.897241 C749.793007,426.712681 749.420959,425.698903 748.682444,424.855529 C747.941324,424.015165 746.98516,423.327526 745.813581,422.798255 C744.639397,422.269359 743.314162,421.863848 741.83155,421.58172 C740.349311,421.299593 738.901672,421.096837 737.483425,420.973453 C736.064805,420.850069 734.736594,420.785368 733.504371,420.785368 L730.542496,420.785368 C725.234858,420.785368 720.404186,419.850585 716.055688,417.978763 C711.704586,416.106564 707.972572,413.502714 704.856669,410.164204 C701.740767,406.825693 699.316502,402.864246 697.589827,398.27986 C695.863524,393.695098 695,388.716862 695,383.350419 C695,375.991778 696.465125,369.39413 699.395004,363.560483 C702.324882,357.726836 706.242921,352.765904 711.14949,348.681072 C716.055688,344.59624 721.685892,341.460486 728.042705,339.276818 C734.396542,337.09315 740.968399,336 747.758276,336 C750.781167,336 753.897069,336.108713 757.105984,336.32614 C760.314898,336.543566 763.506327,336.934407 766.686222,337.496029 C769.86314,338.060284 772.964533,338.777264 775.987423,339.649979 C779.010314,340.52307 781.879176,341.613211 784.596988,342.923788 L781.077041,380.919983 C776.879595,379.486023 772.484963,378.283783 767.886449,377.317025 C763.288307,376.350268 758.800663,375.865385 754.420169,375.865385 C753.618033,375.865385 752.586344,375.883065 751.321753,375.912406 C750.054557,375.944757 748.72895,376.038799 747.339722,376.194534 C745.950495,376.350268 744.546385,376.582365 743.128138,376.893834 C741.709519,377.205303 740.445299,377.628494 739.334736,378.15739 C738.224544,378.689294 737.329397,379.39198 736.649293,380.264695 C735.969189,381.13741 735.660761,382.166235 735.724753,383.350419 C735.785769,384.725697 736.294731,385.833894 737.250895,386.674258 C738.207058,387.517632 739.442258,388.17292 740.953889,388.6405 C742.465148,389.107703 744.130807,389.433842 745.950495,389.621927 C747.76981,389.810013 749.574987,389.921735 751.365282,389.951076 C753.15595,389.980418 754.821237,389.980418 756.364864,389.951076 C757.905143,389.921735 759.172711,389.965747 760.160871,390.089131 C765.09646,390.4006 769.537598,391.461776 773.487632,393.271907 C777.435062,395.082414 780.783495,397.483131 783.529954,400.477822 C786.273808,403.472513 788.372531,407.04312 789.822775,411.193029 C791.27339,415.342562 792,419.912277 792,424.90255 Z" id="Stroke-95"></path>
            <path d="M1003,424.90255 C1003,433.45177 1001.53227,440.922133 998.602392,447.317025 C995.672513,453.711918 991.661091,459.03134 986.571846,463.271907 C981.479252,467.515482 975.526483,470.695248 968.707586,472.817224 C961.888689,474.9392 954.561202,476 946.724753,476 C943.701863,476 940.385426,475.594489 936.775444,474.783466 C933.165462,473.972067 929.508973,472.958288 925.805979,471.741754 C922.102984,470.524843 918.539136,469.217276 915.115178,467.81228 C911.691219,466.407661 908.650842,465.082414 906,463.833152 L910.072438,425.275711 C915.315712,428.461496 921.131939,430.88027 927.517772,432.531657 C933.903605,434.183421 940.181916,435.009114 946.355682,435.009114 C947.526889,435.009114 948.945508,434.965102 950.611168,434.87106 C952.276455,434.777017 953.866588,434.497899 955.377847,434.027686 C956.889107,433.560483 958.171184,432.857797 959.22036,431.92339 C960.266931,430.988984 960.793007,429.64568 960.793007,427.897241 C960.793007,426.712681 960.420959,425.698903 959.682444,424.855529 C958.941324,424.015165 957.98516,423.327526 956.813581,422.798255 C955.639397,422.269359 954.314162,421.863848 952.83155,421.58172 C951.349311,421.299593 949.901672,421.096837 948.483425,420.973453 C947.064805,420.850069 945.736594,420.785368 944.503999,420.785368 L941.542496,420.785368 C936.234858,420.785368 931.404186,419.850585 927.055688,417.978763 C922.704586,416.106564 918.9722,413.502714 915.856297,410.164204 C912.740395,406.825693 910.316502,402.864246 908.589827,398.27986 C906.863524,393.695098 906,388.716862 906,383.350419 C906,375.991778 907.465125,369.39413 910.395004,363.560483 C913.324882,357.726836 917.242921,352.765904 922.14949,348.681072 C927.055688,344.59624 932.685892,341.460486 939.042705,339.276818 C945.396542,337.09315 951.968399,336 958.758276,336 C961.781167,336 964.897069,336.108713 968.105984,336.32614 C971.314898,336.543566 974.506327,336.934407 977.686222,337.496029 C980.86314,338.060284 983.964533,338.777264 986.987423,339.649979 C990.010314,340.52307 992.879176,341.613211 995.596988,342.923788 L992.077041,380.919983 C987.879595,379.486023 983.484963,378.283783 978.886449,377.317025 C974.288307,376.350268 969.800663,375.865385 965.420169,375.865385 C964.618033,375.865385 963.585972,375.883065 962.321753,375.912406 C961.054557,375.944757 959.72895,376.038799 958.339722,376.194534 C956.950495,376.350268 955.546385,376.582365 954.128138,376.893834 C952.709519,377.205303 951.445299,377.628494 950.334736,378.15739 C949.224544,378.689294 948.329397,379.39198 947.649293,380.264695 C946.968817,381.13741 946.660761,382.166235 946.724753,383.350419 C946.785769,384.725697 947.294359,385.833894 948.250895,386.674258 C949.207058,387.517632 950.442258,388.17292 951.953889,388.6405 C953.465148,389.107703 955.130807,389.433842 956.950495,389.621927 C958.76981,389.810013 960.574987,389.921735 962.365282,389.951076 C964.15595,389.980418 965.821237,389.980418 967.364864,389.951076 C968.905143,389.921735 970.172711,389.965747 971.160871,390.089131 C976.096088,390.4006 980.537598,391.461776 984.487632,393.271907 C988.435062,395.082414 991.783495,397.483131 994.529954,400.477822 C997.273808,403.472513 999.372531,407.04312 1000.82277,411.193029 C1002.27339,415.342562 1003,419.912277 1003,424.90255 Z" id="Stroke-97"></path>
            <path d="M1102,343.826067 L1096.77098,382.986661 C1094.96466,382.491297 1093.15796,382.153345 1091.35465,381.966838 C1089.54795,381.78033 1087.74426,381.687077 1085.93794,381.687077 C1081.33054,381.687077 1076.94049,382.290242 1072.77042,383.496945 C1068.59996,384.703275 1064.91075,386.544849 1061.70539,389.019057 C1058.49703,391.493265 1055.94559,394.585185 1054.04542,398.297802 C1052.14526,402.010419 1051.1978,406.373201 1051.1978,411.382418 C1051.1978,414.599672 1051.71094,417.38572 1052.7376,419.734594 C1053.76389,422.086453 1055.21247,424.035829 1057.08073,425.580484 C1058.94861,427.127749 1061.15997,428.273278 1063.71141,429.013339 C1066.26286,429.756385 1069.06656,430.126416 1072.11651,430.126416 C1074.41833,430.126416 1076.81437,429.881718 1079.30725,429.386354 C1081.79714,428.890991 1084.25737,428.241199 1086.68569,427.436606 C1089.11401,426.632385 1091.47777,425.705817 1093.78259,424.653542 C1096.08479,423.60164 1098.2023,422.517658 1100.13174,421.404582 L1096.3986,465.020839 C1093.97028,466.256637 1091.34001,467.355166 1088.50703,468.313814 C1085.67405,469.275446 1082.76186,470.109135 1079.77347,470.820101 C1076.78509,471.531067 1073.7967,472.073058 1070.80831,472.443462 C1067.81993,472.816477 1064.95767,473 1062.21853,473 C1054.31231,473 1046.93388,471.548599 1040.08623,468.640202 C1033.23557,465.731805 1027.29108,461.742411 1022.24675,456.669036 C1017.20279,451.595287 1013.23467,445.609517 1010.34012,438.711726 C1007.44558,431.813935 1006,424.37378 1006,416.392008 C1006,405.813679 1007.52479,395.838142 1010.57474,386.466516 C1013.62468,377.094518 1018.10895,368.882222 1024.02379,361.830003 C1029.936,354.77741 1037.26789,349.208671 1046.0157,345.12565 C1054.76089,341.043002 1064.83154,339 1076.22502,339 C1080.52123,339 1084.92629,339.341309 1089.43947,340.020196 C1093.95302,340.702067 1098.14074,341.969571 1102,343.826067 Z" id="Stroke-99"></path>
            <polygon id="Stroke-101" points="1158 344 1147.86806 470.948361 1109 473 1109 346.611007"></polygon>
            <path d="M1260,424.90255 C1260,433.45177 1258.53227,440.922133 1255.60239,447.317025 C1252.67251,453.711918 1248.66109,459.03134 1243.57185,463.271907 C1238.47925,467.515482 1232.52648,470.695248 1225.70759,472.817224 C1218.88869,474.9392 1211.5612,476 1203.72475,476 C1200.70186,476 1197.38543,475.594489 1193.77544,474.783466 C1190.16546,473.972067 1186.50897,472.958288 1182.80598,471.741754 C1179.10298,470.524843 1175.53914,469.217276 1172.11518,467.81228 C1168.69122,466.407661 1165.65084,465.082414 1163,463.833152 L1167.07244,425.275711 C1172.31571,428.461496 1178.13194,430.88027 1184.51777,432.531657 C1190.90361,434.183421 1197.18192,435.009114 1203.35568,435.009114 C1204.52689,435.009114 1205.94551,434.965102 1207.61117,434.87106 C1209.27645,434.777017 1210.86659,434.497899 1212.37785,434.027686 C1213.88911,433.560483 1215.17118,432.857797 1216.22036,431.92339 C1217.26693,430.988984 1217.79301,429.64568 1217.79301,427.897241 C1217.79301,426.712681 1217.42096,425.698903 1216.68244,424.855529 C1215.94132,424.015165 1214.98516,423.327526 1213.81358,422.798255 C1212.6394,422.269359 1211.31416,421.863848 1209.83155,421.58172 C1208.34931,421.299593 1206.90167,421.096837 1205.48342,420.973453 C1204.06481,420.850069 1202.73659,420.785368 1201.504,420.785368 L1198.5425,420.785368 C1193.23486,420.785368 1188.40419,419.850585 1184.05569,417.978763 C1179.70459,416.106564 1175.9722,413.502714 1172.8563,410.164204 C1169.74039,406.825693 1167.3165,402.864246 1165.58983,398.27986 C1163.86352,393.695098 1163,388.716862 1163,383.350419 C1163,375.991778 1164.46513,369.39413 1167.395,363.560483 C1170.32488,357.726836 1174.24292,352.765904 1179.14949,348.681072 C1184.05569,344.59624 1189.68589,341.460486 1196.0427,339.276818 C1202.39654,337.09315 1208.9684,336 1215.75828,336 C1218.78117,336 1221.89707,336.108713 1225.10598,336.32614 C1228.3149,336.543566 1231.50633,336.934407 1234.68622,337.496029 C1237.86314,338.060284 1240.96453,338.777264 1243.98742,339.649979 C1247.01031,340.52307 1249.87918,341.613211 1252.59699,342.923788 L1249.07704,380.919983 C1244.87959,379.486023 1240.48496,378.283783 1235.88645,377.317025 C1231.28831,376.350268 1226.80066,375.865385 1222.42017,375.865385 C1221.61803,375.865385 1220.58597,375.883065 1219.32175,375.912406 C1218.05456,375.944757 1216.72895,376.038799 1215.33972,376.194534 C1213.95049,376.350268 1212.54639,376.582365 1211.12814,376.893834 C1209.70952,377.205303 1208.4453,377.628494 1207.33474,378.15739 C1206.22454,378.689294 1205.3294,379.39198 1204.64929,380.264695 C1203.96882,381.13741 1203.66076,382.166235 1203.72475,383.350419 C1203.78577,384.725697 1204.29436,385.833894 1205.25089,386.674258 C1206.20706,387.517632 1207.44226,388.17292 1208.95389,388.6405 C1210.46515,389.107703 1212.13081,389.433842 1213.95049,389.621927 C1215.76981,389.810013 1217.57499,389.921735 1219.36528,389.951076 C1221.15595,389.980418 1222.82124,389.980418 1224.36486,389.951076 C1225.90514,389.921735 1227.17271,389.965747 1228.16087,390.089131 C1233.09609,390.4006 1237.5376,391.461776 1241.48763,393.271907 C1245.43506,395.082414 1248.78349,397.483131 1251.52995,400.477822 C1254.27381,403.472513 1256.37253,407.04312 1257.82277,411.193029 C1259.27339,415.342562 1260,419.912277 1260,424.90255 Z" id="Stroke-103"></path>
            <path d="M1360,424.90255 C1360,433.45177 1358.53227,440.922133 1355.60239,447.317025 C1352.67251,453.711918 1348.66109,459.03134 1343.57185,463.271907 C1338.47925,467.515482 1332.52648,470.695248 1325.70759,472.817224 C1318.88869,474.9392 1311.5612,476 1303.72475,476 C1300.70186,476 1297.38543,475.594489 1293.77544,474.783466 C1290.16546,473.972067 1286.50897,472.958288 1282.80598,471.741754 C1279.10298,470.524843 1275.53914,469.217276 1272.11518,467.81228 C1268.69122,466.407661 1265.65084,465.082414 1263,463.833152 L1267.07244,425.275711 C1272.31571,428.461496 1278.13194,430.88027 1284.51777,432.531657 C1290.90361,434.183421 1297.18192,435.009114 1303.35568,435.009114 C1304.52689,435.009114 1305.94551,434.965102 1307.61117,434.87106 C1309.27645,434.777017 1310.86659,434.497899 1312.37785,434.027686 C1313.88911,433.560483 1315.17118,432.857797 1316.22036,431.92339 C1317.26693,430.988984 1317.79301,429.64568 1317.79301,427.897241 C1317.79301,426.712681 1317.42096,425.698903 1316.68244,424.855529 C1315.94132,424.015165 1314.98516,423.327526 1313.81358,422.798255 C1312.6394,422.269359 1311.31416,421.863848 1309.83155,421.58172 C1308.34931,421.299593 1306.90167,421.096837 1305.48342,420.973453 C1304.06481,420.850069 1302.73659,420.785368 1301.504,420.785368 L1298.5425,420.785368 C1293.23486,420.785368 1288.40419,419.850585 1284.05569,417.978763 C1279.70459,416.106564 1275.9722,413.502714 1272.8563,410.164204 C1269.74039,406.825693 1267.3165,402.864246 1265.58983,398.27986 C1263.86352,393.695098 1263,388.716862 1263,383.350419 C1263,375.991778 1264.46513,369.39413 1267.395,363.560483 C1270.32488,357.726836 1274.24292,352.765904 1279.14949,348.681072 C1284.05569,344.59624 1289.68589,341.460486 1296.0427,339.276818 C1302.39654,337.09315 1308.9684,336 1315.75828,336 C1318.78117,336 1321.89707,336.108713 1325.10598,336.32614 C1328.3149,336.543566 1331.50633,336.934407 1334.68622,337.496029 C1337.86314,338.060284 1340.96453,338.777264 1343.98742,339.649979 C1347.01031,340.52307 1349.87918,341.613211 1352.59699,342.923788 L1349.07704,380.919983 C1344.87959,379.486023 1340.48496,378.283783 1335.88645,377.317025 C1331.28831,376.350268 1326.80066,375.865385 1322.42017,375.865385 C1321.61803,375.865385 1320.58597,375.883065 1319.32175,375.912406 C1318.05456,375.944757 1316.72895,376.038799 1315.33972,376.194534 C1313.95049,376.350268 1312.54639,376.582365 1311.12814,376.893834 C1309.70952,377.205303 1308.4453,377.628494 1307.33474,378.15739 C1306.22454,378.689294 1305.3294,379.39198 1304.64929,380.264695 C1303.96882,381.13741 1303.66076,382.166235 1303.72475,383.350419 C1303.78577,384.725697 1304.29436,385.833894 1305.25089,386.674258 C1306.20706,387.517632 1307.44226,388.17292 1308.95389,388.6405 C1310.46515,389.107703 1312.13081,389.433842 1313.95049,389.621927 C1315.76981,389.810013 1317.57499,389.921735 1319.36528,389.951076 C1321.15595,389.980418 1322.82124,389.980418 1324.36486,389.951076 C1325.90514,389.921735 1327.17271,389.965747 1328.16087,390.089131 C1333.09609,390.4006 1337.5376,391.461776 1341.48763,393.271907 C1345.43506,395.082414 1348.78349,397.483131 1351.52995,400.477822 C1354.27381,403.472513 1356.37253,407.04312 1357.82277,411.193029 C1359.27339,415.342562 1360,419.912277 1360,424.90255 Z" id="Stroke-105"></path>
            <path d="M1440.74577,411.11875 C1440.74577,408.447472 1440.35773,405.852301 1439.58464,403.333239 C1438.80856,400.814552 1437.67918,398.576677 1436.19388,396.616989 C1434.70596,394.657677 1432.86474,393.072906 1430.66498,391.860427 C1428.46485,390.647573 1425.94092,390.041333 1423.09318,390.041333 C1420.18121,390.041333 1417.57885,390.571465 1415.28834,391.626104 C1412.99484,392.683368 1411.0285,394.13017 1409.38858,395.963885 C1407.74604,397.797601 1406.49117,399.944371 1405.62472,402.398948 C1404.75826,404.856524 1404.32615,407.451694 1404.32615,410.187458 C1404.32615,412.799875 1404.69701,415.409667 1405.44097,418.022458 C1406.18194,420.63525 1407.29638,422.996097 1408.78467,425.110625 C1410.2696,427.225527 1412.11083,428.933271 1414.31096,430.239479 C1416.51072,431.545688 1419.06677,432.199167 1421.97874,432.199167 C1424.89071,432.199167 1427.50801,431.624795 1429.83027,430.473802 C1432.1529,429.325808 1434.11961,427.770281 1435.73002,425.810968 C1437.34081,423.85428 1438.57776,421.598784 1439.44459,419.047479 C1440.31105,416.499548 1440.74577,413.854514 1440.74577,411.11875 Z M1482,408.693417 C1482,414.352403 1481.34941,419.809309 1480.04786,425.06376 C1478.74667,430.318587 1476.87072,435.247986 1474.42559,439.849708 C1471.98046,444.451055 1469.00724,448.663239 1465.50593,452.48551 C1462.00461,456.310781 1458.07157,459.591298 1453.70641,462.327062 C1449.34163,465.062826 1444.58545,467.191976 1439.44459,468.71526 C1434.30336,470.23817 1428.85289,471 1423.09318,471 C1417.5176,471 1412.20718,470.285035 1407.15932,468.855854 C1402.11183,467.426298 1397.38776,465.420121 1392.99086,462.839573 C1388.59097,460.259024 1384.61087,457.148344 1381.0513,453.510531 C1377.48873,449.872719 1374.45426,445.833746 1371.9449,441.387239 C1369.4359,436.941107 1367.48376,432.169548 1366.08921,427.070312 C1364.69429,421.970701 1364,416.654764 1364,411.11875 C1364,405.711708 1364.65059,400.410392 1365.95177,395.217052 C1367.25333,390.026711 1369.12629,385.129555 1371.57142,380.527833 C1374.01655,375.926486 1376.97521,371.697055 1380.4444,367.842166 C1383.91359,363.987652 1387.79996,360.660271 1392.10685,357.860021 C1396.41038,355.062771 1401.07021,352.886757 1406.08857,351.331229 C1411.1073,349.779076 1416.40278,349 1421.97874,349 C1430.95965,349 1439.14992,350.399937 1446.55216,353.197188 C1453.9544,355.997437 1460.27133,359.992545 1465.50593,365.182885 C1470.74053,370.37585 1474.79607,376.655698 1477.67891,384.025052 C1480.55877,391.394781 1482,399.616319 1482,408.693417 Z" id="Stroke-107"></path>
            <path d="M1555.23782,388.513206 C1555.23782,385.915898 1554.88073,383.536989 1554.16654,381.373871 C1553.45197,379.210379 1552.3953,377.340944 1550.99614,375.762955 C1549.59661,374.187576 1547.85798,372.953212 1545.77648,372.056509 C1543.69236,371.159433 1541.25377,370.711082 1538.45809,370.711082 C1537.21368,370.711082 1536.00188,370.78972 1534.82231,370.944016 C1533.63936,371.098311 1532.49201,371.328636 1531.37351,371.637227 L1529.88068,406.128983 L1532.11992,406.128983 C1534.79008,406.128983 1537.50933,405.790949 1540.27579,405.109663 C1543.03925,404.428378 1545.52468,403.377379 1547.73207,401.956295 C1549.9391,400.535584 1551.73956,398.712735 1553.13872,396.488122 C1554.53825,394.263881 1555.23782,391.605452 1555.23782,388.513206 Z M1597,385.546185 C1597,390.368106 1596.57846,394.741303 1595.74136,398.666149 C1594.90127,402.590994 1593.5808,406.193086 1591.77771,409.468698 C1589.97425,412.74431 1587.64395,415.772452 1584.78681,418.553126 C1581.92967,421.336408 1578.48125,423.994837 1574.44154,426.528042 L1596.62829,465.838736 L1554.67876,474 L1540.32263,434.500349 L1528.76255,434.870062 L1527.08499,473.440958 L1487,473.440958 C1487.31063,459.348262 1487.60628,445.320042 1487.88731,431.349963 C1488.16534,417.379511 1488.49021,403.348309 1488.86491,389.252632 C1488.98782,382.145348 1489.11372,375.099186 1489.23662,368.114147 C1489.35953,361.131716 1489.60833,354.085554 1489.98304,346.975289 C1494.33338,345.367858 1498.6189,344.04032 1502.84597,342.989322 C1507.07341,341.937951 1511.31509,341.119886 1515.57138,340.531774 C1519.82805,339.943662 1524.14879,339.541898 1528.53098,339.326108 C1532.91055,339.11069 1537.40104,339 1542.00019,339 C1549.08439,339 1555.9344,339.975714 1562.55322,341.920434 C1569.17241,343.868508 1575.02983,346.788942 1580.12659,350.684717 C1585.22035,354.580492 1589.3069,359.431484 1592.38361,365.2403 C1595.46033,371.051724 1597,377.818738 1597,385.546185 Z" id="Stroke-109"></path>
            <path d="M1698,424.90255 C1698,433.45177 1696.53227,440.922133 1693.60239,447.317025 C1690.67251,453.711918 1686.66109,459.03134 1681.57185,463.271907 C1676.47925,467.515482 1670.52648,470.695248 1663.70759,472.817224 C1656.88869,474.9392 1649.5612,476 1641.72475,476 C1638.70186,476 1635.38543,475.594489 1631.77544,474.783466 C1628.16546,473.972067 1624.50897,472.958288 1620.80598,471.741754 C1617.10298,470.524843 1613.53914,469.217276 1610.11518,467.81228 C1606.69122,466.407661 1603.65084,465.082414 1601,463.833152 L1605.07244,425.275711 C1610.31571,428.461496 1616.13194,430.88027 1622.51777,432.531657 C1628.90361,434.183421 1635.18192,435.009114 1641.35568,435.009114 C1642.52689,435.009114 1643.94551,434.965102 1645.61117,434.87106 C1647.27645,434.777017 1648.86659,434.497899 1650.37785,434.027686 C1651.88911,433.560483 1653.17118,432.857797 1654.22036,431.92339 C1655.26693,430.988984 1655.79301,429.64568 1655.79301,427.897241 C1655.79301,426.712681 1655.42096,425.698903 1654.68244,424.855529 C1653.94132,424.015165 1652.98516,423.327526 1651.81358,422.798255 C1650.6394,422.269359 1649.31416,421.863848 1647.83155,421.58172 C1646.34931,421.299593 1644.90167,421.096837 1643.48342,420.973453 C1642.06481,420.850069 1640.73659,420.785368 1639.504,420.785368 L1636.5425,420.785368 C1631.23486,420.785368 1626.40419,419.850585 1622.05569,417.978763 C1617.70459,416.106564 1613.9722,413.502714 1610.8563,410.164204 C1607.74039,406.825693 1605.3165,402.864246 1603.58983,398.27986 C1601.86352,393.695098 1601,388.716862 1601,383.350419 C1601,375.991778 1602.46513,369.39413 1605.395,363.560483 C1608.32488,357.726836 1612.24292,352.765904 1617.14949,348.681072 C1622.05569,344.59624 1627.68589,341.460486 1634.0427,339.276818 C1640.39654,337.09315 1646.9684,336 1653.75828,336 C1656.78117,336 1659.89707,336.108713 1663.10598,336.32614 C1666.3149,336.543566 1669.50633,336.934407 1672.68622,337.496029 C1675.86314,338.060284 1678.96453,338.777264 1681.98742,339.649979 C1685.01031,340.52307 1687.87918,341.613211 1690.59699,342.923788 L1687.07704,380.919983 C1682.87959,379.486023 1678.48496,378.283783 1673.88645,377.317025 C1669.28831,376.350268 1664.80066,375.865385 1660.42017,375.865385 C1659.61803,375.865385 1658.58597,375.883065 1657.32175,375.912406 C1656.05456,375.944757 1654.72895,376.038799 1653.33972,376.194534 C1651.95049,376.350268 1650.54639,376.582365 1649.12814,376.893834 C1647.70952,377.205303 1646.4453,377.628494 1645.33474,378.15739 C1644.22454,378.689294 1643.3294,379.39198 1642.64929,380.264695 C1641.96882,381.13741 1641.66076,382.166235 1641.72475,383.350419 C1641.78577,384.725697 1642.29436,385.833894 1643.25089,386.674258 C1644.20706,387.517632 1645.44226,388.17292 1646.95389,388.6405 C1648.46515,389.107703 1650.13081,389.433842 1651.95049,389.621927 C1653.76981,389.810013 1655.57499,389.921735 1657.36528,389.951076 C1659.15595,389.980418 1660.82124,389.980418 1662.36486,389.951076 C1663.90514,389.921735 1665.17271,389.965747 1666.16087,390.089131 C1671.09609,390.4006 1675.5376,391.461776 1679.48763,393.271907 C1683.43506,395.082414 1686.78349,397.483131 1689.52995,400.477822 C1692.27381,403.472513 1694.37253,407.04312 1695.82277,411.193029 C1697.27339,415.342562 1698,419.912277 1698,424.90255 Z" id="Stroke-111"></path>
            <path d="M1910,424.90255 C1910,433.45177 1908.53227,440.922133 1905.60239,447.317025 C1902.67251,453.711918 1898.66109,459.03134 1893.57185,463.271907 C1888.47925,467.515482 1882.52648,470.695248 1875.70759,472.817224 C1868.88869,474.9392 1861.5612,476 1853.72475,476 C1850.70186,476 1847.38543,475.594489 1843.77544,474.783466 C1840.16546,473.972067 1836.50897,472.958288 1832.80598,471.741754 C1829.10298,470.524843 1825.53914,469.217276 1822.11518,467.81228 C1818.69122,466.407661 1815.65084,465.082414 1813,463.833152 L1817.07244,425.275711 C1822.31571,428.461496 1828.13194,430.88027 1834.51777,432.531657 C1840.90361,434.183421 1847.18192,435.009114 1853.35568,435.009114 C1854.52689,435.009114 1855.94551,434.965102 1857.61117,434.87106 C1859.27645,434.777017 1860.86659,434.497899 1862.37785,434.027686 C1863.88911,433.560483 1865.17118,432.857797 1866.22036,431.92339 C1867.26693,430.988984 1867.79301,429.64568 1867.79301,427.897241 C1867.79301,426.712681 1867.42096,425.698903 1866.68244,424.855529 C1865.94132,424.015165 1864.98516,423.327526 1863.81358,422.798255 C1862.6394,422.269359 1861.31416,421.863848 1859.83155,421.58172 C1858.34931,421.299593 1856.90167,421.096837 1855.48342,420.973453 C1854.06481,420.850069 1852.73659,420.785368 1851.504,420.785368 L1848.5425,420.785368 C1843.23486,420.785368 1838.40419,419.850585 1834.05569,417.978763 C1829.70459,416.106564 1825.9722,413.502714 1822.8563,410.164204 C1819.74039,406.825693 1817.3165,402.864246 1815.58983,398.27986 C1813.86352,393.695098 1813,388.716862 1813,383.350419 C1813,375.991778 1814.46513,369.39413 1817.395,363.560483 C1820.32488,357.726836 1824.24292,352.765904 1829.14949,348.681072 C1834.05569,344.59624 1839.68589,341.460486 1846.0427,339.276818 C1852.39654,337.09315 1858.9684,336 1865.75828,336 C1868.78117,336 1871.89707,336.108713 1875.10598,336.32614 C1878.3149,336.543566 1881.50633,336.934407 1884.68622,337.496029 C1887.86314,338.060284 1890.96453,338.777264 1893.98742,339.649979 C1897.01031,340.52307 1899.87918,341.613211 1902.59699,342.923788 L1899.07704,380.919983 C1894.87959,379.486023 1890.48496,378.283783 1885.88645,377.317025 C1881.28831,376.350268 1876.80066,375.865385 1872.42017,375.865385 C1871.61803,375.865385 1870.58597,375.883065 1869.32175,375.912406 C1868.05456,375.944757 1866.72895,376.038799 1865.33972,376.194534 C1863.95049,376.350268 1862.54639,376.582365 1861.12814,376.893834 C1859.70952,377.205303 1858.4453,377.628494 1857.33474,378.15739 C1856.22454,378.689294 1855.3294,379.39198 1854.64929,380.264695 C1853.96882,381.13741 1853.66076,382.166235 1853.72475,383.350419 C1853.78577,384.725697 1854.29436,385.833894 1855.25089,386.674258 C1856.20706,387.517632 1857.44226,388.17292 1858.95389,388.6405 C1860.46515,389.107703 1862.13081,389.433842 1863.95049,389.621927 C1865.76981,389.810013 1867.57499,389.921735 1869.36528,389.951076 C1871.15595,389.980418 1872.82124,389.980418 1874.36486,389.951076 C1875.90514,389.921735 1877.17271,389.965747 1878.16087,390.089131 C1883.09609,390.4006 1887.5376,391.461776 1891.48763,393.271907 C1895.43506,395.082414 1898.78349,397.483131 1901.52995,400.477822 C1904.27381,403.472513 1906.37253,407.04312 1907.82277,411.193029 C1909.27339,415.342562 1910,419.912277 1910,424.90255 Z" id="Stroke-113"></path>
            <path d="M2009,343.826067 L2003.77098,382.986661 C2001.96466,382.491297 2000.15796,382.153345 1998.35465,381.966838 C1996.54795,381.78033 1994.74426,381.687077 1992.93794,381.687077 C1988.33054,381.687077 1983.94049,382.290242 1979.77042,383.496945 C1975.59996,384.703275 1971.91075,386.544849 1968.70539,389.019057 C1965.49703,391.493265 1962.94559,394.585185 1961.04542,398.297802 C1959.14526,402.010419 1958.1978,406.373201 1958.1978,411.382418 C1958.1978,414.599672 1958.71094,417.38572 1959.7376,419.734594 C1960.76389,422.086453 1962.21247,424.035829 1964.08073,425.580484 C1965.94861,427.127749 1968.15997,428.273278 1970.71141,429.013339 C1973.26286,429.756385 1976.06656,430.126416 1979.11651,430.126416 C1981.41833,430.126416 1983.81437,429.881718 1986.30725,429.386354 C1988.79714,428.890991 1991.25737,428.241199 1993.68569,427.436606 C1996.11401,426.632385 1998.47777,425.705817 2000.78259,424.653542 C2003.08479,423.60164 2005.2023,422.517658 2007.13174,421.404582 L2003.3986,465.020839 C2000.97028,466.256637 1998.34001,467.355166 1995.50703,468.313814 C1992.67405,469.275446 1989.76186,470.109135 1986.77347,470.820101 C1983.78509,471.531067 1980.7967,472.073058 1977.80831,472.443462 C1974.81993,472.816477 1971.95767,473 1969.21853,473 C1961.31231,473 1953.93388,471.548599 1947.08623,468.640202 C1940.23557,465.731805 1934.29108,461.742411 1929.24675,456.669036 C1924.20279,451.595287 1920.23467,445.609517 1917.34012,438.711726 C1914.44558,431.813935 1913,424.37378 1913,416.392008 C1913,405.813679 1914.52479,395.838142 1917.57474,386.466516 C1920.62468,377.094518 1925.10895,368.882222 1931.02379,361.830003 C1936.936,354.77741 1944.26789,349.208671 1953.0157,345.12565 C1961.76089,341.043002 1971.83154,339 1983.22502,339 C1987.52123,339 1991.92629,339.341309 1996.43947,340.020196 C2000.95302,340.702067 2005.14074,341.969571 2009,343.826067 Z" id="Stroke-115"></path>
            <path d="M787,590.601685 L783.1025,631.868012 L705,638 C705.369877,616.378897 705.786733,594.87734 706.252808,573.501681 C706.715899,552.125648 707.286747,530.62708 707.968334,509 L756.204045,509 C754.779722,522.571515 753.419531,536.125845 752.120115,549.662244 C750.821073,563.20163 749.894517,576.848983 749.338211,590.601685 C752.245396,590.727209 755.120515,590.788477 757.963569,590.788477 L766.59191,590.788477 C770.052419,590.788477 773.454761,590.759337 776.792972,590.695081 C780.131183,590.633814 783.533526,590.601685 787,590.601685 Z" id="Stroke-141"></path>
            <polygon id="Stroke-143" points="841 511 830.868056 637.947992 792 640 792 513.610999"></polygon>
            <polygon id="Stroke-145" points="934 541.547664 890.79366 599.134893 932.491885 599.134893 931.926105 638.64647 847.774269 642 844 605.47038 893.246764 542.106523 848.150445 545.460054 847.774269 508 932.30228 508"></polygon>
            <path d="M1001.94204,591.574832 L994.871046,559.241426 L987.989969,591.574832 L1001.94204,591.574832 Z M1057,635.053773 L1010.87069,641 L1005.28911,620.004462 L984.084735,620.004462 L979.432176,641 L932,636.354907 L969.017098,512.599654 L1020.72798,510 L1057,635.053773 Z" id="Stroke-147"></path>
            <path d="M1126.23768,556.513206 C1126.23768,553.915898 1125.88058,551.536989 1125.16639,549.373871 C1124.45182,547.210379 1123.39515,545.340944 1121.99599,543.762955 C1120.59645,542.187576 1118.85781,540.953212 1116.77631,540.056509 C1114.69218,539.159433 1112.25358,538.711082 1109.45789,538.711082 C1108.21348,538.711082 1107.00168,538.78972 1105.8221,538.944016 C1104.63914,539.098311 1103.49179,539.328636 1102.37328,539.637227 L1100.88045,574.128983 L1103.12008,574.128983 C1105.78987,574.128983 1108.50913,573.790949 1111.27559,573.109663 C1114.03907,572.428378 1116.5245,571.377379 1118.73191,569.956295 C1120.93894,568.535584 1122.73941,566.712735 1124.13857,564.488122 C1125.5381,562.263881 1126.23768,559.605452 1126.23768,556.513206 Z M1168,553.546185 C1168,558.368106 1167.57845,562.741303 1166.74136,566.666149 C1165.90126,570.590994 1164.58079,574.193086 1162.7777,577.468698 C1160.97423,580.74431 1158.64392,583.772452 1155.78677,586.553126 C1152.92962,589.336408 1149.48119,591.994837 1145.44146,594.528042 L1167.62829,633.838736 L1125.67862,642 L1111.32243,602.500349 L1099.76232,602.870062 L1098.08475,641.440958 L1058,641.440958 C1058.31026,627.348635 1058.6059,613.320042 1058.88693,599.349963 C1059.16497,585.379511 1059.48984,571.348309 1059.86455,557.252632 C1059.98745,550.145348 1060.11335,543.099186 1060.23626,536.114147 C1060.35954,529.131716 1060.60834,522.085554 1060.98305,514.975289 C1065.33303,513.367858 1069.61857,512.04032 1073.84602,510.989322 C1078.0731,509.937951 1082.3148,509.119886 1086.57148,508.531774 C1090.82778,507.943662 1095.14854,507.541898 1099.53112,507.326108 C1103.91034,507.11069 1108.40084,507 1113,507 C1120.08423,507 1126.93426,507.975714 1133.5531,509.920434 C1140.17232,511.868508 1146.02975,514.788942 1151.12653,518.684717 C1156.22031,522.580492 1160.30687,527.431484 1163.3836,533.2403 C1166.46033,539.051724 1168,545.818738 1168,553.546185 Z" id="Stroke-149"></path>
            <path d="M1243.51744,575.205704 C1243.57932,571.876346 1243.21977,568.668961 1242.4388,565.58355 C1241.65481,562.501114 1240.37244,559.773071 1238.58903,557.396445 C1236.80601,555.023167 1234.53629,553.11138 1231.78328,551.661456 C1229.03064,550.211904 1225.74416,549.424654 1221.92986,549.30268 L1218.17479,606.660757 C1221.92986,606.105926 1225.34009,604.888422 1228.40549,603.006012 C1231.47089,601.126206 1234.11487,598.813542 1236.33743,596.068393 C1238.55696,593.325847 1240.27812,590.272417 1241.49824,586.911077 C1242.71874,583.549367 1243.39068,580.080557 1243.51744,576.501302 L1243.51744,575.205704 Z M1282,569.284779 C1282,577.919244 1280.87118,585.708076 1278.61919,592.645695 C1276.36721,599.583687 1273.2222,605.751534 1269.18719,611.149237 C1265.14917,616.547311 1260.34752,621.18677 1254.78,625.071331 C1249.20909,628.958495 1243.10772,632.148402 1236.47589,634.647001 C1229.84406,637.1456 1222.78779,638.993054 1215.31274,640.196055 C1207.83505,641.398685 1200.15363,642 1192.26924,642 C1189.32758,642 1186.45082,641.92451 1183.63594,641.770556 C1180.81841,641.616601 1177.94165,641.384182 1175,641.076273 L1177.62889,516.920925 C1184.51161,514.765191 1191.5973,513.236802 1198.88635,512.342081 C1206.1754,511.44736 1213.41767,511 1220.61541,511 C1229.56412,511 1237.79033,512.327578 1245.30084,514.980132 C1252.80796,517.632685 1259.28359,521.455888 1264.72774,526.452714 C1270.17152,531.449912 1274.41026,537.553798 1277.44623,544.77032 C1280.4822,551.986843 1282,560.15647 1282,569.284779 Z" id="Stroke-151"></path>
            <path d="M1488,590.601685 L1484.1025,631.868012 L1406,638 C1406.36988,616.378897 1406.78673,594.87734 1407.25281,573.501681 C1407.7159,552.125648 1408.28675,530.62708 1408.96833,509 L1457.20405,509 C1455.77972,522.571515 1454.41916,536.125845 1453.12012,549.662244 C1451.82107,563.20163 1450.89452,576.848983 1450.33821,590.601685 C1453.2454,590.727209 1456.12052,590.788477 1458.96357,590.788477 L1467.59191,590.788477 C1471.05242,590.788477 1474.45476,590.759337 1477.79297,590.695081 C1481.13118,590.633814 1484.53353,590.601685 1488,590.601685 Z" id="Stroke-153"></path>
            <polygon id="Stroke-155" points="1543 511 1532.86806 637.947992 1494 640 1494 513.610999"></polygon>
            <polygon id="Stroke-157" points="1636 541.547664 1592.79366 599.134893 1634.49188 599.134893 1633.9261 638.64647 1549.77427 642 1546 605.47038 1595.24676 542.106523 1550.15044 545.460054 1549.77427 508 1634.30228 508"></polygon>
            <path d="M1704.94204,591.574832 L1697.87105,559.241426 L1690.98997,591.574832 L1704.94204,591.574832 Z M1760,635.053773 L1713.87069,641 L1708.28911,620.004462 L1687.08474,620.004462 L1682.43218,641 L1635,636.354907 L1672.0171,512.599654 L1723.72798,510 L1760,635.053773 Z" id="Stroke-159"></path>
            <path d="M1829.23768,556.513206 C1829.23768,553.915898 1828.88058,551.536989 1828.16639,549.373871 C1827.45182,547.210379 1826.39515,545.340944 1824.99599,543.762955 C1823.59645,542.187576 1821.85781,540.953212 1819.77631,540.056509 C1817.69218,539.159433 1815.25358,538.711082 1812.45789,538.711082 C1811.21348,538.711082 1810.00168,538.78972 1808.8221,538.944016 C1807.63914,539.098311 1806.49179,539.328636 1805.37328,539.637227 L1803.88045,574.128983 L1806.12008,574.128983 C1808.78987,574.128983 1811.50913,573.790949 1814.27559,573.109663 C1817.03907,572.428378 1819.5245,571.377379 1821.73191,569.956295 C1823.93894,568.535584 1825.73941,566.712735 1827.13857,564.488122 C1828.5381,562.263881 1829.23768,559.605452 1829.23768,556.513206 Z M1871,553.546185 C1871,558.368106 1870.57845,562.741303 1869.74136,566.666149 C1868.90126,570.590994 1867.58079,574.193086 1865.7777,577.468698 C1863.97423,580.74431 1861.64392,583.772452 1858.78677,586.553126 C1855.92962,589.336408 1852.48119,591.994837 1848.44146,594.528042 L1870.62829,633.838736 L1828.67862,642 L1814.32243,602.500349 L1802.76232,602.870062 L1801.08475,641.440958 L1761,641.440958 C1761.31026,627.348635 1761.6059,613.320042 1761.88693,599.349963 C1762.16497,585.379511 1762.48984,571.348309 1762.86455,557.252632 C1762.98745,550.145348 1763.11335,543.099186 1763.23626,536.114147 C1763.35954,529.131716 1763.60834,522.085554 1763.98305,514.975289 C1768.33303,513.367858 1772.61857,512.04032 1776.84602,510.989322 C1781.0731,509.937951 1785.3148,509.119886 1789.57148,508.531774 C1793.82778,507.943662 1798.14854,507.541898 1802.53112,507.326108 C1806.91034,507.11069 1811.40084,507 1816,507 C1823.08423,507 1829.93426,507.975714 1836.5531,509.920434 C1843.17232,511.868508 1849.02975,514.788942 1854.12653,518.684717 C1859.22031,522.580492 1863.30687,527.431484 1866.3836,533.2403 C1869.46033,539.051724 1871,545.818738 1871,553.546185 Z" id="Stroke-161"></path>
            <path d="M1944.51744,575.205704 C1944.57932,571.876346 1944.21977,568.668961 1943.4388,565.58355 C1942.65481,562.501114 1941.37244,559.773071 1939.58903,557.396445 C1937.80601,555.023167 1935.53629,553.11138 1932.78328,551.661456 C1930.03064,550.211904 1926.74416,549.424654 1922.92986,549.30268 L1919.17479,606.660757 C1922.92986,606.105926 1926.34009,604.888422 1929.40549,603.006012 C1932.47089,601.126206 1935.11487,598.813542 1937.33743,596.068393 C1939.55696,593.325847 1941.27812,590.272417 1942.49824,586.911077 C1943.71874,583.549367 1944.39068,580.080557 1944.51744,576.501302 L1944.51744,575.205704 Z M1983,569.284779 C1983,577.919244 1981.87118,585.708076 1979.61919,592.645695 C1977.36721,599.583687 1974.2222,605.751534 1970.18719,611.149237 C1966.14917,616.547311 1961.34752,621.18677 1955.78,625.071331 C1950.20909,628.958495 1944.10772,632.148402 1937.47589,634.647001 C1930.84406,637.1456 1923.78779,638.993054 1916.31274,640.196055 C1908.83505,641.398685 1901.15363,642 1893.26924,642 C1890.32758,642 1887.45082,641.92451 1884.63594,641.770556 C1881.81841,641.616601 1878.94165,641.384182 1876,641.076273 L1878.62889,516.920925 C1885.51161,514.765191 1892.5973,513.236802 1899.88635,512.342081 C1907.1754,511.44736 1914.41767,511 1921.61541,511 C1930.56412,511 1938.79033,512.327578 1946.30084,514.980132 C1953.80796,517.632685 1960.28359,521.455888 1965.72774,526.452714 C1971.17152,531.449912 1975.41026,537.553798 1978.44623,544.77032 C1981.4822,551.986843 1983,560.15647 1983,569.284779 Z" id="Stroke-163"></path>
            <path d="M791,760.90255 C791,769.45177 789.53227,776.922133 786.602392,783.317025 C783.672513,789.711918 779.661091,795.03134 774.571846,799.271907 C769.479252,803.515482 763.526483,806.695248 756.707586,808.817224 C749.888689,810.9392 742.561202,812 734.724753,812 C731.701863,812 728.385426,811.594489 724.775444,810.783466 C721.165462,809.972067 717.508973,808.958288 713.805979,807.741754 C710.102984,806.524843 706.539136,805.217276 703.115178,803.81228 C699.691219,802.407661 696.650842,801.082414 694,799.833152 L698.072438,761.275711 C703.315712,764.461496 709.131939,766.88027 715.517772,768.531657 C721.903605,770.183421 728.181916,771.009114 734.355682,771.009114 C735.527261,771.009114 736.945508,770.965102 738.611168,770.87106 C740.276455,770.777017 741.866588,770.497899 743.377847,770.027686 C744.889479,769.560483 746.171184,768.857797 747.22036,767.92339 C748.266931,766.988984 748.793007,765.64568 748.793007,763.897241 C748.793007,762.712681 748.420959,761.698903 747.682444,760.855529 C746.941324,760.015165 745.98516,759.327526 744.813581,758.798255 C743.639397,758.269359 742.314162,757.863848 740.83155,757.58172 C739.349311,757.299593 737.901672,757.096837 736.483425,756.973453 C735.064805,756.850069 733.736594,756.785368 732.504371,756.785368 L729.542496,756.785368 C724.234858,756.785368 719.404186,755.850585 715.055688,753.978763 C710.704586,752.106564 706.972572,749.502714 703.856669,746.164204 C700.740767,742.825693 698.316502,738.864246 696.589827,734.27986 C694.863524,729.695098 694,724.716862 694,719.350419 C694,711.991778 695.465125,705.39413 698.395004,699.560483 C701.324882,693.726836 705.242921,688.765904 710.14949,684.681072 C715.055688,680.59624 720.685892,677.460486 727.042705,675.276818 C733.396542,673.09315 739.968399,672 746.758276,672 C749.781167,672 752.897069,672.108713 756.105984,672.32614 C759.314898,672.543566 762.506327,672.934407 765.686222,673.496029 C768.86314,674.060284 771.964533,674.777264 774.987423,675.649979 C778.010314,676.52307 780.879176,677.613211 783.596988,678.923788 L780.077041,716.919983 C775.879595,715.486023 771.484963,714.283783 766.886449,713.317025 C762.288307,712.350268 757.800663,711.865385 753.420169,711.865385 C752.618033,711.865385 751.586344,711.883065 750.321753,711.912406 C749.054557,711.944757 747.72895,712.038799 746.339722,712.194534 C744.950495,712.350268 743.546385,712.582365 742.128138,712.893834 C740.709519,713.205303 739.445299,713.628494 738.334736,714.15739 C737.224544,714.689294 736.329397,715.39198 735.649293,716.264695 C734.969189,717.13741 734.660761,718.166235 734.724753,719.350419 C734.785769,720.725697 735.294731,721.833894 736.250895,722.674258 C737.207058,723.517632 738.442258,724.17292 739.953889,724.6405 C741.465148,725.107703 743.130807,725.433842 744.950495,725.621927 C746.76981,725.810013 748.574987,725.921735 750.365282,725.951076 C752.15595,725.980418 753.821237,725.980418 755.364864,725.951076 C756.905143,725.921735 758.172711,725.965747 759.160871,726.089131 C764.09646,726.4006 768.537598,727.461776 772.487632,729.271907 C776.435062,731.082414 779.783495,733.483131 782.529954,736.477822 C785.273808,739.472513 787.372531,743.04312 788.822775,747.193029 C790.27339,751.342562 791,755.912277 791,760.90255 Z" id="Stroke-187"></path>
            <path d="M864.731595,724.164782 C864.731595,720.124059 863.505808,716.970489 861.059839,714.701072 C858.613869,712.434654 855.438255,711.298634 851.535987,711.298634 C850.233985,711.298634 848.885657,711.406952 847.490629,711.623586 C846.095227,711.840221 844.779028,712.106704 843.541286,712.417039 L842.426459,739.642913 C843.293215,739.768846 844.13083,739.830313 844.936688,739.830313 L847.443929,739.830313 C849.673583,739.830313 851.82777,739.458511 853.903126,738.711909 C855.97811,737.964932 857.822954,736.893377 859.433924,735.493873 C861.045268,734.096992 862.329337,732.451243 863.289866,730.554004 C864.250022,728.65639 864.731595,726.527898 864.731595,724.164782 Z M906,720.993596 C906,727.025633 905.101115,732.37216 903.30297,737.033928 C901.505199,741.69532 899.044659,745.76865 895.915746,749.247173 C892.786833,752.728693 889.115076,755.680246 884.900103,758.10483 C880.685504,760.529039 876.179121,762.502738 871.377594,764.025552 C866.573451,765.547991 861.602682,766.669393 856.459682,767.384138 C851.317056,768.098507 846.267457,768.487925 841.311259,768.549392 L841.311259,812 L798,812 C798,797.766206 798.029141,783.593879 798.090412,769.483395 C798.151682,755.37291 798.245083,741.136118 798.370613,726.776766 C798.493154,719.19268 798.525284,711.608969 798.464013,704.025258 C798.399754,696.441173 798.554425,688.795995 798.928026,681.085976 C806.858467,678.726233 814.788535,676.954551 822.721964,675.771681 C830.652032,674.591435 838.830544,674 847.259743,674 C852.029141,674 856.801154,674.389418 861.573541,675.165629 C866.342565,675.944464 870.91358,677.171186 875.282851,678.849167 C879.649506,680.529772 883.709435,682.626406 887.457032,685.144689 C891.20463,687.662598 894.444503,690.661001 897.170674,694.142522 C899.896844,697.624043 902.048042,701.586057 903.629872,706.030815 C905.209085,710.475948 906,715.462292 906,720.993596 Z" id="Stroke-189"></path>
            <path d="M984.745769,749.11875 C984.745769,746.447472 984.35773,743.852301 983.584641,741.333239 C982.808563,738.814552 981.67918,736.576677 980.193877,734.616989 C978.705959,732.657677 976.864736,731.072906 974.664979,729.860427 C972.464848,728.647573 969.940915,728.041333 967.093182,728.041333 C964.18121,728.041333 961.578849,728.571465 959.288337,729.626104 C956.994838,730.683368 955.028501,732.13017 953.38858,733.963885 C951.746045,735.797601 950.491174,737.944371 949.624716,740.398948 C948.758258,742.856524 948.32615,745.451694 948.32615,748.187458 C948.32615,750.799875 948.697009,753.409667 949.440967,756.022458 C950.181938,758.63525 951.296383,760.996097 952.784674,763.110625 C954.269603,765.225527 956.110827,766.933271 958.310958,768.239479 C960.510715,769.545688 963.066766,770.199167 965.978737,770.199167 C968.890708,770.199167 971.508009,769.624795 973.830266,768.473802 C976.152896,767.325808 978.119606,765.770281 979.730023,763.810968 C981.340813,761.85428 982.577757,759.598784 983.444588,757.047479 C984.311046,754.499548 984.745769,751.854514 984.745769,749.11875 Z M1026,746.693417 C1026,752.352403 1025.34941,757.809309 1024.04786,763.06376 C1022.74667,768.318587 1020.87072,773.247986 1018.42559,777.849708 C1015.98046,782.451055 1013.00724,786.663239 1009.50593,790.48551 C1006.00461,794.310781 1002.07157,797.591298 997.706412,800.327062 C993.34163,803.062826 988.585448,805.191976 983.444588,806.71526 C978.303355,808.23817 972.852886,809 967.093182,809 C961.517599,809 956.207183,808.285035 951.159318,806.855854 C946.111827,805.426298 941.387763,803.420121 936.990863,800.839573 C932.590974,798.259024 928.610869,795.148344 925.051296,791.510531 C921.488734,787.872719 918.454264,783.833746 915.944897,779.387239 C913.435903,774.941107 911.483759,770.169548 910.089209,765.070312 C908.694287,759.970701 908,754.654764 908,749.11875 C908,743.711708 908.65059,738.410392 909.951771,733.217052 C911.253326,728.026711 913.126294,723.129555 915.571424,718.527833 C918.016553,713.926486 920.975208,709.697055 924.444402,705.842166 C927.913595,701.987652 931.799958,698.660271 936.106851,695.860021 C940.410384,693.062771 945.07021,690.886757 950.08857,689.331229 C955.107304,687.779076 960.402781,687 965.978737,687 C974.959649,687 983.149918,688.399937 990.552158,691.197188 C997.954398,693.997437 1004.27133,697.992545 1009.50593,703.182885 C1014.74053,708.37585 1018.79607,714.655698 1021.67891,722.025052 C1024.55877,729.394781 1026,737.616319 1026,746.693417 Z" id="Stroke-191"></path>
            <path d="M1126,680.826067 L1120.77098,719.986661 C1118.96466,719.491297 1117.15796,719.153345 1115.35465,718.966838 C1113.54795,718.78033 1111.74426,718.687077 1109.93794,718.687077 C1105.33054,718.687077 1100.94049,719.290242 1096.77042,720.496945 C1092.59996,721.703275 1088.91075,723.544849 1085.70539,726.019057 C1082.49703,728.493265 1079.94559,731.585185 1078.04542,735.297802 C1076.14526,739.010419 1075.1978,743.373201 1075.1978,748.382418 C1075.1978,751.599672 1075.71094,754.38572 1076.7376,756.734594 C1077.76389,759.086453 1079.21247,761.035829 1081.08073,762.580484 C1082.94861,764.127749 1085.15997,765.273278 1087.71141,766.013339 C1090.26286,766.756385 1093.06656,767.126416 1096.11651,767.126416 C1098.41833,767.126416 1100.81437,766.881718 1103.30725,766.386354 C1105.79714,765.890991 1108.25737,765.241199 1110.68569,764.436606 C1113.11401,763.632385 1115.47777,762.705817 1117.78259,761.653542 C1120.08479,760.60164 1122.2023,759.517658 1124.13174,758.404582 L1120.3986,802.020839 C1117.97028,803.256637 1115.34001,804.355166 1112.50703,805.313814 C1109.67405,806.275446 1106.76186,807.109135 1103.77347,807.820101 C1100.78509,808.531067 1097.7967,809.073058 1094.80831,809.443462 C1091.81993,809.816477 1088.95767,810 1086.21853,810 C1078.31231,810 1070.93388,808.548599 1064.08623,805.640202 C1057.23557,802.731805 1051.29108,798.742411 1046.24675,793.669036 C1041.20279,788.595287 1037.23467,782.609517 1034.34012,775.711726 C1031.44558,768.813935 1030,761.37378 1030,753.392008 C1030,742.813679 1031.52479,732.838142 1034.57474,723.466516 C1037.62468,714.094518 1042.10895,705.882222 1048.02379,698.830003 C1053.936,691.77741 1061.26789,686.208671 1070.0157,682.12565 C1078.76089,678.043002 1088.83154,676 1100.22502,676 C1104.52123,676 1108.92629,676.341309 1113.43947,677.020196 C1117.95302,677.702067 1122.14074,678.969571 1126,680.826067 Z" id="Stroke-193"></path>
            <polygon id="Stroke-195" points="1249 678.708223 1204.04807 740.438784 1241.91274 806.061246 1198.63872 813.66137 1170.28932 773.621284 1168.79585 815.515295 1130 817 1132.98432 675 1176.44241 677.410177 1173.08621 719.304188 1201.99791 675"></polygon>
            <path d="M1486,760.90255 C1486,769.45177 1484.53227,776.922133 1481.60239,783.317025 C1478.67251,789.711918 1474.66109,795.03134 1469.57185,799.271907 C1464.47925,803.515482 1458.52648,806.695248 1451.70759,808.817224 C1444.88869,810.9392 1437.5612,812 1429.72475,812 C1426.70186,812 1423.38543,811.594489 1419.77544,810.783466 C1416.16546,809.972067 1412.50897,808.958288 1408.80598,807.741754 C1405.10298,806.524843 1401.53914,805.217276 1398.11518,803.81228 C1394.69122,802.407661 1391.65084,801.082414 1389,799.833152 L1393.07244,761.275711 C1398.31571,764.461496 1404.13194,766.88027 1410.51777,768.531657 C1416.90361,770.183421 1423.18192,771.009114 1429.35568,771.009114 C1430.52689,771.009114 1431.94551,770.965102 1433.61117,770.87106 C1435.27645,770.777017 1436.86659,770.497899 1438.37785,770.027686 C1439.88911,769.560483 1441.17118,768.857797 1442.22036,767.92339 C1443.26693,766.988984 1443.79301,765.64568 1443.79301,763.897241 C1443.79301,762.712681 1443.42096,761.698903 1442.68244,760.855529 C1441.94132,760.015165 1440.98516,759.327526 1439.81358,758.798255 C1438.6394,758.269359 1437.31416,757.863848 1435.83155,757.58172 C1434.34931,757.299593 1432.90167,757.096837 1431.48342,756.973453 C1430.06481,756.850069 1428.73659,756.785368 1427.504,756.785368 L1424.5425,756.785368 C1419.23486,756.785368 1414.40419,755.850585 1410.05569,753.978763 C1405.70459,752.106564 1401.9722,749.502714 1398.8563,746.164204 C1395.74039,742.825693 1393.3165,738.864246 1391.58983,734.27986 C1389.86352,729.695098 1389,724.716862 1389,719.350419 C1389,711.991778 1390.46513,705.39413 1393.395,699.560483 C1396.32488,693.726836 1400.24292,688.765904 1405.14949,684.681072 C1410.05569,680.59624 1415.68589,677.460486 1422.0427,675.276818 C1428.39654,673.09315 1434.9684,672 1441.75828,672 C1444.78117,672 1447.89707,672.108713 1451.10598,672.32614 C1454.3149,672.543566 1457.50633,672.934407 1460.68622,673.496029 C1463.86314,674.060284 1466.96453,674.777264 1469.98742,675.649979 C1473.01031,676.52307 1475.87918,677.613211 1478.59699,678.923788 L1475.07704,716.919983 C1470.87959,715.486023 1466.48496,714.283783 1461.88645,713.317025 C1457.28831,712.350268 1452.80066,711.865385 1448.42017,711.865385 C1447.61803,711.865385 1446.58597,711.883065 1445.32175,711.912406 C1444.05456,711.944757 1442.72895,712.038799 1441.33972,712.194534 C1439.95049,712.350268 1438.54639,712.582365 1437.12814,712.893834 C1435.70952,713.205303 1434.4453,713.628494 1433.33474,714.15739 C1432.22454,714.689294 1431.3294,715.39198 1430.64929,716.264695 C1429.96882,717.13741 1429.66076,718.166235 1429.72475,719.350419 C1429.78577,720.725697 1430.29436,721.833894 1431.25089,722.674258 C1432.20706,723.517632 1433.44226,724.17292 1434.95389,724.6405 C1436.46515,725.107703 1438.13081,725.433842 1439.95049,725.621927 C1441.76981,725.810013 1443.57499,725.921735 1445.36528,725.951076 C1447.15595,725.980418 1448.82124,725.980418 1450.36486,725.951076 C1451.90514,725.921735 1453.17271,725.965747 1454.16087,726.089131 C1459.09609,726.4006 1463.5376,727.461776 1467.48763,729.271907 C1471.43506,731.082414 1474.78349,733.483131 1477.52995,736.477822 C1480.27381,739.472513 1482.37253,743.04312 1483.82277,747.193029 C1485.27339,751.342562 1486,755.912277 1486,760.90255 Z" id="Stroke-197"></path>
            <path d="M1558.73159,724.164782 C1558.73159,720.124059 1557.50581,716.970489 1555.05984,714.701072 C1552.61387,712.434654 1549.43826,711.298634 1545.53599,711.298634 C1544.23399,711.298634 1542.88566,711.406952 1541.49063,711.623586 C1540.09523,711.840221 1538.77903,712.106704 1537.54129,712.417039 L1536.42646,739.642913 C1537.29321,739.768846 1538.13083,739.830313 1538.93669,739.830313 L1541.44393,739.830313 C1543.67358,739.830313 1545.82777,739.458511 1547.90313,738.711909 C1549.97811,737.964932 1551.82295,736.893377 1553.43392,735.493873 C1555.04527,734.096992 1556.32934,732.451243 1557.28987,730.554004 C1558.25002,728.65639 1558.73159,726.527898 1558.73159,724.164782 Z M1600,720.993596 C1600,727.025633 1599.10111,732.37216 1597.30297,737.033928 C1595.5052,741.69532 1593.04466,745.76865 1589.91575,749.247173 C1586.78683,752.728693 1583.11508,755.680246 1578.9001,758.10483 C1574.6855,760.529039 1570.17912,762.502738 1565.37759,764.025552 C1560.57345,765.547991 1555.60268,766.669393 1550.45968,767.384138 C1545.31706,768.098507 1540.26746,768.487925 1535.31126,768.549392 L1535.31126,812 L1492,812 C1492,797.766206 1492.02914,783.593879 1492.09041,769.483395 C1492.15168,755.37291 1492.24508,741.136118 1492.37061,726.776766 C1492.49315,719.19268 1492.52528,711.608969 1492.46401,704.025258 C1492.39975,696.441173 1492.55442,688.795995 1492.92803,681.085976 C1500.85847,678.726233 1508.78853,676.954551 1516.72159,675.771681 C1524.65203,674.591435 1532.83054,674 1541.25974,674 C1546.02914,674 1550.80115,674.389418 1555.57354,675.165629 C1560.34256,675.944464 1564.91358,677.171186 1569.28285,678.849167 C1573.64951,680.529772 1577.70943,682.626406 1581.45703,685.144689 C1585.20463,687.662598 1588.4445,690.661001 1591.17067,694.142522 C1593.89684,697.624043 1596.04804,701.586057 1597.62987,706.030815 C1599.20909,710.475948 1600,715.462292 1600,720.993596 Z" id="Stroke-199"></path>
            <path d="M1678.74577,749.11875 C1678.74577,746.447472 1678.35773,743.852301 1677.58464,741.333239 C1676.80856,738.814552 1675.67918,736.576677 1674.19388,734.616989 C1672.70596,732.657677 1670.86474,731.072906 1668.66498,729.860427 C1666.46485,728.647573 1663.94092,728.041333 1661.09318,728.041333 C1658.18121,728.041333 1655.57885,728.571465 1653.28834,729.626104 C1650.99484,730.683368 1649.0285,732.13017 1647.38858,733.963885 C1645.74604,735.797601 1644.49117,737.944371 1643.62472,740.398948 C1642.75826,742.856524 1642.32615,745.451694 1642.32615,748.187458 C1642.32615,750.799875 1642.69701,753.409667 1643.44097,756.022458 C1644.18194,758.63525 1645.29638,760.996097 1646.78467,763.110625 C1648.2696,765.225527 1650.11083,766.933271 1652.31096,768.239479 C1654.51072,769.545688 1657.06677,770.199167 1659.97874,770.199167 C1662.89071,770.199167 1665.50801,769.624795 1667.83027,768.473802 C1670.1529,767.325808 1672.11961,765.770281 1673.73002,763.810968 C1675.34081,761.85428 1676.57776,759.598784 1677.44459,757.047479 C1678.31105,754.499548 1678.74577,751.854514 1678.74577,749.11875 Z M1720,746.693417 C1720,752.352403 1719.34941,757.809309 1718.04786,763.06376 C1716.74667,768.318587 1714.87072,773.247986 1712.42559,777.849708 C1709.98046,782.451055 1707.00724,786.663239 1703.50593,790.48551 C1700.00461,794.310781 1696.07157,797.591298 1691.70641,800.327062 C1687.34163,803.062826 1682.58545,805.191976 1677.44459,806.71526 C1672.30336,808.23817 1666.85289,809 1661.09318,809 C1655.5176,809 1650.20718,808.285035 1645.15932,806.855854 C1640.11183,805.426298 1635.38776,803.420121 1630.99086,800.839573 C1626.59097,798.259024 1622.61087,795.148344 1619.0513,791.510531 C1615.48873,787.872719 1612.45426,783.833746 1609.9449,779.387239 C1607.4359,774.941107 1605.48376,770.169548 1604.08921,765.070312 C1602.69429,759.970701 1602,754.654764 1602,749.11875 C1602,743.711708 1602.65059,738.410392 1603.95177,733.217052 C1605.25333,728.026711 1607.12629,723.129555 1609.57142,718.527833 C1612.01655,713.926486 1614.97521,709.697055 1618.4444,705.842166 C1621.91359,701.987652 1625.79996,698.660271 1630.10685,695.860021 C1634.41038,693.062771 1639.07021,690.886757 1644.08857,689.331229 C1649.1073,687.779076 1654.40278,687 1659.97874,687 C1668.95965,687 1677.14992,688.399937 1684.55216,691.197188 C1691.9544,693.997437 1698.27133,697.992545 1703.50593,703.182885 C1708.74053,708.37585 1712.79607,714.655698 1715.67891,722.025052 C1718.55877,729.394781 1720,737.616319 1720,746.693417 Z" id="Stroke-201"></path>
            <path d="M1820,680.826067 L1814.77098,719.986661 C1812.96466,719.491297 1811.15796,719.153345 1809.35465,718.966838 C1807.54795,718.78033 1805.74426,718.687077 1803.93794,718.687077 C1799.33054,718.687077 1794.94049,719.290242 1790.77042,720.496945 C1786.59996,721.703275 1782.91075,723.544849 1779.70539,726.019057 C1776.49703,728.493265 1773.94559,731.585185 1772.04542,735.297802 C1770.14526,739.010419 1769.1978,743.373201 1769.1978,748.382418 C1769.1978,751.599672 1769.71094,754.38572 1770.7376,756.734594 C1771.76389,759.086453 1773.21247,761.035829 1775.08073,762.580484 C1776.94861,764.127749 1779.15997,765.273278 1781.71141,766.013339 C1784.26286,766.756385 1787.06656,767.126416 1790.11651,767.126416 C1792.41833,767.126416 1794.81437,766.881718 1797.30725,766.386354 C1799.79714,765.890991 1802.25737,765.241199 1804.68569,764.436606 C1807.11401,763.632385 1809.47777,762.705817 1811.78259,761.653542 C1814.08479,760.60164 1816.2023,759.517658 1818.13174,758.404582 L1814.3986,802.020839 C1811.97028,803.256637 1809.34001,804.355166 1806.50703,805.313814 C1803.67405,806.275446 1800.76186,807.109135 1797.77347,807.820101 C1794.78509,808.531067 1791.7967,809.073058 1788.80831,809.443462 C1785.81993,809.816477 1782.95767,810 1780.21853,810 C1772.31231,810 1764.93388,808.548599 1758.08623,805.640202 C1751.23557,802.731805 1745.29108,798.742411 1740.24675,793.669036 C1735.20279,788.595287 1731.23467,782.609517 1728.34012,775.711726 C1725.44558,768.813935 1724,761.37378 1724,753.392008 C1724,742.813679 1725.52479,732.838142 1728.57474,723.466516 C1731.62468,714.094518 1736.10895,705.882222 1742.02379,698.830003 C1747.936,691.77741 1755.26789,686.208671 1764.0157,682.12565 C1772.76089,678.043002 1782.83154,676 1794.22502,676 C1798.52123,676 1802.92629,676.341309 1807.43947,677.020196 C1811.95302,677.702067 1816.14074,678.969571 1820,680.826067 Z" id="Stroke-203"></path>
            <polygon id="Stroke-205" points="1944 678.708223 1899.04807 740.438784 1936.91274 806.061246 1893.63872 813.66137 1865.28932 773.621284 1863.79585 815.515295 1825 817 1827.98432 675 1871.44241 677.410177 1868.08621 719.304188 1896.99791 675"></polygon>
        </g>
    </g>
</svg>