<svg width="400" height="461" viewBox="0 0 400 461" fill="none" xmlns="http://www.w3.org/2000/svg">
<g clip-path="url(#clip0_0_778)">
<g filter="url(#filter0_d_0_778)">
<rect width="400" height="461" rx="8" fill="white"/>
</g>
<path d="M44.224 61C43.9893 61 43.84 60.8933 43.776 60.68L40.544 51.848C40.5013 51.7627 40.448 51.72 40.384 51.72H38.368C38.2613 51.72 38.208 51.7733 38.208 51.88V60.616C38.208 60.7227 38.1653 60.8187 38.08 60.904C38.016 60.968 37.9307 61 37.824 61H34.08C33.9733 61 33.8773 60.968 33.792 60.904C33.728 60.8187 33.696 60.7227 33.696 60.616V38.984C33.696 38.8773 33.728 38.792 33.792 38.728C33.8773 38.6427 33.9733 38.6 34.08 38.6H41.888C43.1467 38.6 44.2667 38.888 45.248 39.464C46.2293 40.0187 46.9867 40.808 47.52 41.832C48.0533 42.856 48.32 44.0293 48.32 45.352C48.32 46.7173 48.0213 47.9013 47.424 48.904C46.8267 49.9067 45.984 50.6533 44.896 51.144C44.7893 51.1867 44.7573 51.2613 44.8 51.368L48.448 60.552C48.4693 60.5947 48.48 60.648 48.48 60.712C48.48 60.904 48.3627 61 48.128 61H44.224ZM38.368 42.472C38.2613 42.472 38.208 42.5253 38.208 42.632V48.104C38.208 48.2107 38.2613 48.264 38.368 48.264H41.152C41.9413 48.264 42.5813 48.008 43.072 47.496C43.5627 46.9627 43.808 46.2587 43.808 45.384C43.808 44.488 43.5627 43.784 43.072 43.272C42.5813 42.7387 41.9413 42.472 41.152 42.472H38.368ZM58.239 61.256C56.7883 61.256 55.5083 60.9573 54.399 60.36C53.2897 59.7627 52.4257 58.9307 51.807 57.864C51.2097 56.776 50.911 55.528 50.911 54.12V38.984C50.911 38.8773 50.943 38.792 51.007 38.728C51.0923 38.6427 51.1883 38.6 51.295 38.6H55.039C55.1457 38.6 55.231 38.6427 55.295 38.728C55.3803 38.792 55.423 38.8773 55.423 38.984V54.344C55.423 55.2613 55.679 55.9973 56.191 56.552C56.703 57.1067 57.3857 57.384 58.239 57.384C59.0923 57.384 59.775 57.1067 60.287 56.552C60.799 55.9973 61.055 55.2613 61.055 54.344V38.984C61.055 38.8773 61.087 38.792 61.151 38.728C61.2363 38.6427 61.3323 38.6 61.439 38.6H65.183C65.2897 38.6 65.375 38.6427 65.439 38.728C65.5243 38.792 65.567 38.8773 65.567 38.984V54.12C65.567 55.528 65.2577 56.776 64.639 57.864C64.0417 58.9307 63.1883 59.7627 62.079 60.36C60.9697 60.9573 59.6897 61.256 58.239 61.256ZM69.1738 61C69.0671 61 68.9711 60.968 68.8858 60.904C68.8218 60.8187 68.7898 60.7227 68.7898 60.616V38.984C68.7898 38.8773 68.8218 38.792 68.8858 38.728C68.9711 38.6427 69.0671 38.6 69.1738 38.6H72.9178C73.0244 38.6 73.1098 38.6427 73.1738 38.728C73.2591 38.792 73.3018 38.8773 73.3018 38.984V56.968C73.3018 57.0747 73.3551 57.128 73.4618 57.128H82.0378C82.1444 57.128 82.2298 57.1707 82.2938 57.256C82.3791 57.32 82.4218 57.4053 82.4218 57.512V60.616C82.4218 60.7227 82.3791 60.8187 82.2938 60.904C82.2298 60.968 82.1444 61 82.0378 61H69.1738ZM98.3905 42.088C98.3905 42.1947 98.3478 42.2907 98.2625 42.376C98.1985 42.44 98.1132 42.472 98.0065 42.472H89.4305C89.3238 42.472 89.2705 42.5253 89.2705 42.632V47.624C89.2705 47.7307 89.3238 47.784 89.4305 47.784H94.7745C94.8812 47.784 94.9665 47.8267 95.0305 47.912C95.1158 47.976 95.1585 48.0613 95.1585 48.168V51.272C95.1585 51.3787 95.1158 51.4747 95.0305 51.56C94.9665 51.624 94.8812 51.656 94.7745 51.656H89.4305C89.3238 51.656 89.2705 51.7093 89.2705 51.816V56.968C89.2705 57.0747 89.3238 57.128 89.4305 57.128H98.0065C98.1132 57.128 98.1985 57.1707 98.2625 57.256C98.3478 57.32 98.3905 57.4053 98.3905 57.512V60.616C98.3905 60.7227 98.3478 60.8187 98.2625 60.904C98.1985 60.968 98.1132 61 98.0065 61H85.1425C85.0358 61 84.9398 60.968 84.8545 60.904C84.7905 60.8187 84.7585 60.7227 84.7585 60.616V38.984C84.7585 38.8773 84.7905 38.792 84.8545 38.728C84.9398 38.6427 85.0358 38.6 85.1425 38.6H98.0065C98.1132 38.6 98.1985 38.6427 98.2625 38.728C98.3478 38.792 98.3905 38.8773 98.3905 38.984V42.088ZM107.822 61.256C106.35 61.256 105.06 61 103.95 60.488C102.841 59.9547 101.977 59.2187 101.358 58.28C100.761 57.32 100.462 56.2213 100.462 54.984V54.152C100.462 54.0453 100.494 53.96 100.558 53.896C100.644 53.8107 100.74 53.768 100.846 53.768H104.526C104.633 53.768 104.718 53.8107 104.782 53.896C104.868 53.96 104.91 54.0453 104.91 54.152V54.76C104.91 55.5067 105.188 56.136 105.742 56.648C106.297 57.1387 107.044 57.384 107.982 57.384C108.814 57.384 109.444 57.1707 109.87 56.744C110.318 56.3173 110.542 55.7733 110.542 55.112C110.542 54.6213 110.404 54.2053 110.126 53.864C109.849 53.5013 109.454 53.1707 108.942 52.872C108.452 52.552 107.684 52.1253 106.638 51.592C105.358 50.952 104.313 50.3547 103.502 49.8C102.692 49.2453 101.998 48.5307 101.422 47.656C100.846 46.7813 100.558 45.7253 100.558 44.488C100.558 43.2507 100.846 42.1733 101.422 41.256C102.02 40.3173 102.852 39.6027 103.918 39.112C104.985 38.6 106.201 38.344 107.566 38.344C108.996 38.344 110.265 38.6213 111.374 39.176C112.484 39.7093 113.348 40.4667 113.966 41.448C114.585 42.4293 114.894 43.56 114.894 44.84V45.48C114.894 45.5867 114.852 45.6827 114.766 45.768C114.702 45.832 114.617 45.864 114.51 45.864H110.83C110.724 45.864 110.628 45.832 110.542 45.768C110.478 45.6827 110.446 45.5867 110.446 45.48V44.904C110.446 44.136 110.18 43.496 109.646 42.984C109.113 42.472 108.388 42.216 107.47 42.216C106.702 42.216 106.094 42.4187 105.646 42.824C105.22 43.208 105.006 43.752 105.006 44.456C105.006 44.9467 105.134 45.3733 105.39 45.736C105.646 46.0987 106.041 46.4507 106.574 46.792C107.108 47.112 107.918 47.5387 109.006 48.072L109.678 48.456C110.916 49.1387 111.876 49.736 112.558 50.248C113.262 50.7387 113.849 51.368 114.318 52.136C114.788 52.904 115.022 53.832 115.022 54.92C115.022 56.8613 114.361 58.408 113.038 59.56C111.737 60.6907 109.998 61.256 107.822 61.256Z" fill="#3B4262"/>
<path opacity="0.25" fill-rule="evenodd" clip-rule="evenodd" d="M368.092 40.1213L365.971 38L358.546 45.4246L351.121 38L349 40.1213L356.425 47.5459L349 54.9706L351.121 57.0919L358.546 49.6673L365.971 57.0919L368.092 54.9706L360.667 47.5459L368.092 40.1213Z" fill="#3B4262"/>
<ellipse cx="316.5" cy="226.172" rx="51.5" ry="50.1724" fill="#B1B4C5"/>
<ellipse cx="316.5" cy="226.172" rx="51.5" ry="50.1724" fill="url(#paint0_linear_0_778)"/>
<ellipse cx="316.5" cy="227.207" rx="39.5354" ry="39.3103" fill="#E1E4ED"/>
<path d="M331.861 217.029C331.569 216.918 331.266 216.869 330.986 216.889C330.582 216.917 330.255 217.081 330.061 217.35C328.921 218.945 327.988 221.957 327.235 224.377C326.889 225.496 326.425 226.994 326.089 227.705C325.739 225.713 326.135 218.418 326.288 215.608L326.291 215.563C326.397 213.611 326.412 213.268 326.388 213.118C326.219 212.047 325.789 211.345 325.111 211.03C324.425 210.711 323.533 210.852 322.573 211.429C322.092 211.72 321.959 212.717 321.546 217.24L321.544 217.26C321.317 219.745 320.793 225.465 320.149 226.418C319.422 225.085 318.422 217.512 317.99 214.233C317.688 211.937 317.512 210.619 317.394 210.221C317.145 209.387 316.094 208.677 315.053 208.638C314.186 208.595 313.475 209.035 313.136 209.8C312.501 210.505 312.726 212.845 313.427 218.386C313.761 221.023 314.45 226.47 314.017 227.081C313.152 226.987 311.667 223.575 309.602 216.937C309.023 215.078 308.844 214.519 308.666 214.274C308.315 213.421 307.123 212.764 306.055 212.838C305.964 212.845 305.875 212.856 305.787 212.873C305.228 212.984 303.952 213.498 304.224 215.871C304.977 219.161 305.796 221.576 306.591 223.921L306.607 223.968C307.082 225.372 307.531 226.698 307.949 228.171C308.933 231.647 308.551 233.804 308.546 233.829C308.513 234.051 308.445 234.186 308.341 234.234C308.304 234.251 308.257 234.262 308.203 234.265C307.891 234.287 307.423 234.081 307.182 233.946C306.631 232.895 303.889 227.884 301.404 227.189L301.315 227.163L301.224 227.172C300.313 227.257 299.643 227.602 299.233 228.194C298.584 229.131 298.853 230.324 298.918 230.563L298.955 230.649C298.975 230.685 300.968 234.313 301.276 236.001C301.542 237.448 302.918 239.016 304.024 240.276L304.07 240.327C304.431 240.74 304.742 241.096 304.988 241.426C308.198 244.77 313.274 247.582 313.315 247.605C313.949 248.072 314.301 248.523 314.338 248.911C314.362 249.165 314.229 249.317 314.225 249.322L314.114 249.437L314.816 250.118L328.209 249.179L328.779 246.566C330.545 239.185 330.177 232.893 330.171 232.851C330.177 232.619 330.672 230.38 331.07 228.571L331.082 228.525C331.875 224.922 332.862 220.438 333.051 218.732C333.133 218.003 332.666 217.333 331.861 217.029Z" fill="#8A90AC"/>
<ellipse cx="83.5" cy="228.5" rx="51.5" ry="52.5" fill="#B1B4C5"/>
<ellipse cx="83.5" cy="226.172" rx="51.5" ry="50.1724" fill="url(#paint1_linear_0_778)"/>
<ellipse cx="83.5" cy="227.207" rx="39.5354" ry="39.3103" fill="#E1E4ED"/>
<path d="M100.933 230.218L100.32 229.609C98.8551 228.151 96.4606 227.834 94.6723 228.856L90.8536 231.026L91.6495 213.643C91.6495 212.186 90.4574 211 88.9908 211C88.6741 211 88.3693 211.056 88.0865 211.157L88.1814 210.225C88.1815 208.751 86.9706 207.552 85.4838 207.552C84.1088 207.552 82.9556 208.577 82.8099 209.892L80.3595 224.613C80.3273 224.813 79.9785 224.793 79.9412 224.667L77.0471 212.865C76.7305 211.767 75.7076 211 74.5595 211C73.7653 211 73.027 211.355 72.5325 211.975C72.0397 212.595 71.8603 213.392 72.0431 214.16L72.6054 216.537C72.2853 216.511 71.9636 216.554 71.657 216.657C70.5157 217.035 69.8197 218.168 70.0043 219.365L71.7079 229.103C71.7079 232.946 72.3852 235.789 72.9542 237.496C73.2776 238.47 73.4419 239.495 73.4419 240.541C73.4419 241.452 73.3149 242.359 73.0626 243.234L71.7417 247.832C71.6671 248.093 71.7196 248.372 71.8822 248.588C72.0465 248.804 72.3022 248.931 72.5748 248.931H88.1814C88.4608 248.931 88.7216 248.798 88.8842 248.573C89.0484 248.349 89.0925 248.059 89.0044 247.796C88.9959 247.774 88.2711 245.548 88.957 242.519C89.8274 241.817 92.8739 239.354 93.9678 238.361C95.7764 236.718 100.731 231.643 100.941 231.428C101.272 231.09 101.268 230.551 100.933 230.218Z" fill="#8A90AC"/>
<ellipse cx="200.5" cy="136.5" rx="51.5" ry="52.5" fill="#B1B4C5"/>
<ellipse cx="200.5" cy="134.172" rx="51.5" ry="50.1724" fill="url(#paint2_linear_0_778)"/>
<ellipse cx="200.5" cy="135.207" rx="39.5354" ry="39.3103" fill="#E1E4ED"/>
<path d="M190.179 134.87L194.45 128.9C192.675 128.606 189.415 128.54 186.745 131.195C182.536 135.38 180.832 144.42 180.476 146.609L191.173 157.245C193.099 157.081 201.624 155.949 209.84 147.781C209.927 147.604 211.928 146.134 210.292 144.507C209.511 143.731 208.218 143.745 207.42 144.538C207.014 144.942 206.383 144.948 205.985 144.553C205.587 144.157 205.593 143.529 205.999 143.125L208.902 140.239C210.377 138.772 208.987 136.297 206.928 136.892L204.551 138.915C204.117 139.291 203.472 139.226 203.115 138.816C202.747 138.392 202.826 137.749 203.245 137.387C211.547 130.145 210.335 131.017 215.676 126.04C217.671 124.387 215.161 121.465 213.195 123.138L200.274 134.691C199.898 135.009 199.322 135.015 198.952 134.677C198.525 134.31 198.516 133.782 198.795 133.365L207.807 119.434C209.124 117.66 206.532 115.69 205.144 117.478L191.819 136.009C191.497 136.471 190.85 136.577 190.408 136.253C189.966 135.958 189.845 135.317 190.179 134.87Z" fill="#8A90AC"/>
<ellipse cx="270.5" cy="361.5" rx="51.5" ry="52.5" fill="#B1B4C5"/>
<ellipse cx="270.5" cy="359.172" rx="51.5" ry="50.1724" fill="url(#paint3_linear_0_778)"/>
<ellipse cx="270.5" cy="360.207" rx="39.5354" ry="39.3103" fill="#E1E4ED"/>
<path d="M285.815 354.561C285.359 348.818 278.901 349.404 278.901 349.404C276.175 344.605 271.916 348.081 271.916 348.081C268.645 343.377 264.543 347.736 264.543 347.736C257.47 346.974 257.744 352.749 257.744 352.749C257.578 354.585 258.741 360.265 258.741 360.265C257.692 356.991 255.416 359.709 255.416 359.709C252.618 364.021 254.724 366.381 254.724 366.381C258.51 370.812 266.578 376.131 266.578 376.131C269.499 377.802 268.264 379.293 268.264 379.293L285.934 376.377L286.34 373.03C289.026 364.916 285.815 354.561 285.815 354.561Z" fill="#8A90AC"/>
<ellipse cx="129.5" cy="361.5" rx="51.5" ry="52.5" fill="#B1B4C5"/>
<ellipse cx="129.5" cy="359.172" rx="51.5" ry="50.1724" fill="url(#paint4_linear_0_778)"/>
<ellipse cx="129.5" cy="360.207" rx="39.5354" ry="39.3103" fill="#E1E4ED"/>
<path fill-rule="evenodd" clip-rule="evenodd" d="M148.465 341.548C146.766 340.687 144.568 340.994 142.275 342.413C140.461 343.535 138.796 345.239 137.93 346.86C136.275 349.956 136.924 352.686 137.341 353.839C136.77 355.65 135.982 357.155 134.98 358.352C134.172 357.341 133.721 356.067 133.721 354.735V354.67L135.845 352.481C136.072 352.247 136.659 351.325 135.845 350.485C135.31 349.934 134.444 349.934 133.909 350.485L133.721 350.679V350.238C133.721 349.459 133.108 348.827 132.353 348.827C131.597 348.827 130.984 349.459 130.984 350.238V350.679L130.796 350.485C130.262 349.934 129.395 349.934 128.86 350.485C128.326 351.036 128.326 351.93 128.86 352.481L130.984 354.67V354.735C130.984 356.751 131.673 358.678 132.908 360.199C130.69 361.641 127.817 362.129 124.304 361.654C123.037 361.483 121.758 361.461 120.504 361.587C118.931 360.001 116.775 359.101 114.504 359.101H114.44L112.286 356.985C111.744 356.453 110.865 356.453 110.323 356.985C109.781 357.518 109.781 358.382 110.323 358.914L110.514 359.102H110.08C109.313 359.102 108.692 359.712 108.692 360.465C108.692 361.219 109.313 361.829 110.08 361.829H110.514L110.323 362.016C109.781 362.549 109.781 363.413 110.323 363.945C110.594 364.212 110.949 364.345 111.305 364.345C111.66 364.345 112.015 364.212 112.286 363.945L114.44 361.829H114.504C115.345 361.829 116.161 362.014 116.902 362.359C117.002 362.332 117.102 362.305 117.202 362.28C117.172 362.29 117.141 362.3 117.11 362.31C114.761 363.099 112.643 364.467 110.984 366.267C108.122 369.372 107.075 373.244 107.953 377.465C108.601 380.573 110.076 382.775 110.138 382.868C110.403 383.258 110.84 383.483 111.296 383.483C111.408 383.483 111.521 383.469 111.632 383.442C112.201 383.301 112.622 382.82 112.688 382.236C112.695 382.172 113.454 375.787 117.373 372.174C117.873 371.714 119.76 370.247 123.088 370.698C124.262 370.857 125.398 370.951 126.495 370.982C127.097 372.15 127.283 373.5 127.001 374.808L126.987 374.872L124.418 376.541C123.771 376.961 123.583 377.831 123.999 378.485C124.415 379.139 125.276 379.328 125.923 378.908L126.15 378.761L126.058 379.19C125.894 379.949 126.371 380.699 127.122 380.864C127.222 380.886 127.321 380.896 127.419 380.896C128.06 380.896 128.637 380.447 128.779 379.788L128.871 379.359L129.017 379.589C129.283 380.007 129.732 380.236 130.19 380.236C130.447 380.236 130.708 380.163 130.941 380.012C131.588 379.592 131.775 378.721 131.36 378.068L129.708 375.47L129.722 375.407C130.048 373.89 129.956 372.336 129.479 370.9C133.267 370.57 136.507 369.366 139.158 367.295C139.471 367.05 139.776 366.794 140.071 366.527C141.581 367.826 143.523 368.553 145.557 368.553H145.621L147.767 370.669C148.037 370.936 148.391 371.069 148.745 371.069C149.099 371.069 149.453 370.936 149.723 370.669C150.264 370.137 150.264 369.273 149.723 368.741L149.534 368.553H149.965C150.729 368.553 151.348 367.943 151.348 367.19C151.348 366.436 150.729 365.826 149.965 365.826H149.533L149.723 365.638C150.263 365.106 150.263 364.242 149.723 363.71C149.183 363.177 148.307 363.177 147.767 363.71L145.621 365.826H145.557C144.224 365.826 142.95 365.359 141.95 364.523C143.477 362.607 144.674 360.29 145.525 357.595C147.725 356.814 149.283 355.53 150.162 353.773C151.72 350.661 152.271 343.478 148.465 341.548Z" fill="#8A90AC"/>
<rect x="112.237" y="172.228" width="32.6923" height="2.66667" rx="1.33333" transform="rotate(-40 112.237 172.228)" fill="#B1B4C5"/>
<path fill-rule="evenodd" clip-rule="evenodd" d="M128.523 151.63C128.577 150.948 129.183 150.445 129.864 150.517L137.907 151.364C138.564 151.433 139.045 152.013 138.993 152.671V152.671C138.939 153.353 138.333 153.857 137.652 153.785L129.609 152.938C128.952 152.869 128.47 152.289 128.523 151.63V151.63Z" fill="#B1B4C5"/>
<path fill-rule="evenodd" clip-rule="evenodd" d="M137.064 161.809C136.406 161.746 135.919 161.171 135.965 160.512L136.527 152.444C136.575 151.761 137.176 151.252 137.857 151.317V151.317C138.514 151.38 139.002 151.955 138.956 152.613L138.394 160.682C138.346 161.364 137.745 161.874 137.064 161.809V161.809Z" fill="#B1B4C5"/>
<rect width="32.6923" height="2.66667" rx="1.33333" transform="matrix(0.766044 0.642788 0.642788 -0.766044 260.237 151.772)" fill="#B1B4C5"/>
<path fill-rule="evenodd" clip-rule="evenodd" d="M276.523 172.37C276.577 173.052 277.183 173.555 277.864 173.483L285.907 172.636C286.564 172.567 287.045 171.987 286.993 171.329V171.329C286.939 170.647 286.333 170.143 285.652 170.215L277.609 171.062C276.952 171.131 276.47 171.711 276.523 172.37V172.37Z" fill="#B1B4C5"/>
<path fill-rule="evenodd" clip-rule="evenodd" d="M285.064 162.191C284.406 162.254 283.919 162.829 283.965 163.488L284.527 171.556C284.575 172.239 285.176 172.748 285.857 172.683V172.683C286.514 172.62 287.002 172.045 286.956 171.387L286.394 163.318C286.346 162.636 285.745 162.126 285.064 162.191V162.191Z" fill="#B1B4C5"/>
<rect x="332.097" y="288.826" width="32.6923" height="2.66667" rx="1.33333" transform="rotate(127 332.097 288.826)" fill="#B1B4C5"/>
<path fill-rule="evenodd" clip-rule="evenodd" d="M320.862 312.559C320.962 313.236 320.485 313.863 319.806 313.946L311.778 314.93C311.123 315.01 310.523 314.554 310.426 313.901V313.901C310.325 313.224 310.802 312.597 311.482 312.514L319.509 311.53C320.165 311.45 320.765 311.906 320.862 312.559V312.559Z" fill="#B1B4C5"/>
<path fill-rule="evenodd" clip-rule="evenodd" d="M310.25 304.563C310.904 304.476 311.509 304.927 311.612 305.579L312.879 313.567C312.986 314.243 312.516 314.874 311.837 314.964V314.964C311.183 315.051 310.578 314.6 310.475 313.948L309.208 305.96C309.101 305.284 309.571 304.653 310.25 304.563V304.563Z" fill="#B1B4C5"/>
<rect width="32.6923" height="2.66667" rx="1.33333" transform="matrix(-1 0 0 1 218 387.667)" fill="#B1B4C5"/>
<path fill-rule="evenodd" clip-rule="evenodd" d="M192.285 382.357C191.804 381.869 191.017 381.873 190.541 382.365L184.924 388.184C184.466 388.659 184.47 389.413 184.933 389.884V389.884C185.413 390.371 186.201 390.368 186.676 389.875L192.293 384.056C192.752 383.581 192.748 382.827 192.285 382.357V382.357Z" fill="#B1B4C5"/>
<path fill-rule="evenodd" clip-rule="evenodd" d="M192.285 395.643C192.748 395.173 192.752 394.419 192.293 393.944L186.676 388.125C186.201 387.632 185.413 387.629 184.933 388.116V388.116C184.47 388.587 184.466 389.341 184.924 389.816L190.541 395.635C191.017 396.127 191.804 396.131 192.285 395.643V395.643Z" fill="#B1B4C5"/>
<rect width="32.6923" height="2.66667" rx="1.33333" transform="matrix(-0.601815 -0.798635 -0.798635 0.601815 91.0967 315.174)" fill="#B1B4C5"/>
<path fill-rule="evenodd" clip-rule="evenodd" d="M79.8617 291.441C79.9622 290.764 79.485 290.137 78.8057 290.054L70.778 289.07C70.1227 288.99 69.5228 289.446 69.4258 290.099V290.099C69.3253 290.776 69.8025 291.403 70.4818 291.486L78.5095 292.47C79.1648 292.55 79.7647 292.094 79.8617 291.441V291.441Z" fill="#B1B4C5"/>
<path fill-rule="evenodd" clip-rule="evenodd" d="M69.2501 299.437C69.9045 299.524 70.5089 299.073 70.6124 298.421L71.8794 290.433C71.9866 289.757 71.5156 289.126 70.8372 289.036V289.036C70.1827 288.949 69.5783 289.4 69.4749 290.052L68.2079 298.04C68.1007 298.716 68.5716 299.347 69.2501 299.437V299.437Z" fill="#B1B4C5"/>
<rect width="85" height="2.66667" rx="1.33333" transform="matrix(-1 0 0 1 243.308 221.667)" fill="#B1B4C5"/>
<path fill-rule="evenodd" clip-rule="evenodd" d="M165.285 216.357C164.804 215.869 164.017 215.873 163.541 216.365L157.924 222.184C157.466 222.659 157.47 223.413 157.933 223.884V223.884C158.413 224.371 159.201 224.368 159.676 223.875L165.293 218.056C165.752 217.581 165.748 216.827 165.285 216.357V216.357Z" fill="#B1B4C5"/>
<path fill-rule="evenodd" clip-rule="evenodd" d="M165.285 229.643C165.748 229.173 165.752 228.419 165.293 227.944L159.676 222.125C159.201 221.632 158.413 221.629 157.933 222.116V222.116C157.47 222.587 157.466 223.341 157.924 223.816L163.541 229.635C164.017 230.127 164.804 230.131 165.285 229.643V229.643Z" fill="#B1B4C5"/>
<path d="M195.054 230.836C195.054 231.216 194.93 231.506 194.682 231.706C194.438 231.902 194.122 232 193.734 232H192.39C192.37 232 192.352 231.994 192.336 231.982C192.324 231.966 192.318 231.948 192.318 231.928V227.872C192.318 227.852 192.324 227.836 192.336 227.824C192.352 227.808 192.37 227.8 192.39 227.8H193.644C194.072 227.8 194.404 227.896 194.64 228.088C194.876 228.276 194.994 228.564 194.994 228.952C194.994 229.348 194.84 229.634 194.532 229.81C194.512 229.822 194.51 229.834 194.526 229.846C194.878 230.046 195.054 230.376 195.054 230.836ZM193.194 228.526C193.174 228.526 193.164 228.536 193.164 228.556V229.498C193.164 229.518 193.174 229.528 193.194 229.528H193.65C193.81 229.528 193.936 229.484 194.028 229.396C194.12 229.308 194.166 229.186 194.166 229.03C194.166 228.87 194.12 228.746 194.028 228.658C193.94 228.57 193.814 228.526 193.65 228.526H193.194ZM193.698 231.268C193.858 231.268 193.982 231.222 194.07 231.13C194.162 231.034 194.208 230.9 194.208 230.728C194.208 230.556 194.162 230.422 194.07 230.326C193.982 230.226 193.858 230.176 193.698 230.176H193.194C193.174 230.176 193.164 230.186 193.164 230.206V231.238C193.164 231.258 193.174 231.268 193.194 231.268H193.698ZM198.138 228.454C198.138 228.474 198.13 228.492 198.114 228.508C198.102 228.52 198.086 228.526 198.066 228.526H196.458C196.438 228.526 196.428 228.536 196.428 228.556V229.492C196.428 229.512 196.438 229.522 196.458 229.522H197.46C197.48 229.522 197.496 229.53 197.508 229.546C197.524 229.558 197.532 229.574 197.532 229.594V230.176C197.532 230.196 197.524 230.214 197.508 230.23C197.496 230.242 197.48 230.248 197.46 230.248H196.458C196.438 230.248 196.428 230.258 196.428 230.278V231.244C196.428 231.264 196.438 231.274 196.458 231.274H198.066C198.086 231.274 198.102 231.282 198.114 231.298C198.13 231.31 198.138 231.326 198.138 231.346V231.928C198.138 231.948 198.13 231.966 198.114 231.982C198.102 231.994 198.086 232 198.066 232H195.654C195.634 232 195.616 231.994 195.6 231.982C195.588 231.966 195.582 231.948 195.582 231.928V227.872C195.582 227.852 195.588 227.836 195.6 227.824C195.616 227.808 195.634 227.8 195.654 227.8H198.066C198.086 227.8 198.102 227.808 198.114 227.824C198.13 227.836 198.138 227.852 198.138 227.872V228.454ZM200.913 232C200.869 232 200.841 231.98 200.829 231.94L200.691 231.352C200.687 231.336 200.677 231.328 200.661 231.328H199.539C199.523 231.328 199.513 231.336 199.509 231.352L199.371 231.94C199.359 231.98 199.333 232 199.293 232H198.567C198.515 232 198.495 231.974 198.507 231.922L199.587 227.86C199.599 227.82 199.627 227.8 199.671 227.8H200.541C200.585 227.8 200.613 227.82 200.625 227.86L201.705 231.922L201.711 231.946C201.711 231.982 201.689 232 201.645 232H200.913ZM199.671 230.638C199.667 230.65 199.669 230.66 199.677 230.668C199.685 230.672 199.693 230.674 199.701 230.674H200.493C200.501 230.674 200.509 230.672 200.517 230.668C200.525 230.66 200.527 230.65 200.523 230.638L200.109 228.898C200.105 228.882 200.099 228.874 200.091 228.874C200.083 228.874 200.077 228.882 200.073 228.898L199.671 230.638ZM204.326 227.8C204.346 227.8 204.362 227.808 204.374 227.824C204.39 227.836 204.398 227.852 204.398 227.872V228.46C204.398 228.48 204.39 228.498 204.374 228.514C204.362 228.526 204.346 228.532 204.326 228.532H203.414C203.394 228.532 203.384 228.542 203.384 228.562V231.928C203.384 231.948 203.376 231.966 203.36 231.982C203.348 231.994 203.332 232 203.312 232H202.61C202.59 232 202.572 231.994 202.556 231.982C202.544 231.966 202.538 231.948 202.538 231.928V228.562C202.538 228.542 202.528 228.532 202.508 228.532H201.626C201.606 228.532 201.588 228.526 201.572 228.514C201.56 228.498 201.554 228.48 201.554 228.46V227.872C201.554 227.852 201.56 227.836 201.572 227.824C201.588 227.808 201.606 227.8 201.626 227.8H204.326ZM206.117 232.048C205.841 232.048 205.599 232 205.391 231.904C205.183 231.804 205.021 231.666 204.905 231.49C204.793 231.31 204.737 231.104 204.737 230.872V230.716C204.737 230.696 204.743 230.68 204.755 230.668C204.771 230.652 204.789 230.644 204.809 230.644H205.499C205.519 230.644 205.535 230.652 205.547 230.668C205.563 230.68 205.571 230.696 205.571 230.716V230.83C205.571 230.97 205.623 231.088 205.727 231.184C205.831 231.276 205.971 231.322 206.147 231.322C206.303 231.322 206.421 231.282 206.501 231.202C206.585 231.122 206.627 231.02 206.627 230.896C206.627 230.804 206.601 230.726 206.549 230.662C206.497 230.594 206.423 230.532 206.327 230.476C206.235 230.416 206.091 230.336 205.895 230.236C205.655 230.116 205.459 230.004 205.307 229.9C205.155 229.796 205.025 229.662 204.917 229.498C204.809 229.334 204.755 229.136 204.755 228.904C204.755 228.672 204.809 228.47 204.917 228.298C205.029 228.122 205.185 227.988 205.385 227.896C205.585 227.8 205.813 227.752 206.069 227.752C206.337 227.752 206.575 227.804 206.783 227.908C206.991 228.008 207.153 228.15 207.269 228.334C207.385 228.518 207.443 228.73 207.443 228.97V229.09C207.443 229.11 207.435 229.128 207.419 229.144C207.407 229.156 207.391 229.162 207.371 229.162H206.681C206.661 229.162 206.643 229.156 206.627 229.144C206.615 229.128 206.609 229.11 206.609 229.09V228.982C206.609 228.838 206.559 228.718 206.459 228.622C206.359 228.526 206.223 228.478 206.051 228.478C205.907 228.478 205.793 228.516 205.709 228.592C205.629 228.664 205.589 228.766 205.589 228.898C205.589 228.99 205.613 229.07 205.661 229.138C205.709 229.206 205.783 229.272 205.883 229.336C205.983 229.396 206.135 229.476 206.339 229.576L206.465 229.648C206.697 229.776 206.877 229.888 207.005 229.984C207.137 230.076 207.247 230.194 207.335 230.338C207.423 230.482 207.467 230.656 207.467 230.86C207.467 231.224 207.343 231.514 207.095 231.73C206.851 231.942 206.525 232.048 206.117 232.048Z" fill="#B1B4C5"/>
<g clip-path="url(#clip1_0_778)">
<rect x="147.753" y="256.439" width="85" height="2.66667" rx="1.33333" transform="rotate(40 147.753 256.439)" fill="#B1B4C5"/>
<path fill-rule="evenodd" clip-rule="evenodd" d="M210.936 302.523C211.617 302.458 212.218 302.968 212.266 303.65L212.828 311.719C212.874 312.377 212.386 312.952 211.729 313.015V313.015C211.048 313.08 210.447 312.571 210.399 311.888L209.837 303.82C209.791 303.161 210.278 302.586 210.936 302.523V302.523Z" fill="#B1B4C5"/>
<path fill-rule="evenodd" clip-rule="evenodd" d="M202.395 312.702C202.342 312.044 202.824 311.464 203.481 311.395L211.524 310.548C212.205 310.476 212.811 310.979 212.865 311.661V311.661C212.917 312.32 212.436 312.9 211.779 312.969L203.736 313.816C203.055 313.888 202.449 313.384 202.395 312.702V312.702Z" fill="#B1B4C5"/>
<path d="M180.245 277.397C180.001 277.688 179.719 277.83 179.401 277.824C179.088 277.818 178.783 277.69 178.486 277.44L177.456 276.576C177.441 276.563 177.431 276.547 177.426 276.528C177.427 276.508 177.434 276.49 177.447 276.475L180.054 273.368C180.067 273.352 180.082 273.344 180.099 273.343C180.122 273.341 180.14 273.346 180.156 273.359L181.116 274.165C181.444 274.44 181.637 274.727 181.694 275.026C181.754 275.321 181.659 275.618 181.41 275.915C181.156 276.219 180.854 276.339 180.505 276.275C180.482 276.272 180.472 276.28 180.477 276.299C180.618 276.679 180.541 277.045 180.245 277.397ZM180.305 274.432C180.29 274.419 180.276 274.42 180.263 274.436L179.657 275.157C179.644 275.172 179.646 275.187 179.661 275.199L180.01 275.492C180.133 275.595 180.258 275.643 180.385 275.634C180.512 275.626 180.625 275.562 180.726 275.443C180.828 275.32 180.873 275.196 180.859 275.069C180.848 274.945 180.78 274.83 180.654 274.725L180.305 274.432ZM178.929 276.856C179.051 276.959 179.176 277.004 179.302 276.99C179.434 276.975 179.556 276.902 179.666 276.77C179.777 276.639 179.828 276.506 179.819 276.374C179.816 276.241 179.753 276.123 179.63 276.02L179.244 275.696C179.229 275.683 179.215 275.684 179.202 275.699L178.539 276.49C178.526 276.505 178.527 276.519 178.542 276.532L178.929 276.856ZM184.138 277.554C184.125 277.57 184.108 277.578 184.085 277.58C184.068 277.582 184.052 277.576 184.037 277.563L182.805 276.53C182.79 276.517 182.776 276.518 182.763 276.533L182.161 277.25C182.148 277.266 182.15 277.28 182.165 277.293L182.932 277.937C182.948 277.95 182.955 277.966 182.954 277.986C182.958 278.005 182.954 278.023 182.941 278.038L182.567 278.484C182.554 278.499 182.537 278.508 182.514 278.51C182.497 278.511 182.481 278.506 182.466 278.493L181.698 277.849C181.683 277.836 181.669 277.837 181.656 277.852L181.035 278.592C181.022 278.608 181.023 278.622 181.039 278.635L182.271 279.668C182.286 279.681 182.293 279.698 182.292 279.718C182.296 279.737 182.292 279.754 182.279 279.77L181.905 280.216C181.892 280.231 181.875 280.24 181.852 280.242C181.835 280.243 181.819 280.237 181.804 280.224L179.956 278.674C179.941 278.661 179.931 278.645 179.926 278.626C179.927 278.606 179.934 278.588 179.947 278.573L182.554 275.466C182.567 275.45 182.582 275.442 182.599 275.44C182.622 275.438 182.641 275.444 182.656 275.457L184.504 277.007C184.519 277.02 184.526 277.036 184.525 277.056C184.529 277.076 184.525 277.093 184.512 277.109L184.138 277.554ZM183.985 282.055C183.951 282.026 183.943 281.993 183.959 281.955L184.232 281.416C184.239 281.401 184.236 281.388 184.224 281.378L183.364 280.657C183.352 280.646 183.339 280.646 183.326 280.656L182.842 281.018C182.807 281.041 182.775 281.039 182.744 281.013L182.188 280.547C182.148 280.513 182.149 280.481 182.192 280.448L185.63 278.031C185.665 278.008 185.7 278.011 185.733 278.039L186.4 278.598C186.433 278.626 186.442 278.66 186.426 278.698L184.642 282.504L184.631 282.526C184.608 282.554 184.579 282.554 184.546 282.525L183.985 282.055ZM183.909 280.213C183.898 280.22 183.893 280.229 183.894 280.24C183.898 280.248 183.903 280.255 183.909 280.26L184.516 280.769C184.522 280.774 184.529 280.778 184.538 280.78C184.549 280.779 184.557 280.772 184.562 280.761L185.363 279.162C185.37 279.147 185.371 279.137 185.365 279.132C185.359 279.127 185.349 279.129 185.335 279.139L183.909 280.213ZM189.3 281.031C189.315 281.044 189.322 281.061 189.321 281.081C189.325 281.1 189.321 281.118 189.308 281.133L188.931 281.583C188.918 281.599 188.9 281.607 188.877 281.609C188.861 281.611 188.844 281.605 188.829 281.592L188.13 281.006C188.115 280.993 188.101 280.994 188.088 281.01L185.925 283.588C185.912 283.603 185.894 283.612 185.871 283.614C185.855 283.616 185.838 283.61 185.823 283.597L185.285 283.146C185.27 283.133 185.26 283.117 185.256 283.097C185.257 283.077 185.264 283.06 185.276 283.044L187.44 280.466C187.453 280.451 187.452 280.436 187.436 280.424L186.761 279.857C186.745 279.844 186.736 279.828 186.731 279.808C186.732 279.788 186.739 279.771 186.752 279.755L187.13 279.305C187.143 279.289 187.158 279.281 187.174 279.28C187.197 279.278 187.216 279.283 187.231 279.296L189.3 281.031ZM187.941 285.437C187.729 285.259 187.575 285.067 187.477 284.86C187.382 284.649 187.347 284.439 187.371 284.23C187.401 284.02 187.49 283.826 187.64 283.649L187.74 283.529C187.753 283.514 187.768 283.505 187.784 283.504C187.807 283.502 187.826 283.507 187.841 283.52L188.37 283.964C188.385 283.977 188.392 283.993 188.391 284.013C188.396 284.033 188.392 284.05 188.379 284.065L188.305 284.153C188.215 284.26 188.179 284.384 188.197 284.524C188.218 284.661 188.296 284.787 188.43 284.9C188.55 285 188.666 285.045 188.779 285.035C188.894 285.028 188.992 284.977 189.072 284.882C189.131 284.811 189.161 284.735 189.163 284.653C189.166 284.567 189.15 284.472 189.112 284.367C189.08 284.262 189.021 284.108 188.935 283.906C188.829 283.66 188.751 283.448 188.701 283.27C188.651 283.093 188.638 282.907 188.661 282.712C188.683 282.517 188.769 282.33 188.918 282.153C189.067 281.975 189.239 281.855 189.432 281.793C189.631 281.73 189.837 281.727 190.049 281.785C190.264 281.84 190.469 281.95 190.665 282.115C190.871 282.287 191.02 282.48 191.112 282.693C191.207 282.904 191.24 283.116 191.211 283.332C191.181 283.548 191.089 283.747 190.935 283.931L190.858 284.023C190.845 284.038 190.827 284.047 190.805 284.049C190.788 284.05 190.772 284.045 190.756 284.032L190.228 283.588C190.213 283.575 190.203 283.559 190.198 283.54C190.199 283.52 190.206 283.502 190.219 283.487L190.288 283.404C190.381 283.294 190.42 283.17 190.405 283.032C190.39 282.894 190.317 282.77 190.185 282.659C190.075 282.567 189.963 282.523 189.85 282.527C189.742 282.531 189.646 282.583 189.561 282.684C189.502 282.755 189.469 282.831 189.462 282.914C189.455 282.997 189.469 283.095 189.505 283.209C189.543 283.319 189.608 283.478 189.7 283.686L189.75 283.822C189.845 284.069 189.911 284.27 189.948 284.426C189.99 284.582 189.998 284.743 189.973 284.91C189.948 285.076 189.87 285.238 189.739 285.394C189.505 285.673 189.223 285.816 188.894 285.822C188.571 285.827 188.253 285.699 187.941 285.437Z" fill="#B1B4C5"/>
</g>
<g clip-path="url(#clip2_0_778)">
<rect x="185.896" y="312.114" width="85" height="2.66667" rx="1.33333" transform="rotate(-40 185.896 312.114)" fill="#B1B4C5"/>
<path fill-rule="evenodd" clip-rule="evenodd" d="M242.251 257.894C242.306 257.212 242.912 256.709 243.592 256.78L251.636 257.627C252.292 257.697 252.774 258.277 252.722 258.935V258.935C252.667 259.617 252.061 260.12 251.381 260.049L243.337 259.201C242.681 259.132 242.199 258.552 242.251 257.894V257.894Z" fill="#B1B4C5"/>
<path fill-rule="evenodd" clip-rule="evenodd" d="M250.792 268.072C250.135 268.01 249.648 267.435 249.693 266.776L250.256 258.708C250.303 258.025 250.904 257.516 251.586 257.581V257.581C252.243 257.643 252.73 258.218 252.684 258.877L252.122 266.945C252.074 267.628 251.474 268.137 250.792 268.072V268.072Z" fill="#B1B4C5"/>
<path d="M212.177 283.755C212.422 284.047 212.513 284.348 212.452 284.661C212.391 284.968 212.212 285.246 211.914 285.496L210.885 286.36C210.87 286.372 210.852 286.379 210.832 286.38C210.812 286.376 210.796 286.366 210.783 286.351L208.176 283.244C208.163 283.228 208.158 283.212 208.159 283.195C208.161 283.173 208.17 283.155 208.185 283.142L209.146 282.336C209.474 282.061 209.79 281.921 210.094 281.916C210.396 281.909 210.671 282.054 210.92 282.351C211.175 282.654 211.241 282.972 211.118 283.305C211.11 283.327 211.117 283.338 211.137 283.336C211.535 283.263 211.882 283.403 212.177 283.755ZM209.268 283.181C209.252 283.194 209.251 283.208 209.264 283.224L209.87 283.945C209.882 283.961 209.896 283.962 209.912 283.949L210.261 283.656C210.384 283.553 210.452 283.438 210.466 283.312C210.48 283.185 210.437 283.062 210.336 282.943C210.233 282.82 210.118 282.755 209.991 282.747C209.867 282.736 209.743 282.783 209.617 282.888L209.268 283.181ZM211.416 284.958C211.539 284.855 211.604 284.74 211.613 284.613C211.621 284.481 211.57 284.348 211.46 284.217C211.349 284.085 211.228 284.012 211.096 283.997C210.964 283.977 210.837 284.019 210.714 284.122L210.328 284.445C210.313 284.458 210.312 284.472 210.325 284.488L210.988 285.278C211.001 285.294 211.015 285.295 211.03 285.282L211.416 284.958ZM213.009 279.949C213.021 279.964 213.027 279.983 213.025 280.005C213.023 280.022 213.015 280.037 213 280.05L211.768 281.084C211.753 281.097 211.751 281.111 211.764 281.126L212.366 281.843C212.379 281.858 212.393 281.859 212.408 281.847L213.176 281.203C213.191 281.19 213.208 281.186 213.228 281.19C213.248 281.189 213.264 281.196 213.277 281.211L213.651 281.657C213.664 281.673 213.669 281.692 213.668 281.714C213.666 281.731 213.658 281.746 213.642 281.759L212.875 282.403C212.859 282.416 212.858 282.43 212.871 282.445L213.492 283.185C213.505 283.2 213.519 283.202 213.534 283.189L214.766 282.155C214.781 282.142 214.799 282.138 214.818 282.143C214.838 282.142 214.855 282.149 214.867 282.164L215.242 282.61C215.254 282.625 215.26 282.644 215.258 282.667C215.256 282.684 215.248 282.698 215.233 282.711L213.385 284.262C213.37 284.275 213.352 284.282 213.332 284.283C213.313 284.278 213.296 284.268 213.284 284.253L210.676 281.146C210.664 281.13 210.658 281.114 210.659 281.097C210.661 281.075 210.67 281.057 210.685 281.044L212.533 279.494C212.548 279.481 212.566 279.477 212.585 279.481C212.605 279.48 212.622 279.487 212.634 279.503L213.009 279.949ZM217.414 280.881C217.38 280.909 217.346 280.912 217.311 280.889L216.827 280.527C216.814 280.518 216.801 280.518 216.789 280.528L215.929 281.249C215.917 281.26 215.915 281.272 215.922 281.287L216.194 281.826C216.211 281.865 216.204 281.897 216.173 281.922L215.617 282.389C215.577 282.422 215.545 282.415 215.521 282.368L213.737 278.562C213.72 278.524 213.729 278.49 213.763 278.462L214.429 277.903C214.463 277.875 214.497 277.872 214.532 277.895L217.97 280.312L217.99 280.327C218.014 280.354 218.008 280.382 217.975 280.411L217.414 280.881ZM215.587 280.636C215.592 280.648 215.6 280.654 215.611 280.655C215.62 280.653 215.627 280.649 215.633 280.644L216.24 280.135C216.246 280.13 216.251 280.123 216.254 280.115C216.255 280.104 216.25 280.095 216.24 280.088L214.804 279.022C214.791 279.012 214.781 279.01 214.775 279.015C214.769 279.02 214.769 279.03 214.776 279.045L215.587 280.636ZM217.329 275.47C217.344 275.457 217.362 275.453 217.381 275.457C217.401 275.456 217.418 275.463 217.43 275.478L217.808 275.929C217.821 275.944 217.827 275.963 217.825 275.986C217.823 276.003 217.815 276.017 217.8 276.03L217.101 276.617C217.086 276.629 217.084 276.643 217.097 276.659L219.261 279.237C219.274 279.253 219.279 279.272 219.277 279.294C219.276 279.311 219.267 279.326 219.252 279.339L218.714 279.79C218.699 279.803 218.681 279.81 218.661 279.811C218.642 279.806 218.626 279.796 218.613 279.781L216.449 277.203C216.436 277.187 216.422 277.186 216.407 277.199L215.731 277.766C215.716 277.779 215.698 277.786 215.678 277.787C215.659 277.782 215.643 277.772 215.63 277.757L215.252 277.307C215.239 277.291 215.233 277.275 215.235 277.258C215.237 277.236 215.245 277.218 215.261 277.205L217.329 275.47ZM221.431 277.573C221.22 277.75 221.004 277.869 220.783 277.929C220.559 277.986 220.346 277.985 220.144 277.924C219.943 277.858 219.767 277.737 219.618 277.559L219.518 277.439C219.505 277.424 219.499 277.408 219.501 277.391C219.503 277.369 219.511 277.351 219.527 277.338L220.055 276.894C220.071 276.882 220.088 276.877 220.108 276.882C220.128 276.881 220.144 276.888 220.157 276.903L220.23 276.991C220.32 277.098 220.436 277.155 220.577 277.162C220.716 277.165 220.853 277.11 220.988 276.997C221.107 276.897 221.172 276.791 221.182 276.678C221.195 276.563 221.161 276.457 221.081 276.362C221.022 276.292 220.952 276.249 220.871 276.233C220.788 276.215 220.691 276.215 220.582 276.234C220.473 276.247 220.311 276.278 220.096 276.327C219.835 276.39 219.613 276.43 219.43 276.448C219.247 276.466 219.061 276.447 218.873 276.391C218.685 276.334 218.516 276.217 218.367 276.04C218.218 275.862 218.129 275.673 218.102 275.471C218.074 275.265 218.108 275.062 218.202 274.863C218.293 274.661 218.437 274.477 218.633 274.313C218.838 274.14 219.054 274.027 219.28 273.973C219.504 273.916 219.719 273.921 219.926 273.987C220.134 274.054 220.314 274.179 220.469 274.362L220.546 274.454C220.559 274.47 220.564 274.489 220.562 274.511C220.561 274.528 220.552 274.543 220.537 274.556L220.008 274.999C219.993 275.012 219.975 275.019 219.955 275.02C219.936 275.016 219.92 275.006 219.907 274.991L219.837 274.908C219.745 274.797 219.629 274.738 219.491 274.728C219.353 274.719 219.218 274.77 219.086 274.88C218.976 274.973 218.913 275.075 218.897 275.188C218.882 275.294 218.917 275.398 219.002 275.499C219.061 275.57 219.131 275.615 219.211 275.637C219.292 275.658 219.391 275.661 219.509 275.646C219.624 275.627 219.792 275.591 220.012 275.536L220.155 275.511C220.415 275.459 220.625 275.43 220.785 275.421C220.945 275.406 221.105 275.426 221.265 275.48C221.425 275.534 221.571 275.639 221.702 275.795C221.936 276.074 222.027 276.376 221.976 276.7C221.925 277.02 221.744 277.31 221.431 277.573Z" fill="#B1B4C5"/>
</g>
<g clip-path="url(#clip3_0_778)">
<rect x="245.378" y="290.126" width="85" height="2.66667" rx="1.33333" transform="rotate(-110 245.378 290.126)" fill="#B1B4C5"/>
<path fill-rule="evenodd" clip-rule="evenodd" d="M213.703 218.624C213.08 218.34 212.814 217.598 213.115 216.983L216.662 209.715C216.951 209.122 217.661 208.867 218.262 209.142V209.142C218.884 209.426 219.15 210.168 218.85 210.783L215.303 218.051C215.013 218.644 214.303 218.899 213.703 218.624V218.624Z" fill="#B1B4C5"/>
<path fill-rule="evenodd" clip-rule="evenodd" d="M226.189 214.08C225.905 214.676 225.198 214.938 224.595 214.669L217.205 211.381C216.58 211.103 216.307 210.364 216.601 209.746V209.746C216.885 209.15 217.592 208.888 218.195 209.157L225.584 212.445C226.21 212.723 226.483 213.462 226.189 214.08V214.08Z" fill="#B1B4C5"/>
<path d="M227.718 255.73C228.076 255.6 228.39 255.617 228.663 255.782C228.931 255.944 229.131 256.208 229.264 256.572L229.723 257.835C229.73 257.854 229.731 257.873 229.725 257.892C229.714 257.909 229.699 257.921 229.68 257.927L225.869 259.315C225.85 259.321 225.833 259.321 225.818 259.314C225.797 259.305 225.784 259.29 225.777 259.272L225.348 258.093C225.201 257.691 225.178 257.346 225.278 257.059C225.374 256.773 225.604 256.563 225.969 256.431C226.341 256.295 226.662 256.342 226.933 256.571C226.951 256.586 226.963 256.584 226.969 256.565C227.036 256.165 227.286 255.887 227.718 255.73ZM226.184 258.268C226.191 258.287 226.204 258.293 226.222 258.286L227.108 257.964C227.126 257.957 227.132 257.944 227.125 257.925L226.97 257.497C226.915 257.346 226.83 257.243 226.716 257.187C226.602 257.13 226.472 257.129 226.325 257.182C226.175 257.237 226.074 257.322 226.023 257.439C225.97 257.552 225.972 257.685 226.028 257.839L226.184 258.268ZM228.588 256.856C228.533 256.706 228.448 256.605 228.331 256.554C228.21 256.5 228.068 256.503 227.906 256.562C227.745 256.621 227.634 256.71 227.576 256.829C227.512 256.946 227.507 257.079 227.562 257.23L227.734 257.703C227.741 257.722 227.754 257.728 227.773 257.721L228.743 257.368C228.761 257.362 228.767 257.349 228.761 257.33L228.588 256.856ZM224.425 253.647C224.444 253.64 224.464 253.641 224.484 253.651C224.5 253.658 224.511 253.671 224.518 253.69L225.068 255.201C225.075 255.22 225.087 255.226 225.106 255.219L225.986 254.899C226.004 254.892 226.01 254.879 226.004 254.86L225.661 253.919C225.654 253.9 225.656 253.882 225.667 253.865C225.673 253.846 225.685 253.833 225.704 253.826L226.251 253.627C226.27 253.621 226.289 253.622 226.31 253.631C226.325 253.639 226.336 253.652 226.343 253.67L226.686 254.612C226.693 254.631 226.705 254.637 226.724 254.63L227.632 254.3C227.651 254.293 227.657 254.28 227.65 254.261L227.1 252.75C227.093 252.731 227.095 252.713 227.106 252.697C227.112 252.678 227.124 252.665 227.143 252.658L227.69 252.459C227.709 252.452 227.728 252.453 227.749 252.463C227.764 252.47 227.775 252.483 227.782 252.502L228.607 254.768C228.614 254.787 228.614 254.806 228.609 254.825C228.598 254.842 228.583 254.854 228.564 254.861L224.753 256.248C224.734 256.255 224.717 256.254 224.701 256.247C224.681 256.238 224.667 256.224 224.66 256.205L223.835 253.938C223.829 253.919 223.831 253.902 223.842 253.885C223.847 253.866 223.86 253.853 223.879 253.846L224.425 253.647ZM226.808 249.826C226.823 249.867 226.814 249.901 226.781 249.926L226.275 250.256C226.262 250.266 226.258 250.278 226.263 250.293L226.647 251.347C226.652 251.362 226.663 251.369 226.68 251.367L227.279 251.296C227.321 251.293 227.349 251.311 227.362 251.348L227.611 252.031C227.629 252.08 227.611 252.107 227.558 252.114L223.372 252.488C223.33 252.491 223.301 252.471 223.286 252.43L222.989 251.612C222.974 251.571 222.983 251.538 223.017 251.513L226.464 249.109L226.485 249.095C226.518 249.082 226.543 249.097 226.558 249.138L226.808 249.826ZM225.953 251.459C225.966 251.459 225.975 251.453 225.979 251.443C225.98 251.434 225.98 251.426 225.977 251.419L225.706 250.674C225.703 250.667 225.699 250.66 225.692 250.654C225.682 250.649 225.672 250.651 225.662 250.658L224.168 251.643C224.155 251.652 224.149 251.66 224.152 251.668C224.155 251.675 224.164 251.678 224.181 251.676L225.953 251.459ZM221.694 248.055C221.687 248.036 221.689 248.018 221.7 248.002C221.706 247.983 221.718 247.97 221.737 247.963L222.29 247.762C222.309 247.755 222.328 247.756 222.349 247.766C222.364 247.773 222.375 247.786 222.382 247.805L222.694 248.662C222.701 248.68 222.714 248.686 222.732 248.68L225.895 247.528C225.914 247.522 225.934 247.523 225.954 247.532C225.97 247.54 225.981 247.553 225.988 247.571L226.228 248.231C226.235 248.25 226.235 248.269 226.229 248.288C226.218 248.305 226.204 248.316 226.185 248.323L223.022 249.475C223.003 249.481 222.997 249.494 223.004 249.513L223.305 250.342C223.312 250.361 223.313 250.38 223.307 250.399C223.296 250.415 223.281 250.427 223.262 250.434L222.71 250.635C222.691 250.642 222.674 250.642 222.659 250.635C222.638 250.625 222.624 250.611 222.618 250.592L221.694 248.055ZM225.074 244.919C225.168 245.179 225.206 245.423 225.187 245.651C225.164 245.881 225.089 246.08 224.964 246.249C224.833 246.416 224.658 246.539 224.44 246.618L224.294 246.672C224.275 246.679 224.258 246.679 224.243 246.671C224.222 246.662 224.208 246.648 224.202 246.629L223.966 245.98C223.959 245.962 223.961 245.944 223.972 245.927C223.978 245.908 223.99 245.895 224.009 245.888L224.116 245.849C224.247 245.801 224.34 245.712 224.395 245.581C224.446 245.452 224.441 245.305 224.381 245.14C224.328 244.993 224.25 244.896 224.147 244.848C224.043 244.796 223.933 244.792 223.817 244.834C223.73 244.866 223.666 244.917 223.623 244.988C223.577 245.06 223.544 245.15 223.525 245.26C223.5 245.367 223.474 245.529 223.447 245.748C223.416 246.014 223.378 246.237 223.332 246.415C223.286 246.594 223.205 246.762 223.088 246.919C222.971 247.077 222.803 247.195 222.585 247.275C222.367 247.354 222.159 247.372 221.96 247.33C221.756 247.285 221.577 247.184 221.422 247.027C221.264 246.872 221.141 246.674 221.053 246.434C220.961 246.182 220.929 245.941 220.955 245.71C220.978 245.48 221.056 245.279 221.19 245.107C221.323 244.935 221.502 244.808 221.728 244.726L221.84 244.685C221.859 244.678 221.879 244.68 221.899 244.689C221.915 244.696 221.926 244.709 221.933 244.728L222.169 245.377C222.176 245.395 222.176 245.414 222.17 245.433C222.159 245.45 222.144 245.462 222.126 245.469L222.024 245.506C221.889 245.555 221.793 245.643 221.737 245.77C221.681 245.897 221.683 246.041 221.741 246.203C221.791 246.338 221.865 246.432 221.966 246.485C222.061 246.535 222.17 246.538 222.294 246.493C222.381 246.462 222.448 246.412 222.495 246.343C222.542 246.275 222.579 246.183 222.605 246.067C222.627 245.952 222.651 245.782 222.675 245.556L222.699 245.413C222.74 245.152 222.784 244.944 222.83 244.791C222.872 244.635 222.945 244.492 223.05 244.36C223.155 244.228 223.304 244.127 223.495 244.057C223.838 243.933 224.152 243.95 224.44 244.109C224.723 244.266 224.934 244.536 225.074 244.919Z" fill="#B1B4C5"/>
</g>
<g clip-path="url(#clip4_0_778)">
<rect x="184.246" y="208.734" width="85" height="2.66667" rx="1.33333" transform="rotate(110 184.246 208.734)" fill="#B1B4C5"/>
<path fill-rule="evenodd" clip-rule="evenodd" d="M162.55 283.868C162.845 284.486 162.571 285.224 161.946 285.503L154.557 288.791C153.954 289.059 153.246 288.798 152.963 288.201V288.201C152.669 287.583 152.942 286.845 153.567 286.566L160.956 283.278C161.56 283.01 162.267 283.271 162.55 283.868V283.868Z" fill="#B1B4C5"/>
<path fill-rule="evenodd" clip-rule="evenodd" d="M150.065 279.323C150.665 279.049 151.375 279.303 151.664 279.897L155.211 287.165C155.512 287.78 155.246 288.522 154.623 288.806V288.806C154.023 289.08 153.313 288.826 153.024 288.233L149.476 280.964C149.176 280.349 149.442 279.608 150.065 279.323V279.323Z" fill="#B1B4C5"/>
<path d="M175.665 246.434C175.308 246.304 175.078 246.089 174.974 245.787C174.874 245.491 174.89 245.16 175.022 244.796L175.482 243.533C175.489 243.514 175.501 243.499 175.518 243.488C175.537 243.483 175.556 243.483 175.574 243.49L179.386 244.877C179.405 244.884 179.418 244.895 179.425 244.91C179.434 244.931 179.436 244.951 179.429 244.969L179 246.148C178.854 246.55 178.65 246.829 178.389 246.985C178.131 247.143 177.82 247.155 177.456 247.022C177.084 246.887 176.867 246.644 176.807 246.295C176.803 246.272 176.792 246.266 176.776 246.277C176.467 246.539 176.097 246.592 175.665 246.434ZM178.472 245.477C178.478 245.458 178.473 245.445 178.454 245.438L177.569 245.116C177.55 245.109 177.537 245.115 177.53 245.134L177.374 245.562C177.319 245.713 177.318 245.846 177.369 245.963C177.42 246.079 177.519 246.164 177.666 246.218C177.816 246.272 177.948 246.272 178.062 246.215C178.175 246.163 178.26 246.059 178.316 245.905L178.472 245.477ZM175.723 245.012C175.668 245.163 175.669 245.295 175.725 245.409C175.784 245.528 175.894 245.618 176.056 245.676C176.217 245.735 176.359 245.738 176.481 245.684C176.605 245.636 176.694 245.536 176.749 245.386L176.921 244.912C176.928 244.893 176.922 244.881 176.903 244.874L175.933 244.521C175.915 244.514 175.902 244.52 175.895 244.539L175.723 245.012ZM176.848 250.147C176.83 250.14 176.815 250.126 176.806 250.106C176.799 250.09 176.799 250.073 176.805 250.054L177.355 248.543C177.362 248.525 177.356 248.512 177.337 248.505L176.458 248.185C176.439 248.178 176.426 248.184 176.419 248.203L176.077 249.144C176.07 249.163 176.057 249.175 176.038 249.181C176.021 249.192 176.003 249.194 175.984 249.187L175.438 248.988C175.419 248.982 175.405 248.968 175.395 248.947C175.388 248.932 175.388 248.915 175.395 248.896L175.737 247.955C175.744 247.936 175.738 247.923 175.719 247.916L174.812 247.586C174.793 247.579 174.78 247.585 174.773 247.604L174.223 249.115C174.216 249.133 174.203 249.146 174.184 249.152C174.167 249.162 174.15 249.164 174.131 249.158L173.584 248.959C173.565 248.952 173.551 248.938 173.541 248.918C173.534 248.902 173.534 248.885 173.541 248.866L174.366 246.6C174.373 246.581 174.385 246.566 174.401 246.555C174.42 246.549 174.439 246.55 174.458 246.557L178.27 247.944C178.288 247.951 178.301 247.962 178.309 247.977C178.318 247.998 178.319 248.017 178.313 248.036L177.488 250.303C177.481 250.322 177.468 250.334 177.449 250.34C177.432 250.351 177.414 250.353 177.395 250.346L176.848 250.147ZM172.567 251.542C172.582 251.501 172.611 251.481 172.652 251.484L173.252 251.555C173.268 251.557 173.279 251.55 173.285 251.535L173.669 250.481C173.674 250.466 173.67 250.453 173.656 250.444L173.151 250.113C173.117 250.088 173.107 250.057 173.121 250.02L173.369 249.337C173.387 249.289 173.419 249.279 173.463 249.308L176.911 251.712C176.944 251.737 176.954 251.77 176.939 251.811L176.641 252.629C176.626 252.67 176.598 252.69 176.556 252.687L172.37 252.313L172.345 252.31C172.311 252.298 172.302 252.271 172.317 252.23L172.567 251.542ZM174.272 250.841C174.262 250.833 174.252 250.831 174.242 250.836C174.235 250.842 174.23 250.849 174.228 250.857L173.957 251.601C173.954 251.608 173.953 251.616 173.954 251.625C173.959 251.636 173.968 251.641 173.98 251.641L175.757 251.847C175.773 251.849 175.783 251.846 175.786 251.839C175.788 251.831 175.783 251.823 175.769 251.814L174.272 250.841ZM175.346 256.186C175.339 256.205 175.327 256.217 175.307 256.223C175.291 256.234 175.273 256.236 175.254 256.229L174.702 256.028C174.683 256.021 174.669 256.007 174.659 255.987C174.652 255.972 174.652 255.954 174.658 255.936L174.97 255.079C174.977 255.06 174.971 255.047 174.952 255.04L171.789 253.889C171.771 253.882 171.756 253.868 171.747 253.848C171.74 253.833 171.74 253.815 171.746 253.797L171.987 253.137C171.993 253.118 172.005 253.103 172.022 253.092C172.041 253.087 172.06 253.087 172.079 253.094L175.242 254.245C175.261 254.252 175.273 254.246 175.28 254.227L175.582 253.398C175.589 253.38 175.601 253.365 175.617 253.354C175.636 253.348 175.655 253.349 175.674 253.355L176.227 253.557C176.246 253.563 176.259 253.574 176.266 253.59C176.275 253.61 176.277 253.63 176.27 253.649L175.346 256.186ZM170.742 256.416C170.836 256.156 170.964 255.945 171.126 255.783C171.291 255.622 171.476 255.516 171.681 255.468C171.888 255.424 172.101 255.442 172.319 255.521L172.466 255.575C172.485 255.581 172.498 255.592 172.505 255.608C172.514 255.628 172.516 255.648 172.509 255.667L172.273 256.315C172.266 256.334 172.253 256.346 172.234 256.352C172.217 256.363 172.199 256.365 172.181 256.358L172.073 256.319C171.942 256.271 171.813 256.28 171.687 256.345C171.565 256.411 171.474 256.527 171.414 256.692C171.361 256.839 171.358 256.963 171.406 257.066C171.452 257.172 171.534 257.247 171.65 257.289C171.737 257.32 171.819 257.323 171.897 257.296C171.978 257.27 172.062 257.222 172.147 257.151C172.235 257.085 172.36 256.977 172.521 256.827C172.716 256.642 172.888 256.497 173.038 256.389C173.187 256.282 173.358 256.206 173.549 256.16C173.74 256.115 173.944 256.132 174.162 256.211C174.38 256.291 174.552 256.41 174.676 256.571C174.803 256.736 174.876 256.929 174.894 257.148C174.916 257.369 174.883 257.599 174.795 257.84C174.704 258.092 174.574 258.298 174.405 258.458C174.24 258.619 174.051 258.722 173.838 258.769C173.626 258.815 173.406 258.797 173.181 258.715L173.068 258.673C173.049 258.667 173.035 258.653 173.026 258.632C173.018 258.617 173.018 258.6 173.025 258.581L173.261 257.933C173.268 257.914 173.28 257.899 173.297 257.888C173.316 257.882 173.335 257.883 173.353 257.89L173.455 257.927C173.59 257.976 173.72 257.97 173.845 257.909C173.969 257.848 174.061 257.736 174.119 257.575C174.169 257.439 174.172 257.319 174.129 257.214C174.089 257.115 174.007 257.042 173.883 256.997C173.796 256.965 173.713 256.961 173.633 256.983C173.552 257.004 173.465 257.051 173.371 257.123C173.28 257.197 173.153 257.312 172.989 257.47L172.878 257.564C172.679 257.738 172.512 257.869 172.378 257.956C172.246 258.049 172.098 258.112 171.932 258.145C171.767 258.179 171.588 258.16 171.397 258.091C171.055 257.966 170.825 257.75 170.706 257.444C170.591 257.142 170.603 256.799 170.742 256.416Z" fill="#B1B4C5"/>
</g>
<path d="M289.599 145.866C289.599 146.563 289.372 147.094 288.917 147.461C288.47 147.82 287.89 148 287.179 148H284.715C284.678 148 284.645 147.989 284.616 147.967C284.594 147.938 284.583 147.905 284.583 147.868V140.432C284.583 140.395 284.594 140.366 284.616 140.344C284.645 140.315 284.678 140.3 284.715 140.3H287.014C287.799 140.3 288.407 140.476 288.84 140.828C289.273 141.173 289.489 141.701 289.489 142.412C289.489 143.138 289.207 143.662 288.642 143.985C288.605 144.007 288.602 144.029 288.631 144.051C289.276 144.418 289.599 145.023 289.599 145.866ZM286.189 141.631C286.152 141.631 286.134 141.649 286.134 141.686V143.413C286.134 143.45 286.152 143.468 286.189 143.468H287.025C287.318 143.468 287.549 143.387 287.718 143.226C287.887 143.065 287.971 142.841 287.971 142.555C287.971 142.262 287.887 142.034 287.718 141.873C287.557 141.712 287.326 141.631 287.025 141.631H286.189ZM287.113 146.658C287.406 146.658 287.634 146.574 287.795 146.405C287.964 146.229 288.048 145.983 288.048 145.668C288.048 145.353 287.964 145.107 287.795 144.931C287.634 144.748 287.406 144.656 287.113 144.656H286.189C286.152 144.656 286.134 144.674 286.134 144.711V146.603C286.134 146.64 286.152 146.658 286.189 146.658H287.113ZM295.252 141.499C295.252 141.536 295.238 141.569 295.208 141.598C295.186 141.62 295.157 141.631 295.12 141.631H292.172C292.136 141.631 292.117 141.649 292.117 141.686V143.402C292.117 143.439 292.136 143.457 292.172 143.457H294.009C294.046 143.457 294.075 143.472 294.097 143.501C294.127 143.523 294.141 143.552 294.141 143.589V144.656C294.141 144.693 294.127 144.726 294.097 144.755C294.075 144.777 294.046 144.788 294.009 144.788H292.172C292.136 144.788 292.117 144.806 292.117 144.843V146.614C292.117 146.651 292.136 146.669 292.172 146.669H295.12C295.157 146.669 295.186 146.684 295.208 146.713C295.238 146.735 295.252 146.764 295.252 146.801V147.868C295.252 147.905 295.238 147.938 295.208 147.967C295.186 147.989 295.157 148 295.12 148H290.698C290.662 148 290.629 147.989 290.599 147.967C290.577 147.938 290.566 147.905 290.566 147.868V140.432C290.566 140.395 290.577 140.366 290.599 140.344C290.629 140.315 290.662 140.3 290.698 140.3H295.12C295.157 140.3 295.186 140.315 295.208 140.344C295.238 140.366 295.252 140.395 295.252 140.432V141.499ZM300.341 148C300.26 148 300.209 147.963 300.187 147.89L299.934 146.812C299.926 146.783 299.908 146.768 299.879 146.768H297.822C297.792 146.768 297.774 146.783 297.767 146.812L297.514 147.89C297.492 147.963 297.444 148 297.371 148H296.04C295.944 148 295.908 147.952 295.93 147.857L297.91 140.41C297.932 140.337 297.983 140.3 298.064 140.3H299.659C299.739 140.3 299.791 140.337 299.813 140.41L301.793 147.857L301.804 147.901C301.804 147.967 301.763 148 301.683 148H300.341ZM298.064 145.503C298.056 145.525 298.06 145.543 298.075 145.558C298.089 145.565 298.104 145.569 298.119 145.569H299.571C299.585 145.569 299.6 145.565 299.615 145.558C299.629 145.543 299.633 145.525 299.626 145.503L298.867 142.313C298.859 142.284 298.848 142.269 298.834 142.269C298.819 142.269 298.808 142.284 298.801 142.313L298.064 145.503ZM306.598 140.3C306.635 140.3 306.664 140.315 306.686 140.344C306.716 140.366 306.73 140.395 306.73 140.432V141.51C306.73 141.547 306.716 141.58 306.686 141.609C306.664 141.631 306.635 141.642 306.598 141.642H304.926C304.89 141.642 304.871 141.66 304.871 141.697V147.868C304.871 147.905 304.857 147.938 304.827 147.967C304.805 147.989 304.776 148 304.739 148H303.452C303.416 148 303.383 147.989 303.353 147.967C303.331 147.938 303.32 147.905 303.32 147.868V141.697C303.32 141.66 303.302 141.642 303.265 141.642H301.648C301.612 141.642 301.579 141.631 301.549 141.609C301.527 141.58 301.516 141.547 301.516 141.51V140.432C301.516 140.395 301.527 140.366 301.549 140.344C301.579 140.315 301.612 140.3 301.648 140.3H306.598ZM309.881 148.088C309.375 148.088 308.932 148 308.55 147.824C308.169 147.641 307.872 147.388 307.659 147.065C307.454 146.735 307.351 146.357 307.351 145.932V145.646C307.351 145.609 307.362 145.58 307.384 145.558C307.414 145.529 307.447 145.514 307.483 145.514H308.748C308.785 145.514 308.814 145.529 308.836 145.558C308.866 145.58 308.88 145.609 308.88 145.646V145.855C308.88 146.112 308.976 146.328 309.166 146.504C309.357 146.673 309.614 146.757 309.936 146.757C310.222 146.757 310.439 146.684 310.585 146.537C310.739 146.39 310.816 146.203 310.816 145.976C310.816 145.807 310.769 145.664 310.673 145.547C310.578 145.422 310.442 145.309 310.266 145.206C310.098 145.096 309.834 144.949 309.474 144.766C309.034 144.546 308.675 144.341 308.396 144.15C308.118 143.959 307.879 143.714 307.681 143.413C307.483 143.112 307.384 142.749 307.384 142.324C307.384 141.899 307.483 141.528 307.681 141.213C307.887 140.89 308.173 140.645 308.539 140.476C308.906 140.3 309.324 140.212 309.793 140.212C310.285 140.212 310.721 140.307 311.102 140.498C311.484 140.681 311.781 140.942 311.993 141.279C312.206 141.616 312.312 142.005 312.312 142.445V142.665C312.312 142.702 312.298 142.735 312.268 142.764C312.246 142.786 312.217 142.797 312.18 142.797H310.915C310.879 142.797 310.846 142.786 310.816 142.764C310.794 142.735 310.783 142.702 310.783 142.665V142.467C310.783 142.203 310.692 141.983 310.508 141.807C310.325 141.631 310.076 141.543 309.76 141.543C309.496 141.543 309.287 141.613 309.133 141.752C308.987 141.884 308.913 142.071 308.913 142.313C308.913 142.482 308.957 142.628 309.045 142.753C309.133 142.878 309.269 142.999 309.452 143.116C309.636 143.226 309.914 143.373 310.288 143.556L310.519 143.688C310.945 143.923 311.275 144.128 311.509 144.304C311.751 144.473 311.953 144.689 312.114 144.953C312.276 145.217 312.356 145.536 312.356 145.91C312.356 146.577 312.129 147.109 311.674 147.505C311.227 147.894 310.629 148.088 309.881 148.088Z" fill="#B1B4C5"/>
<path d="M92.599 145.866C92.599 146.563 92.3717 147.094 91.917 147.461C91.4697 147.82 90.8903 148 90.179 148H87.715C87.6783 148 87.6453 147.989 87.616 147.967C87.594 147.938 87.583 147.905 87.583 147.868V140.432C87.583 140.395 87.594 140.366 87.616 140.344C87.6453 140.315 87.6783 140.3 87.715 140.3H90.014C90.7987 140.3 91.4073 140.476 91.84 140.828C92.2727 141.173 92.489 141.701 92.489 142.412C92.489 143.138 92.2067 143.662 91.642 143.985C91.6053 144.007 91.6017 144.029 91.631 144.051C92.2763 144.418 92.599 145.023 92.599 145.866ZM89.189 141.631C89.1523 141.631 89.134 141.649 89.134 141.686V143.413C89.134 143.45 89.1523 143.468 89.189 143.468H90.025C90.3183 143.468 90.5493 143.387 90.718 143.226C90.8867 143.065 90.971 142.841 90.971 142.555C90.971 142.262 90.8867 142.034 90.718 141.873C90.5567 141.712 90.3257 141.631 90.025 141.631H89.189ZM90.113 146.658C90.4063 146.658 90.6337 146.574 90.795 146.405C90.9637 146.229 91.048 145.983 91.048 145.668C91.048 145.353 90.9637 145.107 90.795 144.931C90.6337 144.748 90.4063 144.656 90.113 144.656H89.189C89.1523 144.656 89.134 144.674 89.134 144.711V146.603C89.134 146.64 89.1523 146.658 89.189 146.658H90.113ZM98.2524 141.499C98.2524 141.536 98.2377 141.569 98.2084 141.598C98.1864 141.62 98.1571 141.631 98.1204 141.631H95.1724C95.1357 141.631 95.1174 141.649 95.1174 141.686V143.402C95.1174 143.439 95.1357 143.457 95.1724 143.457H97.0094C97.0461 143.457 97.0754 143.472 97.0974 143.501C97.1267 143.523 97.1414 143.552 97.1414 143.589V144.656C97.1414 144.693 97.1267 144.726 97.0974 144.755C97.0754 144.777 97.0461 144.788 97.0094 144.788H95.1724C95.1357 144.788 95.1174 144.806 95.1174 144.843V146.614C95.1174 146.651 95.1357 146.669 95.1724 146.669H98.1204C98.1571 146.669 98.1864 146.684 98.2084 146.713C98.2377 146.735 98.2524 146.764 98.2524 146.801V147.868C98.2524 147.905 98.2377 147.938 98.2084 147.967C98.1864 147.989 98.1571 148 98.1204 148H93.6984C93.6617 148 93.6287 147.989 93.5994 147.967C93.5774 147.938 93.5664 147.905 93.5664 147.868V140.432C93.5664 140.395 93.5774 140.366 93.5994 140.344C93.6287 140.315 93.6617 140.3 93.6984 140.3H98.1204C98.1571 140.3 98.1864 140.315 98.2084 140.344C98.2377 140.366 98.2524 140.395 98.2524 140.432V141.499ZM103.341 148C103.26 148 103.209 147.963 103.187 147.89L102.934 146.812C102.926 146.783 102.908 146.768 102.879 146.768H100.822C100.792 146.768 100.774 146.783 100.767 146.812L100.514 147.89C100.492 147.963 100.444 148 100.371 148H99.0395C98.9442 148 98.9075 147.952 98.9295 147.857L100.91 140.41C100.932 140.337 100.983 140.3 101.064 140.3H102.659C102.739 140.3 102.791 140.337 102.813 140.41L104.793 147.857L104.804 147.901C104.804 147.967 104.763 148 104.683 148H103.341ZM101.064 145.503C101.056 145.525 101.06 145.543 101.075 145.558C101.089 145.565 101.104 145.569 101.119 145.569H102.571C102.585 145.569 102.6 145.565 102.615 145.558C102.629 145.543 102.633 145.525 102.626 145.503L101.867 142.313C101.859 142.284 101.848 142.269 101.834 142.269C101.819 142.269 101.808 142.284 101.801 142.313L101.064 145.503ZM109.598 140.3C109.635 140.3 109.664 140.315 109.686 140.344C109.716 140.366 109.73 140.395 109.73 140.432V141.51C109.73 141.547 109.716 141.58 109.686 141.609C109.664 141.631 109.635 141.642 109.598 141.642H107.926C107.89 141.642 107.871 141.66 107.871 141.697V147.868C107.871 147.905 107.857 147.938 107.827 147.967C107.805 147.989 107.776 148 107.739 148H106.452C106.416 148 106.383 147.989 106.353 147.967C106.331 147.938 106.32 147.905 106.32 147.868V141.697C106.32 141.66 106.302 141.642 106.265 141.642H104.648C104.612 141.642 104.579 141.631 104.549 141.609C104.527 141.58 104.516 141.547 104.516 141.51V140.432C104.516 140.395 104.527 140.366 104.549 140.344C104.579 140.315 104.612 140.3 104.648 140.3H109.598ZM112.881 148.088C112.375 148.088 111.932 148 111.55 147.824C111.169 147.641 110.872 147.388 110.659 147.065C110.454 146.735 110.351 146.357 110.351 145.932V145.646C110.351 145.609 110.362 145.58 110.384 145.558C110.414 145.529 110.447 145.514 110.483 145.514H111.748C111.785 145.514 111.814 145.529 111.836 145.558C111.866 145.58 111.88 145.609 111.88 145.646V145.855C111.88 146.112 111.976 146.328 112.166 146.504C112.357 146.673 112.614 146.757 112.936 146.757C113.222 146.757 113.439 146.684 113.585 146.537C113.739 146.39 113.816 146.203 113.816 145.976C113.816 145.807 113.769 145.664 113.673 145.547C113.578 145.422 113.442 145.309 113.266 145.206C113.098 145.096 112.834 144.949 112.474 144.766C112.034 144.546 111.675 144.341 111.396 144.15C111.118 143.959 110.879 143.714 110.681 143.413C110.483 143.112 110.384 142.749 110.384 142.324C110.384 141.899 110.483 141.528 110.681 141.213C110.887 140.89 111.173 140.645 111.539 140.476C111.906 140.3 112.324 140.212 112.793 140.212C113.285 140.212 113.721 140.307 114.102 140.498C114.484 140.681 114.781 140.942 114.993 141.279C115.206 141.616 115.312 142.005 115.312 142.445V142.665C115.312 142.702 115.298 142.735 115.268 142.764C115.246 142.786 115.217 142.797 115.18 142.797H113.915C113.879 142.797 113.846 142.786 113.816 142.764C113.794 142.735 113.783 142.702 113.783 142.665V142.467C113.783 142.203 113.692 141.983 113.508 141.807C113.325 141.631 113.076 141.543 112.76 141.543C112.496 141.543 112.287 141.613 112.133 141.752C111.987 141.884 111.913 142.071 111.913 142.313C111.913 142.482 111.957 142.628 112.045 142.753C112.133 142.878 112.269 142.999 112.452 143.116C112.636 143.226 112.914 143.373 113.288 143.556L113.519 143.688C113.945 143.923 114.275 144.128 114.509 144.304C114.751 144.473 114.953 144.689 115.114 144.953C115.276 145.217 115.356 145.536 115.356 145.91C115.356 146.577 115.129 147.109 114.674 147.505C114.227 147.894 113.629 148.088 112.881 148.088Z" fill="#B1B4C5"/>
<path d="M342.599 306.866C342.599 307.563 342.372 308.094 341.917 308.461C341.47 308.82 340.89 309 340.179 309H337.715C337.678 309 337.645 308.989 337.616 308.967C337.594 308.938 337.583 308.905 337.583 308.868V301.432C337.583 301.395 337.594 301.366 337.616 301.344C337.645 301.315 337.678 301.3 337.715 301.3H340.014C340.799 301.3 341.407 301.476 341.84 301.828C342.273 302.173 342.489 302.701 342.489 303.412C342.489 304.138 342.207 304.662 341.642 304.985C341.605 305.007 341.602 305.029 341.631 305.051C342.276 305.418 342.599 306.023 342.599 306.866ZM339.189 302.631C339.152 302.631 339.134 302.649 339.134 302.686V304.413C339.134 304.45 339.152 304.468 339.189 304.468H340.025C340.318 304.468 340.549 304.387 340.718 304.226C340.887 304.065 340.971 303.841 340.971 303.555C340.971 303.262 340.887 303.034 340.718 302.873C340.557 302.712 340.326 302.631 340.025 302.631H339.189ZM340.113 307.658C340.406 307.658 340.634 307.574 340.795 307.405C340.964 307.229 341.048 306.983 341.048 306.668C341.048 306.353 340.964 306.107 340.795 305.931C340.634 305.748 340.406 305.656 340.113 305.656H339.189C339.152 305.656 339.134 305.674 339.134 305.711V307.603C339.134 307.64 339.152 307.658 339.189 307.658H340.113ZM348.252 302.499C348.252 302.536 348.238 302.569 348.208 302.598C348.186 302.62 348.157 302.631 348.12 302.631H345.172C345.136 302.631 345.117 302.649 345.117 302.686V304.402C345.117 304.439 345.136 304.457 345.172 304.457H347.009C347.046 304.457 347.075 304.472 347.097 304.501C347.127 304.523 347.141 304.552 347.141 304.589V305.656C347.141 305.693 347.127 305.726 347.097 305.755C347.075 305.777 347.046 305.788 347.009 305.788H345.172C345.136 305.788 345.117 305.806 345.117 305.843V307.614C345.117 307.651 345.136 307.669 345.172 307.669H348.12C348.157 307.669 348.186 307.684 348.208 307.713C348.238 307.735 348.252 307.764 348.252 307.801V308.868C348.252 308.905 348.238 308.938 348.208 308.967C348.186 308.989 348.157 309 348.12 309H343.698C343.662 309 343.629 308.989 343.599 308.967C343.577 308.938 343.566 308.905 343.566 308.868V301.432C343.566 301.395 343.577 301.366 343.599 301.344C343.629 301.315 343.662 301.3 343.698 301.3H348.12C348.157 301.3 348.186 301.315 348.208 301.344C348.238 301.366 348.252 301.395 348.252 301.432V302.499ZM353.341 309C353.26 309 353.209 308.963 353.187 308.89L352.934 307.812C352.926 307.783 352.908 307.768 352.879 307.768H350.822C350.792 307.768 350.774 307.783 350.767 307.812L350.514 308.89C350.492 308.963 350.444 309 350.371 309H349.04C348.944 309 348.908 308.952 348.93 308.857L350.91 301.41C350.932 301.337 350.983 301.3 351.064 301.3H352.659C352.739 301.3 352.791 301.337 352.813 301.41L354.793 308.857L354.804 308.901C354.804 308.967 354.763 309 354.683 309H353.341ZM351.064 306.503C351.056 306.525 351.06 306.543 351.075 306.558C351.089 306.565 351.104 306.569 351.119 306.569H352.571C352.585 306.569 352.6 306.565 352.615 306.558C352.629 306.543 352.633 306.525 352.626 306.503L351.867 303.313C351.859 303.284 351.848 303.269 351.834 303.269C351.819 303.269 351.808 303.284 351.801 303.313L351.064 306.503ZM359.598 301.3C359.635 301.3 359.664 301.315 359.686 301.344C359.716 301.366 359.73 301.395 359.73 301.432V302.51C359.73 302.547 359.716 302.58 359.686 302.609C359.664 302.631 359.635 302.642 359.598 302.642H357.926C357.89 302.642 357.871 302.66 357.871 302.697V308.868C357.871 308.905 357.857 308.938 357.827 308.967C357.805 308.989 357.776 309 357.739 309H356.452C356.416 309 356.383 308.989 356.353 308.967C356.331 308.938 356.32 308.905 356.32 308.868V302.697C356.32 302.66 356.302 302.642 356.265 302.642H354.648C354.612 302.642 354.579 302.631 354.549 302.609C354.527 302.58 354.516 302.547 354.516 302.51V301.432C354.516 301.395 354.527 301.366 354.549 301.344C354.579 301.315 354.612 301.3 354.648 301.3H359.598ZM362.881 309.088C362.375 309.088 361.932 309 361.55 308.824C361.169 308.641 360.872 308.388 360.659 308.065C360.454 307.735 360.351 307.357 360.351 306.932V306.646C360.351 306.609 360.362 306.58 360.384 306.558C360.414 306.529 360.447 306.514 360.483 306.514H361.748C361.785 306.514 361.814 306.529 361.836 306.558C361.866 306.58 361.88 306.609 361.88 306.646V306.855C361.88 307.112 361.976 307.328 362.166 307.504C362.357 307.673 362.614 307.757 362.936 307.757C363.222 307.757 363.439 307.684 363.585 307.537C363.739 307.39 363.816 307.203 363.816 306.976C363.816 306.807 363.769 306.664 363.673 306.547C363.578 306.422 363.442 306.309 363.266 306.206C363.098 306.096 362.834 305.949 362.474 305.766C362.034 305.546 361.675 305.341 361.396 305.15C361.118 304.959 360.879 304.714 360.681 304.413C360.483 304.112 360.384 303.749 360.384 303.324C360.384 302.899 360.483 302.528 360.681 302.213C360.887 301.89 361.173 301.645 361.539 301.476C361.906 301.3 362.324 301.212 362.793 301.212C363.285 301.212 363.721 301.307 364.102 301.498C364.484 301.681 364.781 301.942 364.993 302.279C365.206 302.616 365.312 303.005 365.312 303.445V303.665C365.312 303.702 365.298 303.735 365.268 303.764C365.246 303.786 365.217 303.797 365.18 303.797H363.915C363.879 303.797 363.846 303.786 363.816 303.764C363.794 303.735 363.783 303.702 363.783 303.665V303.467C363.783 303.203 363.692 302.983 363.508 302.807C363.325 302.631 363.076 302.543 362.76 302.543C362.496 302.543 362.287 302.613 362.133 302.752C361.987 302.884 361.913 303.071 361.913 303.313C361.913 303.482 361.957 303.628 362.045 303.753C362.133 303.878 362.269 303.999 362.452 304.116C362.636 304.226 362.914 304.373 363.288 304.556L363.519 304.688C363.945 304.923 364.275 305.128 364.509 305.304C364.751 305.473 364.953 305.689 365.114 305.953C365.276 306.217 365.356 306.536 365.356 306.91C365.356 307.577 365.129 308.109 364.674 308.505C364.227 308.894 363.629 309.088 362.881 309.088Z" fill="#B1B4C5"/>
<path d="M38.599 306.866C38.599 307.563 38.3717 308.094 37.917 308.461C37.4697 308.82 36.8903 309 36.179 309H33.715C33.6783 309 33.6453 308.989 33.616 308.967C33.594 308.938 33.583 308.905 33.583 308.868V301.432C33.583 301.395 33.594 301.366 33.616 301.344C33.6453 301.315 33.6783 301.3 33.715 301.3H36.014C36.7987 301.3 37.4073 301.476 37.84 301.828C38.2727 302.173 38.489 302.701 38.489 303.412C38.489 304.138 38.2067 304.662 37.642 304.985C37.6053 305.007 37.6017 305.029 37.631 305.051C38.2763 305.418 38.599 306.023 38.599 306.866ZM35.189 302.631C35.1523 302.631 35.134 302.649 35.134 302.686V304.413C35.134 304.45 35.1523 304.468 35.189 304.468H36.025C36.3183 304.468 36.5493 304.387 36.718 304.226C36.8867 304.065 36.971 303.841 36.971 303.555C36.971 303.262 36.8867 303.034 36.718 302.873C36.5567 302.712 36.3257 302.631 36.025 302.631H35.189ZM36.113 307.658C36.4063 307.658 36.6337 307.574 36.795 307.405C36.9637 307.229 37.048 306.983 37.048 306.668C37.048 306.353 36.9637 306.107 36.795 305.931C36.6337 305.748 36.4063 305.656 36.113 305.656H35.189C35.1523 305.656 35.134 305.674 35.134 305.711V307.603C35.134 307.64 35.1523 307.658 35.189 307.658H36.113ZM44.2524 302.499C44.2524 302.536 44.2377 302.569 44.2084 302.598C44.1864 302.62 44.1571 302.631 44.1204 302.631H41.1724C41.1357 302.631 41.1174 302.649 41.1174 302.686V304.402C41.1174 304.439 41.1357 304.457 41.1724 304.457H43.0094C43.0461 304.457 43.0754 304.472 43.0974 304.501C43.1267 304.523 43.1414 304.552 43.1414 304.589V305.656C43.1414 305.693 43.1267 305.726 43.0974 305.755C43.0754 305.777 43.0461 305.788 43.0094 305.788H41.1724C41.1357 305.788 41.1174 305.806 41.1174 305.843V307.614C41.1174 307.651 41.1357 307.669 41.1724 307.669H44.1204C44.1571 307.669 44.1864 307.684 44.2084 307.713C44.2377 307.735 44.2524 307.764 44.2524 307.801V308.868C44.2524 308.905 44.2377 308.938 44.2084 308.967C44.1864 308.989 44.1571 309 44.1204 309H39.6984C39.6617 309 39.6287 308.989 39.5994 308.967C39.5774 308.938 39.5664 308.905 39.5664 308.868V301.432C39.5664 301.395 39.5774 301.366 39.5994 301.344C39.6287 301.315 39.6617 301.3 39.6984 301.3H44.1204C44.1571 301.3 44.1864 301.315 44.2084 301.344C44.2377 301.366 44.2524 301.395 44.2524 301.432V302.499ZM49.3405 309C49.2598 309 49.2085 308.963 49.1865 308.89L48.9335 307.812C48.9262 307.783 48.9078 307.768 48.8785 307.768H46.8215C46.7922 307.768 46.7738 307.783 46.7665 307.812L46.5135 308.89C46.4915 308.963 46.4438 309 46.3705 309H45.0395C44.9442 309 44.9075 308.952 44.9295 308.857L46.9095 301.41C46.9315 301.337 46.9828 301.3 47.0635 301.3H48.6585C48.7392 301.3 48.7905 301.337 48.8125 301.41L50.7925 308.857L50.8035 308.901C50.8035 308.967 50.7632 309 50.6825 309H49.3405ZM47.0635 306.503C47.0562 306.525 47.0598 306.543 47.0745 306.558C47.0892 306.565 47.1038 306.569 47.1185 306.569H48.5705C48.5852 306.569 48.5998 306.565 48.6145 306.558C48.6292 306.543 48.6328 306.525 48.6255 306.503L47.8665 303.313C47.8592 303.284 47.8482 303.269 47.8335 303.269C47.8188 303.269 47.8078 303.284 47.8005 303.313L47.0635 306.503ZM55.5985 301.3C55.6351 301.3 55.6645 301.315 55.6865 301.344C55.7158 301.366 55.7305 301.395 55.7305 301.432V302.51C55.7305 302.547 55.7158 302.58 55.6865 302.609C55.6645 302.631 55.6351 302.642 55.5985 302.642H53.9265C53.8898 302.642 53.8715 302.66 53.8715 302.697V308.868C53.8715 308.905 53.8568 308.938 53.8275 308.967C53.8055 308.989 53.7761 309 53.7395 309H52.4525C52.4158 309 52.3828 308.989 52.3535 308.967C52.3315 308.938 52.3205 308.905 52.3205 308.868V302.697C52.3205 302.66 52.3021 302.642 52.2655 302.642H50.6485C50.6118 302.642 50.5788 302.631 50.5495 302.609C50.5275 302.58 50.5165 302.547 50.5165 302.51V301.432C50.5165 301.395 50.5275 301.366 50.5495 301.344C50.5788 301.315 50.6118 301.3 50.6485 301.3H55.5985ZM58.8813 309.088C58.3753 309.088 57.9316 309 57.5503 308.824C57.1689 308.641 56.8719 308.388 56.6593 308.065C56.4539 307.735 56.3513 307.357 56.3513 306.932V306.646C56.3513 306.609 56.3623 306.58 56.3843 306.558C56.4136 306.529 56.4466 306.514 56.4833 306.514H57.7483C57.7849 306.514 57.8143 306.529 57.8363 306.558C57.8656 306.58 57.8803 306.609 57.8803 306.646V306.855C57.8803 307.112 57.9756 307.328 58.1663 307.504C58.3569 307.673 58.6136 307.757 58.9363 307.757C59.2223 307.757 59.4386 307.684 59.5853 307.537C59.7393 307.39 59.8163 307.203 59.8163 306.976C59.8163 306.807 59.7686 306.664 59.6733 306.547C59.5779 306.422 59.4423 306.309 59.2663 306.206C59.0976 306.096 58.8336 305.949 58.4743 305.766C58.0343 305.546 57.6749 305.341 57.3963 305.15C57.1176 304.959 56.8793 304.714 56.6813 304.413C56.4833 304.112 56.3843 303.749 56.3843 303.324C56.3843 302.899 56.4833 302.528 56.6813 302.213C56.8866 301.89 57.1726 301.645 57.5393 301.476C57.9059 301.3 58.3239 301.212 58.7933 301.212C59.2846 301.212 59.7209 301.307 60.1023 301.498C60.4836 301.681 60.7806 301.942 60.9933 302.279C61.2059 302.616 61.3123 303.005 61.3123 303.445V303.665C61.3123 303.702 61.2976 303.735 61.2683 303.764C61.2463 303.786 61.2169 303.797 61.1803 303.797H59.9153C59.8786 303.797 59.8456 303.786 59.8163 303.764C59.7943 303.735 59.7833 303.702 59.7833 303.665V303.467C59.7833 303.203 59.6916 302.983 59.5083 302.807C59.3249 302.631 59.0756 302.543 58.7603 302.543C58.4963 302.543 58.2873 302.613 58.1333 302.752C57.9866 302.884 57.9133 303.071 57.9133 303.313C57.9133 303.482 57.9573 303.628 58.0453 303.753C58.1333 303.878 58.2689 303.999 58.4523 304.116C58.6356 304.226 58.9143 304.373 59.2883 304.556L59.5193 304.688C59.9446 304.923 60.2746 305.128 60.5093 305.304C60.7513 305.473 60.9529 305.689 61.1143 305.953C61.2756 306.217 61.3563 306.536 61.3563 306.91C61.3563 307.577 61.1289 308.109 60.6743 308.505C60.2269 308.894 59.6293 309.088 58.8813 309.088Z" fill="#B1B4C5"/>
<path d="M191.599 409.866C191.599 410.563 191.372 411.094 190.917 411.461C190.47 411.82 189.89 412 189.179 412H186.715C186.678 412 186.645 411.989 186.616 411.967C186.594 411.938 186.583 411.905 186.583 411.868V404.432C186.583 404.395 186.594 404.366 186.616 404.344C186.645 404.315 186.678 404.3 186.715 404.3H189.014C189.799 404.3 190.407 404.476 190.84 404.828C191.273 405.173 191.489 405.701 191.489 406.412C191.489 407.138 191.207 407.662 190.642 407.985C190.605 408.007 190.602 408.029 190.631 408.051C191.276 408.418 191.599 409.023 191.599 409.866ZM188.189 405.631C188.152 405.631 188.134 405.649 188.134 405.686V407.413C188.134 407.45 188.152 407.468 188.189 407.468H189.025C189.318 407.468 189.549 407.387 189.718 407.226C189.887 407.065 189.971 406.841 189.971 406.555C189.971 406.262 189.887 406.034 189.718 405.873C189.557 405.712 189.326 405.631 189.025 405.631H188.189ZM189.113 410.658C189.406 410.658 189.634 410.574 189.795 410.405C189.964 410.229 190.048 409.983 190.048 409.668C190.048 409.353 189.964 409.107 189.795 408.931C189.634 408.748 189.406 408.656 189.113 408.656H188.189C188.152 408.656 188.134 408.674 188.134 408.711V410.603C188.134 410.64 188.152 410.658 188.189 410.658H189.113ZM197.252 405.499C197.252 405.536 197.238 405.569 197.208 405.598C197.186 405.62 197.157 405.631 197.12 405.631H194.172C194.136 405.631 194.117 405.649 194.117 405.686V407.402C194.117 407.439 194.136 407.457 194.172 407.457H196.009C196.046 407.457 196.075 407.472 196.097 407.501C196.127 407.523 196.141 407.552 196.141 407.589V408.656C196.141 408.693 196.127 408.726 196.097 408.755C196.075 408.777 196.046 408.788 196.009 408.788H194.172C194.136 408.788 194.117 408.806 194.117 408.843V410.614C194.117 410.651 194.136 410.669 194.172 410.669H197.12C197.157 410.669 197.186 410.684 197.208 410.713C197.238 410.735 197.252 410.764 197.252 410.801V411.868C197.252 411.905 197.238 411.938 197.208 411.967C197.186 411.989 197.157 412 197.12 412H192.698C192.662 412 192.629 411.989 192.599 411.967C192.577 411.938 192.566 411.905 192.566 411.868V404.432C192.566 404.395 192.577 404.366 192.599 404.344C192.629 404.315 192.662 404.3 192.698 404.3H197.12C197.157 404.3 197.186 404.315 197.208 404.344C197.238 404.366 197.252 404.395 197.252 404.432V405.499ZM202.341 412C202.26 412 202.209 411.963 202.187 411.89L201.934 410.812C201.926 410.783 201.908 410.768 201.879 410.768H199.822C199.792 410.768 199.774 410.783 199.767 410.812L199.514 411.89C199.492 411.963 199.444 412 199.371 412H198.04C197.944 412 197.908 411.952 197.93 411.857L199.91 404.41C199.932 404.337 199.983 404.3 200.064 404.3H201.659C201.739 404.3 201.791 404.337 201.813 404.41L203.793 411.857L203.804 411.901C203.804 411.967 203.763 412 203.683 412H202.341ZM200.064 409.503C200.056 409.525 200.06 409.543 200.075 409.558C200.089 409.565 200.104 409.569 200.119 409.569H201.571C201.585 409.569 201.6 409.565 201.615 409.558C201.629 409.543 201.633 409.525 201.626 409.503L200.867 406.313C200.859 406.284 200.848 406.269 200.834 406.269C200.819 406.269 200.808 406.284 200.801 406.313L200.064 409.503ZM208.598 404.3C208.635 404.3 208.664 404.315 208.686 404.344C208.716 404.366 208.73 404.395 208.73 404.432V405.51C208.73 405.547 208.716 405.58 208.686 405.609C208.664 405.631 208.635 405.642 208.598 405.642H206.926C206.89 405.642 206.871 405.66 206.871 405.697V411.868C206.871 411.905 206.857 411.938 206.827 411.967C206.805 411.989 206.776 412 206.739 412H205.452C205.416 412 205.383 411.989 205.353 411.967C205.331 411.938 205.32 411.905 205.32 411.868V405.697C205.32 405.66 205.302 405.642 205.265 405.642H203.648C203.612 405.642 203.579 405.631 203.549 405.609C203.527 405.58 203.516 405.547 203.516 405.51V404.432C203.516 404.395 203.527 404.366 203.549 404.344C203.579 404.315 203.612 404.3 203.648 404.3H208.598ZM211.881 412.088C211.375 412.088 210.932 412 210.55 411.824C210.169 411.641 209.872 411.388 209.659 411.065C209.454 410.735 209.351 410.357 209.351 409.932V409.646C209.351 409.609 209.362 409.58 209.384 409.558C209.414 409.529 209.447 409.514 209.483 409.514H210.748C210.785 409.514 210.814 409.529 210.836 409.558C210.866 409.58 210.88 409.609 210.88 409.646V409.855C210.88 410.112 210.976 410.328 211.166 410.504C211.357 410.673 211.614 410.757 211.936 410.757C212.222 410.757 212.439 410.684 212.585 410.537C212.739 410.39 212.816 410.203 212.816 409.976C212.816 409.807 212.769 409.664 212.673 409.547C212.578 409.422 212.442 409.309 212.266 409.206C212.098 409.096 211.834 408.949 211.474 408.766C211.034 408.546 210.675 408.341 210.396 408.15C210.118 407.959 209.879 407.714 209.681 407.413C209.483 407.112 209.384 406.749 209.384 406.324C209.384 405.899 209.483 405.528 209.681 405.213C209.887 404.89 210.173 404.645 210.539 404.476C210.906 404.3 211.324 404.212 211.793 404.212C212.285 404.212 212.721 404.307 213.102 404.498C213.484 404.681 213.781 404.942 213.993 405.279C214.206 405.616 214.312 406.005 214.312 406.445V406.665C214.312 406.702 214.298 406.735 214.268 406.764C214.246 406.786 214.217 406.797 214.18 406.797H212.915C212.879 406.797 212.846 406.786 212.816 406.764C212.794 406.735 212.783 406.702 212.783 406.665V406.467C212.783 406.203 212.692 405.983 212.508 405.807C212.325 405.631 212.076 405.543 211.76 405.543C211.496 405.543 211.287 405.613 211.133 405.752C210.987 405.884 210.913 406.071 210.913 406.313C210.913 406.482 210.957 406.628 211.045 406.753C211.133 406.878 211.269 406.999 211.452 407.116C211.636 407.226 211.914 407.373 212.288 407.556L212.519 407.688C212.945 407.923 213.275 408.128 213.509 408.304C213.751 408.473 213.953 408.689 214.114 408.953C214.276 409.217 214.356 409.536 214.356 409.91C214.356 410.577 214.129 411.109 213.674 411.505C213.227 411.894 212.629 412.088 211.881 412.088Z" fill="#B1B4C5"/>
</g>
<defs>
<filter id="filter0_d_0_778" x="-3" y="0" width="406" height="467" filterUnits="userSpaceOnUse" color-interpolation-filters="sRGB">
<feFlood flood-opacity="0" result="BackgroundImageFix"/>
<feColorMatrix in="SourceAlpha" type="matrix" values="0 0 0 0 0 0 0 0 0 0 0 0 0 0 0 0 0 0 127 0" result="hardAlpha"/>
<feOffset dy="3"/>
<feGaussianBlur stdDeviation="1.5"/>
<feColorMatrix type="matrix" values="0 0 0 0 0 0 0 0 0 0 0 0 0 0 0 0 0 0 0.196706 0"/>
<feBlend mode="normal" in2="BackgroundImageFix" result="effect1_dropShadow_0_778"/>
<feBlend mode="normal" in="SourceGraphic" in2="effect1_dropShadow_0_778" result="shape"/>
</filter>
<linearGradient id="paint0_linear_0_778" x1="265" y1="176" x2="265" y2="276.345" gradientUnits="userSpaceOnUse">
<stop stop-color="white" stop-opacity="0.0966455"/>
<stop offset="1" stop-color="white" stop-opacity="0.01"/>
</linearGradient>
<linearGradient id="paint1_linear_0_778" x1="32" y1="176" x2="32" y2="276.345" gradientUnits="userSpaceOnUse">
<stop stop-color="white" stop-opacity="0.0966455"/>
<stop offset="1" stop-color="white" stop-opacity="0.01"/>
</linearGradient>
<linearGradient id="paint2_linear_0_778" x1="149" y1="84" x2="149" y2="184.345" gradientUnits="userSpaceOnUse">
<stop stop-color="white" stop-opacity="0.0966455"/>
<stop offset="1" stop-color="white" stop-opacity="0.01"/>
</linearGradient>
<linearGradient id="paint3_linear_0_778" x1="219" y1="309" x2="219" y2="409.345" gradientUnits="userSpaceOnUse">
<stop stop-color="white" stop-opacity="0.0966455"/>
<stop offset="1" stop-color="white" stop-opacity="0.01"/>
</linearGradient>
<linearGradient id="paint4_linear_0_778" x1="78" y1="309" x2="78" y2="409.345" gradientUnits="userSpaceOnUse">
<stop stop-color="white" stop-opacity="0.0966455"/>
<stop offset="1" stop-color="white" stop-opacity="0.01"/>
</linearGradient>
<clipPath id="clip0_0_778">
<rect width="400" height="461" fill="white"/>
</clipPath>
<clipPath id="clip1_0_778">
<rect width="88" height="22" fill="white" transform="translate(155.365 246.291) rotate(40)"/>
</clipPath>
<clipPath id="clip2_0_778">
<rect width="88" height="22" fill="white" transform="translate(177.223 302.856) rotate(-40)"/>
</clipPath>
<clipPath id="clip3_0_778">
<rect width="88" height="22" fill="white" transform="translate(233.712 295.109) rotate(-110)"/>
</clipPath>
<clipPath id="clip4_0_778">
<rect width="88" height="22" fill="white" transform="translate(196.385 212.416) rotate(110)"/>
</clipPath>
</defs>
</svg>
